<?xml version="1.0" encoding="UTF-8"?>
<svg id="Layer_1" data-name="Layer 1" xmlns="http://www.w3.org/2000/svg" xmlns:xlink="http://www.w3.org/1999/xlink" viewBox="0 0 22.9 20.31">
  <defs>
    <style>
      .cls-1 {
        stroke: #231f20;
        stroke-linecap: round;
        stroke-linejoin: round;
        stroke-width: .5px;
      }

      .cls-1, .cls-2 {
        fill: none;
      }

      .cls-3 {
        clip-path: url(#clippath);
      }

      .cls-2, .cls-4 {
        stroke-width: 0px;
      }

      .cls-4 {
        fill: #231f20;
      }
    </style>
    <clipPath id="clippath">
      <rect class="cls-2" width="22.9" height="20.31"/>
    </clipPath>
  </defs>
  <g class="cls-3">
    <path class="cls-1" d="M18.04,6.89c1.67,1.8,3.15,3.96,3.85,5.19.98,1.73,1.01,3.56.07,5.14-1.06,1.79-3.12,2.87-5.4,2.83h-.01c-2.27.04-4.34-1.05-5.4-2.83-.94-1.59-.92-3.41.07-5.14.7-1.23,2.25-3.39,3.92-5.19M7.3,6.11l.78.04c.96.07,1.92.22,2.88.46,1.13.28,2.26,1.4,2.68,2.03M10.5,13.74H.25v-4.62c0-1.57,1.71-2.25,2.72-2.51.95-.24,1.91-.4,2.88-.47l.78-.03M4.53,2.8c0-1.62.89-2.55,2.43-2.55s2.43.93,2.43,2.55c0,1.83-1.09,3.31-2.43,3.31s-2.43-1.49-2.43-3.31ZM7.3,6.11l.94,3.86-1.28,1.49-1.28-1.49.94-3.86c.23,0,.45,0,.68,0ZM14.43,5.73h4.25c.32,0,.58.26.58.58s-.26.58-.58.58h-4.25c-.32,0-.58-.26-.58-.58,0-.32.26-.58.58-.58ZM16.08,5.73l-2.2-2.2c-.11-.11-.18-.27-.18-.43s.06-.31.18-.43c.2-.2.52-.23.76-.08.24.16.54.18.81.07.26-.11.46-.34.52-.62.06-.28.31-.48.59-.48s.53.2.59.48c.06.28.26.51.52.62.26.11.57.08.81-.07.24-.15.56-.12.76.08.11.11.18.26.18.43s-.06.32-.18.43l-1.95,2.2"/>
    <path class="cls-4" d="M17.54,12.49h-.6c0,.2-.05.38-.14.54-.09.15-.2.28-.34.39-.14.1-.3.18-.47.22-.18.05-.36.07-.54.06v.02c.09.09.18.19.27.29.09.1.18.2.27.3l1.11,1.36v.05h-.51l-1.23-1.52c-.05-.05-.1-.11-.15-.18-.06-.07-.11-.12-.16-.18-.06-.06-.11-.13-.17-.19l.14-.33c.19.04.36.05.54.04.18-.02.33-.06.47-.12.14-.07.25-.16.33-.29.09-.12.13-.27.14-.45h-1.58v-.36h1.53c-.06-.17-.16-.3-.3-.39-.14-.09-.3-.13-.46-.13h-.77v-.37h2.82l-.19.37h-1.01v.03c.07.04.13.1.21.18.07.08.13.19.16.31h.84l-.19.36Z"/>
  </g>
</svg>