<?xml version="1.0" encoding="UTF-8"?>
<svg id="Layer_1" data-name="Layer 1" xmlns="http://www.w3.org/2000/svg" xmlns:xlink="http://www.w3.org/1999/xlink" viewBox="0 0 24.44 16.73">
  <defs>
    <style>
      .cls-1 {
        clip-path: url(#clippath);
      }

      .cls-2 {
        stroke-width: 0px;
      }

      .cls-2, .cls-3 {
        fill: none;
      }

      .cls-3 {
        stroke: #231f20;
        stroke-linecap: round;
        stroke-miterlimit: 10;
        stroke-width: .5px;
      }
    </style>
    <clipPath id="clippath">
      <rect class="cls-2" width="24.44" height="16.73"/>
    </clipPath>
  </defs>
  <g class="cls-1">
    <path class="cls-3" d="M12.09.25c-1.54,0-2.8,1.24-2.8,2.77s1.26,2.76,2.8,2.76,2.8-1.24,2.8-2.76S13.63.25,12.09.25ZM17.46,16.48H6.98c-.7,0-1.26-.56-1.26-1.26v-1.78c0-3.55,2.92-6.44,6.5-6.44s6.51,2.89,6.51,6.44v1.78c0,.69-.57,1.26-1.26,1.26ZM19.46,2.67c-1.11,0-2.01.89-2.01,1.98s.9,1.98,2.01,1.98,2.01-.89,2.01-1.98-.9-1.98-2.01-1.98ZM16.75,8.81c.84-.68,1.61-.84,2.7-.84,2.61,0,4.74,2.11,4.74,4.69v1.26c0,.55-.45,1-1.01,1h-4.46M5.72,15.23H1.26c-.56,0-1.01-.45-1.01-1.01v-1.26c0-2.59,2.12-4.69,4.74-4.69,1.03,0,1.68.17,2.5.78M4.99,2.86c-1.11,0-2.01.89-2.01,1.98s.9,1.98,2.01,1.98,2.01-.89,2.01-1.98-.9-1.98-2.01-1.98Z"/>
  </g>
</svg>