<?xml version="1.0" encoding="UTF-8"?>
<svg id="Layer_1" data-name="Layer 1" xmlns="http://www.w3.org/2000/svg" xmlns:xlink="http://www.w3.org/1999/xlink" viewBox="0 0 23.59 19.86">
  <defs>
    <style>
      .cls-1 {
        clip-path: url(#clippath);
      }

      .cls-2 {
        stroke-width: 0px;
      }

      .cls-2, .cls-3 {
        fill: none;
      }

      .cls-3 {
        stroke: #231f20;
        stroke-linecap: round;
        stroke-miterlimit: 10;
        stroke-width: .5px;
      }
    </style>
    <clipPath id="clippath">
      <rect class="cls-2" width="23.59" height="19.86"/>
    </clipPath>
  </defs>
  <g class="cls-1">
    <path class="cls-3" d="M7.24,9.12c0,1.13-.92,2.05-2.05,2.05s-2.05-.91-2.05-2.05.92-2.05,2.05-2.05,2.05.92,2.05,2.05ZM13.84,12.23c0,1.13-.92,2.05-2.05,2.05s-2.05-.92-2.05-2.05.91-2.05,2.05-2.05,2.05.92,2.05,2.05ZM3.75,5.33l-.15,1.31c-.02.15.09.29.24.31.01,0,.02,0,.03,0,.04,0,.08,0,.11-.03l1.2-.54,1.2.54c.14.06.3,0,.36-.14.02-.05.03-.09.02-.14l-.15-1.31.89-.97c.1-.11.1-.29-.02-.39-.04-.03-.08-.06-.13-.07l-1.29-.26-.65-1.14c-.07-.13-.24-.18-.38-.1-.04.02-.08.06-.1.1l-.65,1.14-1.29.26c-.15.03-.24.18-.22.32.01.05.03.09.07.13l.89.97ZM16.96,5.33l-.15,1.31c-.02.15.09.29.24.31.05,0,.1,0,.15-.02l1.2-.54,1.2.54c.14.06.3,0,.36-.14.02-.05.03-.1.02-.15l-.15-1.31.89-.97c.1-.11.09-.29-.02-.39-.04-.03-.08-.06-.13-.07l-1.29-.26-.65-1.14c-.07-.13-.24-.18-.38-.1-.04.02-.08.06-.1.1l-.65,1.14-1.29.26c-.15.03-.25.18-.22.32.01.05.03.09.07.13l.89.97ZM9.84,4.4l-.22,1.95c-.02.15.09.29.24.31.05,0,.1,0,.14-.02l1.79-.81,1.79.81c.14.06.3,0,.37-.14.02-.05.03-.1.02-.14l-.22-1.95,1.32-1.45c.1-.11.1-.29-.02-.39-.04-.03-.08-.06-.13-.07l-1.93-.39-.97-1.71c-.08-.13-.24-.18-.38-.1-.04.02-.08.06-.1.1l-.97,1.71-1.92.39c-.15.03-.25.18-.22.33.01.05.03.09.07.13l1.33,1.45ZM6.19,19.61c.15-3.1,2.79-5.48,5.88-5.33,2.88.14,5.19,2.45,5.33,5.33H6.19ZM16.23,16.45h6.84c.15,0,.28-.12.28-.28,0-2.73-2.21-4.94-4.94-4.94-1.93,0-3.83,1.65-4.64,3.4M9.93,14.59l-.25-.49c-1.14-2.48-4.08-3.56-6.56-2.41-1.75.81-2.87,2.56-2.87,4.49h7.34M18.4,7.07c-1.1,0-1.99.89-1.99,1.98s.89,1.98,1.99,1.99c1.1,0,1.99-.89,1.99-1.99h0c0-1.1-.89-1.98-1.99-1.98Z"/>
  </g>
</svg>