<?xml version="1.0" encoding="UTF-8"?>
<svg id="Layer_1" data-name="Layer 1" xmlns="http://www.w3.org/2000/svg" xmlns:xlink="http://www.w3.org/1999/xlink" viewBox="0 0 18.08 18.05">
  <defs>
    <style>
      .cls-1 {
        clip-path: url(#clippath);
      }

      .cls-2 {
        stroke-width: 0px;
      }

      .cls-2, .cls-3 {
        fill: none;
      }

      .cls-3 {
        stroke: #231f20;
        stroke-linecap: round;
        stroke-miterlimit: 10;
        stroke-width: .5px;
      }
    </style>
    <clipPath id="clippath">
      <rect class="cls-2" width="18.08" height="18.05"/>
    </clipPath>
  </defs>
  <g class="cls-1">
    <path class="cls-3" d="M12.62,3.86c.01.1-.04.15-.06.17l-.53.38.46.8.59-.27c.06-.03.14-.02.19.03.28.27.62.47.99.57.09,0,.11.11.12.14l.06.65h.92l.06-.65s.03-.14.12-.14c.37-.1.71-.3.99-.57.05-.05.13-.06.19-.03l.59.27.46-.8-.53-.38s-.07-.07-.06-.17c.09-.37.09-.77,0-1.14-.01-.1.04-.15.06-.17l.53-.38-.46-.8-.59.27c-.06.03-.14.02-.19-.03-.28-.27-.61-.47-.99-.57-.09,0-.11-.11-.12-.14l-.06-.65h-.92l-.06.65s-.03.14-.12.14c-.37.1-.71.3-.99.57-.05.05-.13.06-.19.03l-.59-.27-.46.8.53.38s.07.07.06.17c-.09.37-.09.77,0,1.14ZM9.03,6.06c-1.64,0-2.97,1.33-2.97,2.97s1.33,2.97,2.97,2.97,2.97-1.33,2.97-2.97-1.33-2.97-2.97-2.97ZM6.85,1.21h1.63c.39,0,.71.32.71.71v2.08M16.86,5.89v2.59c0,.39-.32.71-.71.71h-2.08M12.05,16.85h-2.47c-.39,0-.71-.32-.71-.71v-2.08M1.2,12.46v-2.88c0-.39.32-.71.71-.71h2.08M.25,14.38v2.56c0,.63.22.85.49.85h4.67c.27,0,.49-.22.49-.85v-2.56.36M.25,14.42h5.65v-.53c0-.27-.22-.49-.49-.49H.74c-.27,0-.49.22-.49.49v.53ZM3.9,13.4v-.87s-.01-.02-.02-.02h-1.6s-.02.01-.02.02v.87M2.59,15.07h.96c.09,0,.16.07.16.16v.92c0,.09-.07.16-.16.16h-.96c-.09,0-.16-.07-.16-.16v-.92c0-.09.07-.16.16-.16ZM.3,4.8h6.04s.02-.01.02-.02v-.35s0-.02-.02-.02H.3s-.02.01-.02.02v.35s.01.02.02.02ZM.6,3.18v1.21M6.04,4.39v-1.21M5.91.31H.74c-.07,0-.13.06-.13.14v2.73h5.44V.44c0-.07-.06-.14-.13-.14ZM3.23,3.95c-.21,0-.21-.32,0-.32h.19c.21,0,.21.32,0,.32h-.19ZM15.34,10.71c.86,0,1.57.7,1.57,1.56s-.7,1.56-1.57,1.56-1.56-.7-1.56-1.56.7-1.56,1.56-1.56ZM13.43,17.75h3.82M16.69,16.32v.89c0,.71,1.1.73,1.1,0v-1.02c0-.88-.63-1.44-1.43-1.69-.64-.2-1.4-.2-2.04,0-.8.25-1.43.81-1.43,1.69v1.02c0,.73,1.1.71,1.1,0v-.89M16.08,3.29c0-.66-.53-1.19-1.19-1.19s-1.19.53-1.19,1.19.53,1.19,1.19,1.19,1.19-.53,1.19-1.19Z"/>
  </g>
</svg>