<?xml version="1.0" encoding="UTF-8"?>
<svg id="Layer_1" data-name="Layer 1" xmlns="http://www.w3.org/2000/svg" xmlns:xlink="http://www.w3.org/1999/xlink" viewBox="0 0 20.35 20.35">
  <defs>
    <style>
      .cls-1 {
        stroke: #231f20;
        stroke-linecap: round;
        stroke-linejoin: round;
        stroke-width: .5px;
      }

      .cls-1, .cls-2 {
        fill: none;
      }

      .cls-3 {
        clip-path: url(#clippath);
      }

      .cls-2 {
        stroke-width: 0px;
      }
    </style>
    <clipPath id="clippath">
      <rect class="cls-2" x="0" width="20.35" height="20.35"/>
    </clipPath>
  </defs>
  <g class="cls-3">
    <path class="cls-1" d="M8.15,19.88c0,.12-.1.22-.22.22h-2.95c-.07,0-.13-.03-.17-.09-.04-.05-.06-.12-.04-.19.23-.83.22-1.4-.03-1.8-.22-.35-.63-.57-1.26-.68-1.6-.18-2.22-2.76-2.56-4.15-.02-.09-.04-.17-.06-.25l-.6-2.46c-.05-.2-.01-.42.11-.6.13-.19.33-.33.55-.37.42-.08.82.19.95.64l.58,2.05M4.58,15.71c-.79-.54-1.87-1.59-2.35-2.6-.16-.34-.09-.74.18-1.01.18-.18.45-.27.71-.24.21.02.39.13.5.29.73,1.09,1.2,1.31,1.48,1.3.55-.01,1.06.23,1.52.71,1.17,1.24,1.71,3.89,1.55,5.74,0,.11-.1.2-.22.2,0,0-.01,0-.02,0M17.89,12.21l.58-2.05c.13-.45.53-.72.95-.64.23.04.43.18.55.37.12.18.16.39.11.6l-.6,2.46c-.02.08-.04.16-.06.25-.33,1.39-.95,3.97-2.56,4.15-.63.11-1.04.33-1.26.68-.25.4-.26.97-.03,1.8.02.07,0,.14-.04.19-.04.05-.1.09-.17.09h-2.95c-.12,0-.22-.1-.22-.22M12.41,20.1h0c-.11,0-.21-.09-.22-.2-.15-1.85.39-4.5,1.55-5.74.45-.48.97-.72,1.52-.71.27,0,.75-.22,1.48-1.3.11-.17.29-.27.5-.29.25-.03.52.06.71.24.27.26.34.67.18,1.01-.49,1.01-1.56,2.05-2.35,2.6-.1.07-.23.04-.3-.05M10.39,4.33v.9M10.39,4.48l-2.19-2.19M10.61,4.54c-.11-.02-.19-.11-.19-.22v-.82c0-.82.41-1.65,1.14-2.28.84-.73,1.94-1.09,2.94-.95.1.01.17.09.19.18.14,1.06-.26,2.18-1.08,3-.71.71-1.64,1.11-2.57,1.11-.14,0-.29,0-.43-.03ZM9.77,4.57c-.93,0-1.86-.4-2.57-1.11-.82-.82-1.22-1.94-1.08-3,.01-.1.09-.17.19-.18,1.01-.14,2.11.22,2.94.95.72.63,1.14,1.46,1.14,2.28v.82c0,.11-.08.2-.19.22-.14.02-.29.03-.43.03ZM12.52,2.29l-2.19,2.19s-.1.06-.15.06M14.69,11.04c0,.12-.1.21-.22.21h0c-.26-.01-1.13-.07-1.39-.46-.08-.12-.1-.27-.05-.42.14-.37.11-.39-.19-.66l-.04-.03c-.18-.16-.19-.42-.02-.67.3-.42,1.1-.8,1.82-.4.1.06.14.19.09.29M6.71,6.76c.03-.11.15-.18.27-.15.6.18.82.51.91.76.12.35.03.76-.23,1.12-.12.17-.08.26.3.6.16.14.34.31.47.51.18.26.18.56,0,.81-.27.36-.87.51-1.43.34-.15-.05-.28-.04-.39.03-.24.13-.38.47-.43.63l-.16.6M12.75,5.97c.11.05.16.17.12.28-.05.12-.49,1.14-1.16,1.03-.22-.04-.22-.02-.35.22-.05.1-.12.23-.22.38-.12.16-.31.25-.56.25-.18,0-.39-.05-.62-.14-.45-.18-1.09-.61-1.03-1.08.04-.29.31-.47.81-.54,0,0,.01,0,.02,0,.03-.11-.12-.49-.33-.81-.06-.1-.04-.23.06-.3M8.47,14.12c-.07-.21-.37-1.29.05-1.75.12-.12.34-.25.72-.16.19.05.52.09.63-.09.1-.16.02-.49-.18-.7-.2-.22-.23-.51-.06-.76.18-.28.61-.47,1.07-.31,1.05.37,2.25,1.9,2.38,3.04.01.12-.07.23-.19.24M10.17,14.53c-2.57,0-4.67-2.1-4.67-4.67s2.1-4.67,4.67-4.67,4.67,2.1,4.67,4.67-2.1,4.67-4.67,4.67Z"/>
  </g>
</svg>