<?xml version="1.0" encoding="UTF-8"?>
<svg id="Layer_1" data-name="Layer 1" xmlns="http://www.w3.org/2000/svg" xmlns:xlink="http://www.w3.org/1999/xlink" viewBox="0 0 21.61 21.73">
  <defs>
    <style>
      .cls-1 {
        stroke: #231f20;
        stroke-linecap: round;
        stroke-linejoin: round;
        stroke-width: .5px;
      }

      .cls-1, .cls-2 {
        fill: none;
      }

      .cls-3 {
        clip-path: url(#clippath);
      }

      .cls-2 {
        stroke-width: 0px;
      }
    </style>
    <clipPath id="clippath">
      <rect class="cls-2" y="0" width="21.61" height="21.73"/>
    </clipPath>
  </defs>
  <g class="cls-3">
    <path class="cls-1" d="M7.25,10.73h7.11M10.79,7.25v7.23M16.76,12.23c.13-.49.57-.86,1.1-.86s.98.36,1.1.86h-2.21ZM17.86,10.11c.34,0,.62.28.62.61s-.28.62-.62.62-.62-.28-.62-.62.28-.61.62-.61ZM17.86,14.36c-1.93,0-3.5-1.57-3.5-3.5s1.57-3.5,3.5-3.5,3.5,1.57,3.5,3.5-1.57,3.5-3.5,3.5ZM14.29,17.98c0,1.93-1.57,3.5-3.5,3.5s-3.5-1.57-3.5-3.5,1.57-3.5,3.5-3.5,3.5,1.57,3.5,3.5ZM3.75,14.36c-1.93,0-3.5-1.57-3.5-3.5s1.57-3.5,3.5-3.5,3.5,1.57,3.5,3.5-1.57,3.5-3.5,3.5ZM7.29,3.75c0-1.93,1.57-3.5,3.5-3.5s3.5,1.57,3.5,3.5-1.57,3.5-3.5,3.5-3.5-1.57-3.5-3.5ZM11.39,17.84c0,.34-.28.62-.62.62s-.61-.28-.61-.62.28-.62.61-.62.62.28.62.62ZM9.69,19.35c.13-.49.57-.85,1.1-.85s.98.36,1.1.85h-2.21ZM9.69,5.12c.13-.49.57-.86,1.1-.86s.98.36,1.1.86h-2.21ZM10.79,3.03c.34,0,.62.28.62.62s-.28.61-.62.61-.61-.28-.61-.61.28-.62.61-.62ZM2.65,12.23c.13-.49.57-.86,1.1-.86s.98.36,1.1.86h-2.21ZM3.75,10.15c.34,0,.62.28.62.62s-.28.61-.62.61-.62-.28-.62-.61.28-.62.62-.62Z"/>
  </g>
</svg>