<?xml version="1.0" encoding="UTF-8"?>
<svg id="Layer_1" data-name="Layer 1" xmlns="http://www.w3.org/2000/svg" viewBox="0 0 34.58 34.58">
  <defs>
    <style>
      .cls-1 {
        fill: #fff200;
        stroke-width: 0px;
      }

      .cls-2 {
        fill: none;
        stroke: #231f20;
        stroke-miterlimit: 10;
        stroke-width: .5px;
      }
    </style>
  </defs>
  <path class="cls-1" d="M17.29,34.58C7.74,34.58,0,26.84,0,17.29S7.74,0,17.29,0s17.29,7.74,17.29,17.29-7.74,17.29-17.29,17.29"/>
  <path class="cls-2" d="M17.29,19.99v-2.11c.11,0,.64-.16.72-.24l.42-.42c.16-.16.16-.43,0-.6-.16-.16-.43-.16-.59,0l-.12.12-.12-.12c-.08-.08-.19-.12-.3-.12s-.22.04-.3.12l-.12.12-.12-.12c-.16-.16-.43-.16-.59,0-.16.16-.16.43,0,.6l.42.42c.08.08.23.2.34.2l.38.09M17.35,12.28h-.11c-1.83.01-3.31,1.52-3.3,3.36.01.55.15,1.09.41,1.57.08.16.17.32.28.49.07.11.15.23.24.37.44.59.77,1.24,1,1.94.11.42.48.71.91.72h1.03c.43-.01.8-.31.91-.72.23-.7.56-1.35,1-1.94.09-.14.17-.26.24-.37.11-.17.2-.33.28-.49.26-.48.4-1.02.42-1.57,0-1.84-1.47-3.35-3.3-3.36Z"/>
  <path class="cls-2" d="M23.08,24.15c1.23-.42,2.07-1.57,2.08-2.88,0-.35-.06-.69-.18-1.02,1.73-.83,2.45-2.91,1.63-4.64-.33-.69-.87-1.25-1.55-1.6.06-.24.1-.5.1-.75,0-1.33-.87-2.5-2.13-2.9-.46-1.71-2.2-2.72-3.9-2.26-.76.21-1.42.69-1.84,1.35-.95-1.48-2.92-1.91-4.4-.95-.66.43-1.14,1.09-1.34,1.85-1.26.4-2.12,1.57-2.13,2.9,0,.25.03.5.1.75-1.7.88-2.38,2.97-1.5,4.69.35.68.9,1.22,1.59,1.55-.12.33-.18.67-.18,1.02.01,1.31.84,2.46,2.08,2.88.32,1.43,1.6,2.44,3.05,2.43,1.11.02,2.14-.53,2.74-1.47.6.94,1.64,1.49,2.74,1.47,1.46.01,2.73-1,3.05-2.43Z"/>
  <line class="cls-2" x1="18.52" y1="22.18" x2="16.06" y2="22.18"/>
</svg>