<?xml version="1.0" encoding="UTF-8"?>
<svg id="Layer_1" data-name="Layer 1" xmlns="http://www.w3.org/2000/svg" viewBox="0 0 34.58 34.58">
  <defs>
    <style>
      .cls-1 {
        fill: #fff200;
        stroke-width: 0px;
      }

      .cls-2 {
        fill: none;
        stroke: #231f20;
        stroke-linecap: round;
        stroke-miterlimit: 10;
        stroke-width: .5px;
      }
    </style>
  </defs>
  <path class="cls-1" d="M17.29,34.58C7.74,34.58,0,26.84,0,17.29S7.74,0,17.29,0s17.29,7.74,17.29,17.29-7.74,17.29-17.29,17.29"/>
  <path class="cls-2" d="M17.29,8.93v8.39M13.07,17.32s.02-7.48,4.22-8.39c0,0,3.49.16,3.99,8.39M11.58,11.55s5.56,3.02,11.42,0M9.23,17.32h16.12M24.87,20.86c-.03.09-.06.18-.09.26M9.8,21.13c-.37-1.02-.57-2.13-.57-3.29,0-4.92,3.61-8.91,8.06-8.91s8.06,3.99,8.06,8.91c0,1.06-.17,2.08-.48,3.03M17.2,25.66c-.82,0-1.38-.25-1.38-.47,0-.82.62-1.49,1.38-1.49s1.38.67,1.38,1.49c0,.22-.57.47-1.38.47ZM22.63,22.92c0-.4.3-.72.67-.72s.67.32.67.72-.3.72-.67.72-.67-.32-.67-.72ZM19.68,20.15c0-.4.3-.72.67-.72s.67.32.67.72-.3.72-.67.72-.67-.32-.67-.72ZM16.5,22.92c0-.4.3-.72.67-.72s.67.32.67.72-.3.72-.67.72-.67-.32-.67-.72ZM10.21,22.92c0-.4.3-.72.67-.72s.67.32.67.72-.3.72-.67.72-.67-.32-.67-.72ZM10.88,25.66c-.82,0-1.38-.25-1.38-.47,0-.82.62-1.49,1.38-1.49s1.38.67,1.38,1.49c0,.22-.57.47-1.38.47ZM23.51,25.66c-.82,0-1.38-.25-1.38-.47,0-.82.62-1.49,1.38-1.49s1.38.67,1.38,1.49c0,.22-.57.47-1.38.47ZM13.41,20.14c0-.4.3-.72.67-.72s.67.32.67.72-.3.73-.67.73-.67-.33-.67-.73ZM14.04,22.83c-.82,0-1.38-.25-1.38-.47,0-.82.62-1.49,1.38-1.49s1.38.67,1.38,1.49c0,.22-.57.47-1.38.47ZM20.35,22.83c-.81,0-1.38-.25-1.38-.47,0-.82.62-1.49,1.38-1.49s1.38.67,1.38,1.49c0,.22-.57.47-1.38.47Z"/>
</svg>