<?xml version="1.0" encoding="UTF-8"?>
<svg id="Layer_1" data-name="Layer 1" xmlns="http://www.w3.org/2000/svg" viewBox="0 0 34.58 34.58">
  <defs>
    <style>
      .cls-1 {
        fill: #fff200;
        stroke-width: 0px;
      }

      .cls-2 {
        fill: none;
        stroke: #231f20;
        stroke-linecap: round;
        stroke-miterlimit: 10;
        stroke-width: .5px;
      }
    </style>
  </defs>
  <path class="cls-1" d="M17.29,34.58C7.74,34.58,0,26.84,0,17.29S7.74,0,17.29,0s17.29,7.74,17.29,17.29-7.74,17.29-17.29,17.29"/>
  <path class="cls-2" d="M17.29,19.18c-.53,0-.96.44-.96.96s.43.96.96.96.96-.43.96-.96-.43-.96-.96-.96ZM15.15,17.93c1.19-1.15,3.07-1.15,4.25,0M13.63,16.78c.92-1.06,2.28-1.65,3.66-1.65s2.74.59,3.66,1.65M12.08,15.66c1.29-1.52,3.2-2.41,5.18-2.41s3.89.89,5.17,2.41M18.21,26.41h-1.91c-.3,0-.59-.2-.66-.53l-.4-1.62c-.53-.17-1.05-.36-1.52-.66l-1.39.82c-.26.16-.63.13-.82-.1l-1.35-1.35c-.23-.23-.26-.56-.1-.82l.86-1.42c-.26-.49-.46-.99-.63-1.55l-1.58-.4c-.3-.07-.53-.36-.53-.66v-1.85c0-.33.2-.59.53-.66l1.62-.4c.16-.53.36-1.06.66-1.52l-.82-1.39c-.16-.26-.13-.63.1-.82l1.35-1.35c.23-.23.56-.26.82-.1l1.42.86c.49-.26.99-.46,1.55-.63l.4-1.58c.07-.3.36-.53.66-.53h1.81c.33,0,.59.2.66.53l.4,1.62c.53.16,1.05.36,1.52.62l1.38-.82c.26-.17.63-.13.83.1l1.35,1.35c.23.23.26.56.1.82l-.86,1.42c.26.49.46.99.62,1.55l1.58.4c.3.07.53.36.53.66v1.85c0,.33-.2.59-.53.66l-1.61.4c-.17.53-.36,1.05-.66,1.52l.82,1.38c.16.26.13.63-.1.82l-1.35,1.35c-.23.23-.56.26-.82.1l-1.42-.86c-.49.26-.99.46-1.55.63l-.4,1.58c.03.36-.23.56-.56.56Z"/>
</svg>