<?xml version="1.0" encoding="UTF-8"?>
<svg id="Layer_1" data-name="Layer 1" xmlns="http://www.w3.org/2000/svg" viewBox="0 0 34.58 34.58">
  <defs>
    <style>
      .cls-1 {
        fill: #fff200;
        stroke-width: 0px;
      }

      .cls-2 {
        fill: none;
        stroke: #231f20;
        stroke-linecap: round;
        stroke-miterlimit: 10;
        stroke-width: .5px;
      }
    </style>
  </defs>
  <path class="cls-1" d="M17.29,34.58C7.74,34.58,0,26.84,0,17.29S7.74,0,17.29,0s17.29,7.74,17.29,17.29-7.74,17.29-17.29,17.29"/>
  <path class="cls-2" d="M17.56,22.43l1.13-1.11c2.6-2.56,2.43-5.05,2.43-5.07h0c.15-4.29-3.45-7.16-3.45-7.16-8.04,7.08-.08,13.37-.08,13.37l2.27-2.36,4.35-4.52"/>
  <path class="cls-2" d="M22.72,20.33l-2.88-.13M21.95,14.81l.17,3.07h3.09M15.36,17.31l2.1,1.7,1.92-1.45M15.36,13.84l2.1,1.69,2.03-1.55M12.19,20.27h2.79M9.43,17.89l2.96-.12.27-2.59M10.46,15.89l7,6.68M14.11,14.28s-3.35-1.78-6.38-1.12c0,0-1.71,6.48,5.06,9.22,0,0,1.57.54,4.67.44h.98c4.24-.18,6.02-2.27,6.02-2.27,3.24-2.79,2.51-7.45,2.51-7.45-3.12-.59-5.02.65-5.02.65"/>
  <line class="cls-2" x1="17.46" y1="12.82" x2="17.46" y2="25.59"/>
</svg>