<?xml version="1.0" encoding="UTF-8"?>
<svg id="Layer_1" data-name="Layer 1" xmlns="http://www.w3.org/2000/svg" viewBox="0 0 34.58 34.58">
  <defs>
    <style>
      .cls-1 {
        fill: #fff200;
        stroke-width: 0px;
      }

      .cls-2 {
        fill: none;
        stroke: #231f20;
        stroke-miterlimit: 10;
        stroke-width: .5px;
      }
    </style>
  </defs>
  <path class="cls-1" d="M17.29,34.58C7.74,34.58,0,26.84,0,17.29S7.74,0,17.29,0s17.29,7.74,17.29,17.29-7.74,17.29-17.29,17.29"/>
  <path class="cls-2" d="M17.29,13.06c-.96,0-1.74-.79-1.74-1.75s.78-1.75,1.74-1.75,1.74.79,1.74,1.75-.78,1.75-1.74,1.75"/>
  <path class="cls-2" d="M17.29,13.06c-.96,0-1.74-.79-1.74-1.75s.78-1.75,1.74-1.75,1.74.79,1.74,1.75-.78,1.75-1.74,1.75Z"/>
  <path class="cls-2" d="M17.29,25.03c-.92,0-1.67-.78-1.67-1.74v-2.73c-.63-.41-1.02-1.13-1.02-1.91v-2.62c0-1.25.98-2.26,2.18-2.26h1.02c1.2,0,2.18,1.01,2.18,2.26v2.62c0,.78-.39,1.5-1.02,1.91v2.73c0,.96-.75,1.74-1.67,1.74"/>
  <path class="cls-2" d="M17.29,25.03c-.92,0-1.67-.78-1.67-1.74v-2.73c-.63-.41-1.02-1.13-1.02-1.91v-2.62c0-1.25.98-2.26,2.18-2.26h1.02c1.2,0,2.18,1.01,2.18,2.26v2.62c0,.78-.39,1.5-1.02,1.91v2.73c0,.96-.75,1.74-1.67,1.74Z"/>
  <path class="cls-2" d="M23.81,13.06c-.96,0-1.74-.79-1.74-1.75s.78-1.75,1.74-1.75,1.74.79,1.74,1.75-.78,1.75-1.74,1.75"/>
  <path class="cls-2" d="M23.81,13.06c-.96,0-1.74-.79-1.74-1.75s.78-1.75,1.74-1.75,1.74.79,1.74,1.75-.78,1.75-1.74,1.75Z"/>
  <path class="cls-2" d="M23.81,25.03c-.92,0-1.67-.78-1.67-1.74v-2.73c-.63-.41-1.02-1.13-1.02-1.91v-2.62c0-1.25.98-2.26,2.18-2.26h1.02c1.2,0,2.18,1.01,2.18,2.26v2.62c0,.78-.39,1.5-1.02,1.91v2.73c0,.96-.75,1.74-1.67,1.74"/>
  <path class="cls-2" d="M23.81,25.03c-.92,0-1.67-.78-1.67-1.74v-2.73c-.63-.41-1.02-1.13-1.02-1.91v-2.62c0-1.25.98-2.26,2.18-2.26h1.02c1.2,0,2.18,1.01,2.18,2.26v2.62c0,.78-.39,1.5-1.02,1.91v2.73c0,.96-.75,1.74-1.67,1.74Z"/>
  <path class="cls-2" d="M10.77,13.06c-.96,0-1.74-.79-1.74-1.75s.78-1.75,1.74-1.75,1.74.79,1.74,1.75-.78,1.75-1.74,1.75"/>
  <path class="cls-2" d="M10.77,13.06c-.96,0-1.74-.79-1.74-1.75s.78-1.75,1.74-1.75,1.74.79,1.74,1.75-.78,1.75-1.74,1.75Z"/>
  <path class="cls-2" d="M10.77,25.03c-.92,0-1.67-.78-1.67-1.74v-2.73c-.63-.41-1.02-1.13-1.02-1.91v-2.62c0-1.25.98-2.26,2.18-2.26h1.02c1.2,0,2.18,1.01,2.18,2.26v2.62c0,.78-.39,1.5-1.02,1.91v2.73c0,.96-.75,1.74-1.67,1.74"/>
  <path class="cls-2" d="M10.77,25.03c-.92,0-1.67-.78-1.67-1.74v-2.73c-.63-.41-1.02-1.13-1.02-1.91v-2.62c0-1.25.98-2.26,2.18-2.26h1.02c1.2,0,2.18,1.01,2.18,2.26v2.62c0,.78-.39,1.5-1.02,1.91v2.73c0,.96-.75,1.74-1.67,1.74Z"/>
</svg>