<?xml version="1.0" encoding="UTF-8"?>
<svg id="Layer_1" data-name="Layer 1" xmlns="http://www.w3.org/2000/svg" viewBox="0 0 34.58 34.58">
  <defs>
    <style>
      .cls-1 {
        stroke-linejoin: round;
      }

      .cls-1, .cls-2 {
        fill: none;
        stroke: #231f20;
        stroke-linecap: round;
        stroke-width: .5px;
      }

      .cls-3 {
        fill: #fff200;
        stroke-width: 0px;
      }

      .cls-2 {
        stroke-miterlimit: 10;
      }
    </style>
  </defs>
  <path class="cls-3" d="M17.29,34.58C7.74,34.58,0,26.84,0,17.29S7.74,0,17.29,0s17.29,7.74,17.29,17.29-7.74,17.29-17.29,17.29"/>
  <path class="cls-2" d="M13.55,11.63h2.05v8c-.27.08-.52.23-.75.42l-1.3,1.15v-9.58ZM17.94,14.59h2.05v7.74h0s-2.04-1.8-2.04-1.8v-5.94ZM22.32,8.86h2.05v7.74l-1.41.2c-.22.03-.43.1-.63.21v-8.15ZM9.17,15.56h2.05v7.6h-2.05v-7.6Z"/>
  <polyline class="cls-1" points="8.29 25.72 12.19 25.72 16.12 22.37 20.1 25.72 26.23 18.85"/>
  <polyline class="cls-2" points="24.21 18.72 26.29 18.72 26.29 20.86"/>
</svg>