<?xml version="1.0" encoding="UTF-8"?>
<svg id="Layer_1" data-name="Layer 1" xmlns="http://www.w3.org/2000/svg" xmlns:xlink="http://www.w3.org/1999/xlink" viewBox="0 0 129.42 218.74">
  <defs>
    <style>
      .cls-1 {
        stroke-linejoin: round;
      }

      .cls-1, .cls-2, .cls-3 {
        fill: none;
      }

      .cls-1, .cls-3 {
        stroke: #231f20;
        stroke-linecap: round;
        stroke-width: .5px;
      }

      .cls-4 {
        clip-path: url(#clippath);
      }

      .cls-2, .cls-5, .cls-6, .cls-7, .cls-8 {
        stroke-width: 0px;
      }

      .cls-5 {
        fill: #1268b3;
      }

      .cls-9 {
        clip-path: url(#clippath-1);
      }

      .cls-6 {
        fill: #58595b;
      }

      .cls-3 {
        stroke-miterlimit: 10;
      }

      .cls-7 {
        fill: #fff;
      }

      .cls-8 {
        fill: #00aeef;
      }
    </style>
    <clipPath id="clippath">
      <rect class="cls-2" x="6.54" y="3.59" width="122.88" height="215.16"/>
    </clipPath>
    <clipPath id="clippath-1">
      <rect class="cls-2" x="6.54" y="3.59" width="122.88" height="215.16"/>
    </clipPath>
  </defs>
  <rect class="cls-7" x="0" width="129.42" height="215.62" rx="13.04" ry="13.04"/>
  <g>
    <g>
      <path class="cls-5" d="M17.03,19.04c-.5-.5-.75-1.24-.75-2.21v-4.24h1.27v4.31c0,.61.14,1.08.43,1.39.29.32.71.47,1.28.47s.98-.16,1.27-.48.43-.78.43-1.39v-4.31h1.27v4.24c0,.97-.25,1.7-.76,2.21s-1.24.76-2.21.76-1.72-.25-2.22-.75Z"/>
      <path class="cls-5" d="M24.69,19.58c-.48-.15-.88-.36-1.21-.63l.44-.94c.35.26.71.45,1.08.58s.79.18,1.24.18c.49,0,.88-.09,1.14-.26.27-.17.41-.42.41-.73,0-.27-.12-.47-.38-.62s-.66-.28-1.24-.41c-.89-.19-1.54-.44-1.95-.75-.41-.31-.61-.75-.61-1.34,0-.42.11-.79.34-1.12.23-.33.55-.58.96-.77.42-.19.9-.28,1.45-.28.5,0,.97.08,1.42.22.45.15.82.36,1.11.62l-.43.94c-.63-.51-1.33-.76-2.1-.76-.46,0-.82.09-1.09.29-.27.19-.4.45-.4.77,0,.28.12.49.36.64.24.15.64.28,1.21.41.59.14,1.08.29,1.45.46.37.16.66.37.86.63.2.26.3.58.3.97,0,.43-.11.8-.34,1.11-.23.32-.55.56-.98.74-.43.17-.93.26-1.51.26-.55,0-1.06-.07-1.54-.22Z"/>
      <path class="cls-5" d="M35.01,18.04h-3.48l-.72,1.67h-1.3l3.22-7.12h1.05l3.23,7.12h-1.29l-.71-1.67ZM34.58,17.04l-1.31-3.05-1.31,3.05h2.62Z"/>
    </g>
    <g>
      <path class="cls-6" d="M17.25,43h-1.62v-.74h4.17v.74h-1.63v4.24h-.91v-4.24Z"/>
      <path class="cls-6" d="M20.41,42.26h3.33v.71h-2.45v1.38h2.3v.71h-2.3v1.46h2.45v.71h-3.33v-4.98Z"/>
      <path class="cls-6" d="M27.81,46.07h-2.44l-.5,1.17h-.91l2.25-4.98h.74l2.26,4.98h-.9l-.5-1.17ZM27.51,45.37l-.92-2.13-.92,2.13h1.83Z"/>
    </g>
    <path class="cls-8" d="M16.76,59.29c-.2-.11-.35-.26-.47-.46-.12-.19-.17-.41-.17-.63,0-.21.06-.42.17-.61s.27-.35.46-.47c.2-.12.41-.17.65-.17.22,0,.43.05.63.16.2.11.35.26.47.45.12.19.17.4.17.64s-.06.44-.17.63-.27.34-.47.46-.41.17-.64.17-.44-.05-.64-.16Z"/>
    <g>
      <path class="cls-6" d="M25.86,55.59h-1.74v-.49h4.05v.49h-1.74v4.49h-.58v-4.49Z"/>
      <path class="cls-6" d="M31.23,58.3h-2.58c0,.45.11.79.31,1.02.2.23.5.34.88.34.41,0,.79-.14,1.13-.41l.19.41c-.15.14-.35.26-.59.34s-.49.13-.74.13c-.55,0-.98-.16-1.29-.49s-.47-.77-.47-1.33c0-.36.07-.68.21-.96.14-.28.34-.49.59-.65s.54-.23.86-.23c.47,0,.83.15,1.1.46s.4.73.4,1.26v.1ZM29.02,57.18c-.18.18-.3.43-.35.75h2.05c-.03-.33-.12-.58-.29-.76-.17-.17-.4-.26-.69-.26s-.53.09-.72.27Z"/>
      <path class="cls-6" d="M32.83,57.01v1.92c0,.26.05.45.16.55.11.11.26.16.46.16.13,0,.26-.02.38-.06v.48c-.14.05-.31.07-.49.07-.34,0-.6-.09-.79-.28s-.28-.47-.28-.84v-2h-.69v-.45h.69v-.9l.57-.2v1.11h1.01v.45h-1.01Z"/>
      <path class="cls-6" d="M34.52,54.93h.57v5.15h-.57v-5.15Z"/>
      <path class="cls-6" d="M39.14,58.3h-2.58c0,.45.11.79.31,1.02s.5.34.89.34c.41,0,.79-.14,1.13-.41l.19.41c-.15.14-.35.26-.59.34s-.49.13-.74.13c-.55,0-.98-.16-1.29-.49-.31-.32-.47-.77-.47-1.33,0-.36.07-.68.21-.96.14-.28.34-.49.59-.65.25-.15.54-.23.86-.23.47,0,.83.15,1.1.46.27.31.4.73.4,1.26v.1ZM36.93,57.18c-.18.18-.3.43-.35.75h2.05c-.03-.33-.12-.58-.29-.76-.17-.17-.4-.26-.69-.26s-.53.09-.72.27Z"/>
      <path class="cls-6" d="M43.06,56.56l-1.64,3.84c-.17.4-.39.7-.65.88s-.58.31-.97.38l-.12-.44c.33-.08.58-.17.75-.3.17-.12.31-.31.42-.57l.14-.32-1.49-3.49h.59l1.19,2.91,1.2-2.91h.57Z"/>
    </g>
    <path class="cls-8" d="M16.76,69.3c-.2-.11-.35-.26-.47-.46-.12-.19-.17-.41-.17-.63,0-.21.06-.42.17-.61s.27-.35.46-.47c.2-.12.41-.17.65-.17.22,0,.43.05.63.16.2.11.35.26.47.45.12.19.17.4.17.64s-.06.44-.17.63-.27.34-.47.46-.41.17-.64.17-.44-.05-.64-.16Z"/>
    <g>
      <path class="cls-6" d="M28.6,67.49v2.31c-.2.1-.45.19-.77.25-.32.06-.64.09-.97.09-.5,0-.92-.1-1.28-.3-.36-.2-.63-.5-.82-.88s-.28-.84-.28-1.37.09-.98.28-1.36c.19-.38.46-.67.81-.88.35-.2.77-.3,1.25-.3.35,0,.67.05.96.16.29.11.54.26.75.47l-.22.44c-.24-.21-.48-.35-.71-.44-.23-.09-.49-.14-.78-.14-.56,0-1,.18-1.3.53-.3.35-.45.86-.45,1.52s.15,1.19.46,1.54c.31.35.76.53,1.34.53.42,0,.81-.07,1.2-.2v-1.52h-1.24v-.46h1.76Z"/>
      <path class="cls-6" d="M30.29,69.91c-.25-.15-.45-.36-.58-.64s-.21-.6-.21-.97.07-.69.21-.97.33-.49.58-.64.54-.22.88-.22.62.08.88.22.45.36.58.64.21.6.21.97-.07.69-.21.97-.33.49-.58.64-.54.22-.88.22-.62-.07-.88-.22ZM31.97,69.32c.19-.23.28-.57.28-1.01s-.1-.76-.29-1-.46-.35-.8-.35-.61.12-.81.35-.29.57-.29,1,.09.78.28,1.01c.19.23.46.35.81.35s.62-.12.8-.35Z"/>
      <path class="cls-6" d="M34.29,69.91c-.25-.15-.45-.36-.58-.64s-.21-.6-.21-.97.07-.69.21-.97.33-.49.58-.64.54-.22.88-.22.62.08.88.22.45.36.58.64.21.6.21.97-.07.69-.21.97-.33.49-.58.64-.54.22-.88.22-.62-.07-.88-.22ZM35.97,69.32c.19-.23.28-.57.28-1.01s-.1-.76-.29-1-.46-.35-.8-.35-.61.12-.8.35-.29.57-.29,1,.09.78.28,1.01c.19.23.46.35.81.35s.62-.12.81-.35Z"/>
      <path class="cls-6" d="M40.82,64.93v5.15h-.56v-.64c-.1.22-.26.39-.46.51-.21.12-.45.18-.72.18-.31,0-.58-.08-.82-.23-.24-.15-.42-.37-.55-.65-.13-.28-.2-.6-.2-.96s.06-.68.19-.96c.13-.27.31-.48.55-.63s.51-.22.82-.22c.28,0,.52.06.72.18s.36.29.46.5v-2.23h.57ZM39.98,69.31c.19-.24.28-.57.28-1s-.09-.76-.28-1c-.19-.24-.45-.35-.8-.35s-.61.12-.81.35c-.19.23-.29.56-.29.99s.1.77.29,1.01c.19.24.46.36.81.36s.61-.12.8-.35Z"/>
      <path class="cls-6" d="M43.81,65.1h3.15v.48h-2.58v1.74h2.44v.48h-2.44v1.81h2.58v.48h-3.15v-4.98Z"/>
      <path class="cls-6" d="M50.96,66.56v3.52h-.56v-.64c-.1.22-.26.39-.46.51-.21.12-.45.18-.72.18-.31,0-.59-.07-.82-.22-.24-.15-.42-.36-.55-.63-.13-.27-.19-.59-.19-.96s.07-.69.2-.96.31-.49.55-.65c.24-.15.51-.23.82-.23.28,0,.52.06.72.18s.36.29.47.51v-.61h.56ZM50.12,69.31c.19-.24.28-.57.28-1s-.09-.77-.28-1c-.19-.23-.45-.35-.8-.35s-.61.12-.81.36c-.19.24-.29.58-.29,1s.1.76.29.99.46.35.81.35.61-.12.8-.35Z"/>
      <path class="cls-6" d="M54.02,66.52v.52c-.12-.04-.24-.06-.38-.06-.34,0-.59.11-.76.32-.17.21-.25.47-.25.77v2.01h-.57v-2.53c0-.36-.02-.69-.06-.99h.54l.06.65c.09-.24.23-.42.43-.55.2-.13.42-.19.67-.19.12,0,.22.01.32.04Z"/>
      <path class="cls-6" d="M55.61,67.01v1.92c0,.26.05.45.16.55.11.11.26.16.46.16.13,0,.26-.02.38-.06v.48c-.14.05-.31.07-.49.07-.34,0-.6-.09-.79-.28-.19-.19-.28-.47-.28-.84v-2h-.69v-.45h.69v-.9l.57-.2v1.11h1.01v.45h-1.01Z"/>
      <path class="cls-6" d="M60.33,67.87v2.21h-.57v-2.18c0-.33-.07-.57-.2-.72s-.34-.23-.62-.23c-.33,0-.59.1-.78.3-.2.2-.29.47-.29.81v2.02h-.57v-5.15h.57v2.21c.11-.21.27-.38.48-.49.21-.11.45-.17.71-.17.84,0,1.27.46,1.27,1.39Z"/>
    </g>
    <path class="cls-8" d="M16.76,79.3c-.2-.11-.35-.26-.47-.46-.12-.19-.17-.41-.17-.63,0-.21.06-.42.17-.61s.27-.35.46-.47c.2-.12.41-.17.65-.17.22,0,.43.05.63.16.2.11.35.26.47.45.12.19.17.4.17.64s-.06.44-.17.63-.27.34-.47.46-.41.17-.64.17-.44-.05-.64-.16Z"/>
    <g>
      <path class="cls-6" d="M25.86,75.59h-1.74v-.49h4.05v.49h-1.74v4.49h-.58v-4.49Z"/>
      <path class="cls-6" d="M31.23,78.31h-2.58c0,.45.11.79.31,1.02.2.23.5.34.88.34.41,0,.79-.14,1.13-.41l.19.41c-.15.14-.35.26-.59.34s-.49.13-.74.13c-.55,0-.98-.16-1.29-.49s-.47-.77-.47-1.33c0-.36.07-.68.21-.96.14-.28.34-.49.59-.65s.54-.23.86-.23c.47,0,.83.15,1.1.46s.4.73.4,1.26v.1ZM29.02,77.19c-.18.18-.3.43-.35.75h2.05c-.03-.33-.12-.58-.29-.76-.17-.17-.4-.26-.69-.26s-.53.09-.72.27Z"/>
      <path class="cls-6" d="M35.19,76.57v3.52h-.56v-.64c-.1.22-.26.39-.46.51-.21.12-.45.18-.72.18-.31,0-.59-.07-.82-.22-.24-.15-.42-.36-.55-.63-.13-.27-.19-.59-.19-.96s.07-.69.2-.96.31-.49.55-.65c.24-.15.51-.23.82-.23.28,0,.52.06.72.18s.36.29.47.51v-.61h.56ZM34.35,79.31c.19-.24.28-.57.28-1s-.09-.77-.28-1c-.19-.23-.45-.35-.8-.35s-.61.12-.81.36c-.19.24-.29.58-.29,1s.1.76.29.99.46.35.81.35.61-.12.8-.35Z"/>
      <path class="cls-6" d="M38.86,76.71c.24.15.42.37.55.65s.2.6.2.96-.07.68-.2.96c-.13.27-.31.48-.55.63-.24.15-.51.22-.82.22-.28,0-.52-.06-.72-.18-.21-.12-.36-.29-.47-.52v2.16h-.57v-4.05c0-.36-.02-.69-.06-.99h.54l.06.68c.1-.24.25-.43.46-.56.21-.13.46-.2.75-.2.31,0,.58.08.82.23ZM38.74,79.32c.19-.23.28-.57.28-.99s-.1-.76-.29-1-.46-.36-.8-.36-.62.12-.81.35-.28.57-.28,1,.09.77.28,1,.46.35.81.35.61-.12.8-.35Z"/>
      <path class="cls-6" d="M41.12,75.08v.64h-.69v-.64h.69ZM40.49,76.57h.57v3.52h-.57v-3.52Z"/>
      <path class="cls-6" d="M45.29,76.57v3.49c0,.52-.13.92-.4,1.19-.27.27-.66.4-1.19.4s-1-.12-1.39-.36l.1-.46c.22.13.43.22.63.27.2.06.42.08.65.08.34,0,.6-.09.77-.27s.26-.45.26-.8v-.83c-.11.22-.26.4-.47.52-.21.12-.45.18-.74.18-.31,0-.58-.07-.82-.22s-.43-.35-.56-.62c-.13-.27-.2-.57-.2-.92s.07-.65.2-.92c.13-.27.32-.47.56-.62s.51-.22.82-.22c.28,0,.52.06.73.18s.37.29.47.51v-.61h.57ZM44.43,79.17c.19-.23.29-.54.29-.93s-.1-.71-.29-.93c-.19-.23-.46-.34-.8-.34s-.62.11-.82.34c-.2.23-.3.54-.3.93s.1.71.3.93c.2.23.47.34.82.34s.61-.11.8-.34Z"/>
      <path class="cls-6" d="M46.16,79.68l.19-.42c.19.15.38.26.58.32s.42.1.66.1c.27,0,.47-.04.61-.14.14-.09.21-.22.21-.4,0-.14-.05-.25-.14-.34s-.25-.15-.46-.2l-.59-.14c-.29-.07-.52-.18-.68-.35s-.24-.37-.24-.6c0-.31.12-.56.37-.75.25-.19.57-.29.98-.29.25,0,.48.04.7.12.22.08.4.19.55.34l-.19.41c-.33-.27-.69-.41-1.06-.41-.25,0-.45.05-.58.14s-.21.23-.21.4c0,.14.04.26.13.34.09.08.22.15.42.2l.59.15c.33.08.57.19.73.35.16.16.24.36.24.61,0,.3-.12.55-.37.73-.25.18-.58.27-1.01.27-.59,0-1.06-.15-1.41-.46Z"/>
    </g>
    <path class="cls-8" d="M16.76,89.3c-.2-.11-.35-.26-.47-.46-.12-.19-.17-.41-.17-.63,0-.21.06-.42.17-.61s.27-.35.46-.47c.2-.12.41-.17.65-.17.22,0,.43.05.63.16.2.11.35.26.47.45.12.19.17.4.17.64s-.06.44-.17.63-.27.34-.47.46-.41.17-.64.17-.44-.05-.64-.16Z"/>
    <g>
      <path class="cls-6" d="M25.86,85.6h-1.74v-.49h4.05v.49h-1.74v4.49h-.58v-4.49Z"/>
      <path class="cls-6" d="M31.38,86.57v3.52h-.56v-.64c-.1.22-.26.39-.47.51-.21.12-.45.18-.72.18-.31,0-.59-.07-.82-.22s-.42-.36-.55-.63c-.13-.27-.19-.59-.19-.96s.07-.69.2-.96c.13-.28.31-.49.55-.65s.51-.23.82-.23c.28,0,.52.06.72.18.21.12.36.29.47.51v-.61h.56ZM30.54,89.32c.19-.24.28-.57.28-1s-.09-.77-.28-1-.45-.35-.8-.35-.62.12-.81.36-.29.58-.29,1,.09.76.29.99.46.35.81.35.61-.12.8-.35Z"/>
      <path class="cls-6" d="M33.23,87.02v1.92c0,.26.05.45.16.55.11.11.26.16.46.16.13,0,.26-.02.38-.06v.48c-.14.05-.31.07-.49.07-.34,0-.6-.09-.79-.28-.19-.19-.28-.47-.28-.84v-2h-.69v-.45h.69v-.9l.57-.2v1.11h1.01v.45h-1.01Z"/>
      <path class="cls-6" d="M38.03,86.57v3.52h-.56v-.64c-.1.22-.26.39-.46.51-.21.12-.45.18-.72.18-.31,0-.59-.07-.82-.22-.24-.15-.42-.36-.55-.63-.13-.27-.19-.59-.19-.96s.07-.69.2-.96.31-.49.55-.65c.24-.15.51-.23.82-.23.28,0,.52.06.72.18s.36.29.47.51v-.61h.56ZM37.19,89.32c.19-.24.28-.57.28-1s-.09-.77-.28-1c-.19-.23-.45-.35-.8-.35s-.61.12-.81.36c-.19.24-.29.58-.29,1s.1.76.29.99.46.35.81.35.61-.12.8-.35Z"/>
      <path class="cls-6" d="M42.23,85.6h-1.74v-.49h4.05v.49h-1.74v4.49h-.58v-4.49Z"/>
      <path class="cls-6" d="M47.59,88.31h-2.58c0,.45.11.79.31,1.02s.5.34.89.34c.41,0,.79-.14,1.13-.41l.19.41c-.15.14-.35.26-.59.34s-.49.13-.74.13c-.55,0-.98-.16-1.29-.49-.31-.32-.47-.77-.47-1.33,0-.36.07-.68.21-.96.14-.28.34-.49.59-.65.25-.15.54-.23.86-.23.47,0,.83.15,1.1.46.27.31.4.73.4,1.26v.1ZM45.38,87.19c-.18.18-.3.43-.35.75h2.05c-.03-.33-.12-.58-.29-.76-.17-.17-.4-.26-.69-.26s-.53.09-.72.27Z"/>
      <path class="cls-6" d="M51.55,86.57v3.52h-.56v-.64c-.1.22-.26.39-.46.51-.21.12-.45.18-.72.18-.31,0-.59-.07-.82-.22-.24-.15-.42-.36-.55-.63-.13-.27-.19-.59-.19-.96s.07-.69.2-.96.31-.49.55-.65c.24-.15.51-.23.82-.23.28,0,.52.06.72.18s.36.29.47.51v-.61h.56ZM50.71,89.32c.19-.24.28-.57.28-1s-.09-.77-.28-1c-.19-.23-.45-.35-.8-.35s-.61.12-.81.36c-.19.24-.29.58-.29,1s.1.76.29.99.46.35.81.35.61-.12.8-.35Z"/>
    </g>
    <path class="cls-8" d="M16.7,99.29c-.19-.11-.33-.26-.45-.46-.11-.19-.17-.41-.17-.63,0-.21.05-.42.16-.61s.25-.35.44-.47c.19-.12.39-.17.62-.17.21,0,.41.05.6.16.19.11.33.26.45.45.11.19.17.4.17.64s-.05.44-.16.63-.26.34-.44.46c-.19.11-.39.17-.6.17s-.42-.05-.61-.16Z"/>
    <g>
      <path class="cls-6" d="M25.54,99.83c-.34-.21-.6-.5-.79-.89s-.28-.84-.28-1.35.09-.98.27-1.36c.18-.38.44-.68.78-.88.34-.21.74-.31,1.21-.31s.87.1,1.21.31c.34.21.6.5.78.88.18.38.27.83.27,1.35s-.09.98-.28,1.36c-.18.38-.45.68-.79.88-.34.21-.74.31-1.2.31s-.86-.1-1.2-.31ZM27.98,99.11c.29-.36.44-.87.44-1.53s-.15-1.16-.44-1.52c-.29-.36-.7-.53-1.24-.53s-.95.18-1.24.54c-.29.36-.44.86-.44,1.52s.15,1.17.44,1.53.71.54,1.24.54.94-.18,1.23-.54Z"/>
      <path class="cls-6" d="M31.95,96.52v.52c-.12-.04-.25-.06-.38-.06-.34,0-.59.11-.76.32-.17.21-.25.47-.25.77v2.01h-.57v-2.53c0-.36-.02-.69-.06-.99h.54l.06.65c.09-.24.23-.42.43-.55s.42-.19.67-.19c.12,0,.22.01.32.04Z"/>
      <path class="cls-6" d="M35.6,96.56v3.49c0,.52-.13.92-.4,1.19-.27.27-.66.4-1.19.4s-1-.12-1.39-.36l.1-.46c.22.13.43.22.63.27.2.06.42.08.65.08.34,0,.6-.09.77-.27s.26-.45.26-.8v-.83c-.11.22-.26.4-.47.52-.21.12-.45.18-.74.18-.31,0-.58-.07-.82-.22s-.43-.35-.56-.62c-.13-.27-.2-.57-.2-.92s.07-.65.2-.92c.13-.27.32-.47.56-.62s.51-.22.82-.22c.28,0,.52.06.73.18s.37.29.47.51v-.61h.57ZM34.74,99.16c.19-.23.29-.54.29-.93s-.1-.71-.29-.93c-.19-.23-.46-.34-.8-.34s-.62.11-.82.34c-.2.23-.3.54-.3.93s.1.71.3.93c.2.23.47.34.82.34s.61-.11.8-.34Z"/>
      <path class="cls-6" d="M39.79,96.56v3.52h-.56v-.64c-.1.22-.26.39-.47.51-.21.12-.45.18-.72.18-.31,0-.59-.07-.82-.22s-.42-.36-.55-.63c-.13-.27-.19-.59-.19-.96s.07-.69.2-.96c.13-.28.31-.49.55-.65s.51-.23.82-.23c.28,0,.52.06.72.18.21.12.36.29.47.51v-.61h.56ZM38.95,99.31c.19-.24.28-.57.28-1s-.09-.77-.28-1-.45-.35-.8-.35-.62.12-.81.36-.29.58-.29,1,.09.76.29.99.46.35.81.35.61-.12.8-.35Z"/>
      <path class="cls-6" d="M43.92,97.87v2.21h-.57v-2.18c0-.33-.07-.57-.2-.72-.13-.15-.34-.23-.62-.23-.33,0-.59.1-.78.3-.2.2-.29.47-.29.81v2.02h-.57v-2.53c0-.36-.02-.69-.06-.99h.54l.06.63c.11-.23.27-.41.48-.53.21-.12.46-.19.74-.19.84,0,1.27.46,1.27,1.39Z"/>
      <path class="cls-6" d="M45.62,95.07v.64h-.69v-.64h.69ZM44.99,96.56h.57v3.52h-.57v-3.52Z"/>
      <path class="cls-6" d="M47.24,99.9c-.25-.15-.45-.36-.59-.63-.14-.27-.21-.59-.21-.96s.07-.69.21-.96c.14-.28.34-.49.6-.65s.56-.23.91-.23c.24,0,.47.04.69.12.22.08.4.2.55.34l-.19.42c-.18-.14-.35-.24-.51-.31-.17-.07-.33-.1-.51-.1-.36,0-.64.12-.85.36-.21.24-.31.58-.31,1s.1.75.3.99.49.35.85.35c.17,0,.34-.03.51-.1.17-.07.34-.17.51-.31l.19.42c-.15.14-.34.25-.56.33-.23.08-.46.12-.7.12-.34,0-.64-.07-.89-.22Z"/>
      <path class="cls-6" d="M52.02,95.09h.57v4.98h-.57v-4.98Z"/>
      <path class="cls-6" d="M56.78,97.87v2.21h-.57v-2.18c0-.33-.07-.57-.2-.72s-.34-.23-.62-.23c-.33,0-.59.1-.78.3-.2.2-.29.47-.29.81v2.02h-.57v-2.53c0-.36-.02-.69-.06-.99h.54l.06.63c.11-.23.27-.41.48-.53.21-.12.46-.19.74-.19.84,0,1.27.46,1.27,1.39Z"/>
      <path class="cls-6" d="M60.95,94.93v5.15h-.56v-.64c-.1.22-.26.39-.47.51-.21.12-.45.18-.72.18-.31,0-.58-.08-.82-.23-.24-.15-.42-.37-.55-.65-.13-.28-.2-.6-.2-.96s.06-.68.19-.96c.13-.27.31-.48.55-.63.24-.15.51-.22.82-.22.28,0,.52.06.72.18.21.12.36.29.46.5v-2.23h.57ZM60.11,99.31c.19-.24.28-.57.28-1s-.09-.76-.28-1-.45-.35-.8-.35-.62.12-.81.35-.29.56-.29.99.1.77.29,1.01.46.36.81.36.61-.12.8-.35Z"/>
      <path class="cls-6" d="M62.68,95.07v.64h-.69v-.64h.69ZM62.05,96.56h.57v3.52h-.57v-3.52Z"/>
      <path class="cls-6" d="M66.81,96.56v3.52h-.56v-.64c-.1.22-.26.39-.46.51-.21.12-.45.18-.72.18-.31,0-.59-.07-.82-.22-.24-.15-.42-.36-.55-.63-.13-.27-.19-.59-.19-.96s.07-.69.2-.96.31-.49.55-.65c.24-.15.51-.23.82-.23.28,0,.52.06.72.18s.36.29.47.51v-.61h.56ZM65.97,99.31c.19-.24.28-.57.28-1s-.09-.77-.28-1c-.19-.23-.45-.35-.8-.35s-.61.12-.81.36c-.19.24-.29.58-.29,1s.1.76.29.99.46.35.81.35.61-.12.8-.35Z"/>
    </g>
    <g>
      <path class="cls-6" d="M17.05,118.33c-.37-.21-.65-.51-.84-.89-.2-.38-.29-.84-.29-1.35s.1-.96.29-1.35c.2-.38.48-.68.84-.89s.79-.31,1.28-.31c.34,0,.65.05.95.16.3.11.54.25.74.44l-.29.66c-.22-.18-.45-.31-.67-.4s-.46-.12-.71-.12c-.48,0-.85.16-1.12.47s-.4.76-.4,1.34.13,1.04.39,1.35c.26.32.63.47,1.12.47.25,0,.49-.04.71-.12.22-.08.45-.21.67-.4l.29.66c-.2.19-.44.33-.74.44-.3.11-.61.16-.95.16-.49,0-.92-.11-1.28-.32Z"/>
      <path class="cls-6" d="M21.73,118.33c-.36-.21-.63-.5-.83-.89-.19-.38-.29-.84-.29-1.36s.1-.97.29-1.35.46-.68.82-.89c.36-.21.78-.31,1.26-.31s.91.1,1.26.31c.36.21.63.5.82.89.19.38.28.84.28,1.35s-.1.98-.29,1.36-.46.68-.82.89c-.35.21-.77.31-1.26.31s-.9-.1-1.26-.31ZM24.07,117.45c.26-.32.38-.77.38-1.37s-.13-1.04-.38-1.35c-.26-.32-.62-.47-1.08-.47s-.82.16-1.08.47c-.26.31-.38.77-.38,1.36s.13,1.05.38,1.37.62.48,1.08.48.82-.16,1.08-.48Z"/>
      <path class="cls-6" d="M26.28,113.6h3.25v.72h-2.36v1.36h2.22v.73h-2.22v2.17h-.9v-4.98Z"/>
      <path class="cls-6" d="M30.28,113.6h3.25v.72h-2.36v1.36h2.22v.73h-2.22v2.17h-.9v-4.98Z"/>
      <path class="cls-6" d="M34.28,113.6h3.33v.71h-2.45v1.38h2.3v.71h-2.3v1.46h2.45v.71h-3.33v-4.98Z"/>
      <path class="cls-6" d="M38.45,113.6h3.33v.71h-2.45v1.38h2.3v.71h-2.3v1.46h2.45v.71h-3.33v-4.98Z"/>
    </g>
    <path class="cls-8" d="M16.76,130.63c-.2-.11-.35-.26-.47-.46-.12-.19-.17-.41-.17-.63,0-.21.06-.42.17-.61s.27-.35.46-.47c.2-.12.41-.17.65-.17.22,0,.43.05.63.16.2.11.35.26.47.45.12.19.17.4.17.64s-.06.44-.17.63-.27.34-.47.46-.41.17-.64.17-.44-.05-.64-.16Z"/>
    <g>
      <path class="cls-6" d="M24.66,126.43h3.15v.48h-2.58v1.74h2.44v.48h-2.44v1.81h2.58v.48h-3.15v-4.98Z"/>
      <path class="cls-6" d="M29.34,126.41v.64h-.69v-.64h.69ZM28.71,127.9h.57v3.52h-.57v-3.52Z"/>
      <path class="cls-6" d="M33.51,127.9v3.49c0,.52-.13.92-.4,1.19s-.66.4-1.19.4-1-.12-1.39-.36l.1-.46c.22.13.44.22.63.27.2.06.42.08.65.08.34,0,.6-.09.77-.27.17-.18.26-.45.26-.8v-.83c-.11.22-.27.4-.47.52-.21.12-.45.18-.74.18-.31,0-.58-.07-.82-.22s-.43-.35-.56-.62c-.13-.27-.2-.57-.2-.92s.07-.65.2-.92c.13-.27.32-.47.56-.62s.51-.22.82-.22c.28,0,.52.06.73.18.21.12.37.29.47.51v-.61h.57ZM32.65,130.5c.19-.23.29-.54.29-.93s-.1-.71-.29-.93c-.19-.23-.46-.34-.8-.34s-.62.11-.82.34c-.2.23-.3.54-.3.93s.1.71.3.93c.2.23.47.34.82.34s.61-.11.8-.34Z"/>
      <path class="cls-6" d="M37.62,129.21v2.21h-.57v-2.18c0-.33-.07-.57-.2-.72-.13-.15-.34-.23-.62-.23-.33,0-.59.1-.78.3-.2.2-.29.47-.29.81v2.02h-.57v-5.15h.57v2.21c.11-.21.27-.38.48-.49.21-.11.44-.17.71-.17.84,0,1.27.46,1.27,1.39Z"/>
      <path class="cls-6" d="M39.45,128.34v1.92c0,.26.05.45.16.55.11.11.26.16.46.16.13,0,.26-.02.38-.06v.48c-.14.05-.31.07-.49.07-.34,0-.6-.09-.79-.28s-.28-.47-.28-.84v-2h-.69v-.45h.69v-.9l.57-.2v1.11h1.01v.45h-1.01Z"/>
      <path class="cls-6" d="M43.92,131.17c-.34-.21-.6-.5-.79-.89s-.28-.84-.28-1.35.09-.98.27-1.36c.18-.38.44-.68.78-.88.34-.21.74-.31,1.21-.31s.87.1,1.21.31c.34.21.6.5.78.88.18.38.27.83.27,1.35s-.09.98-.28,1.36c-.18.38-.45.68-.79.88-.34.21-.74.31-1.2.31s-.86-.1-1.2-.31ZM46.36,130.44c.29-.36.44-.87.44-1.53s-.15-1.16-.44-1.52c-.29-.36-.7-.53-1.24-.53s-.95.18-1.24.54c-.29.36-.44.86-.44,1.52s.15,1.17.44,1.53.71.54,1.24.54.94-.18,1.23-.54Z"/>
      <path class="cls-6" d="M48.96,126.43v.51c0,.2-.03.38-.1.54-.07.16-.17.32-.33.48l-.27-.21c.18-.21.29-.41.31-.6h-.34v-.72h.72Z"/>
      <path class="cls-6" d="M50.87,131.17c-.35-.21-.62-.5-.8-.89s-.28-.84-.28-1.36.09-.97.28-1.35c.19-.38.45-.67.8-.88.35-.21.76-.31,1.23-.31.35,0,.66.05.95.16.29.11.54.26.75.47l-.22.44c-.24-.21-.47-.35-.7-.44-.23-.09-.49-.13-.77-.13-.55,0-.97.18-1.27.53-.3.35-.45.86-.45,1.51s.15,1.17.45,1.52c.3.36.72.54,1.27.54.28,0,.54-.04.77-.13.23-.09.47-.24.7-.44l.22.44c-.21.21-.46.37-.75.47-.29.11-.6.16-.95.16-.47,0-.88-.1-1.23-.31Z"/>
      <path class="cls-6" d="M54.69,126.27h.57v5.15h-.57v-5.15Z"/>
      <path class="cls-6" d="M56.94,131.24c-.25-.15-.45-.36-.58-.64s-.21-.6-.21-.97.07-.69.21-.97.33-.49.58-.64.54-.22.88-.22.62.08.88.22.45.36.58.64.21.6.21.97-.07.69-.21.97-.33.49-.58.64-.54.22-.88.22-.62-.07-.88-.22ZM58.62,130.65c.19-.23.28-.57.28-1.01s-.1-.76-.29-1-.46-.35-.8-.35-.61.12-.81.35-.29.57-.29,1,.09.78.28,1.01c.19.23.46.35.81.35s.62-.12.8-.35Z"/>
      <path class="cls-6" d="M60.94,131.24c-.25-.15-.45-.36-.59-.63-.14-.27-.21-.59-.21-.96s.07-.69.21-.96c.14-.28.34-.49.6-.65s.56-.23.91-.23c.24,0,.47.04.69.12s.41.2.55.34l-.19.42c-.18-.14-.35-.24-.51-.31-.17-.07-.33-.1-.51-.1-.36,0-.64.12-.85.36-.21.24-.31.58-.31,1s.1.75.3.99.49.35.85.35c.17,0,.34-.03.51-.1.17-.07.34-.17.51-.31l.19.42c-.15.14-.34.25-.56.33-.23.08-.46.12-.7.12-.34,0-.64-.07-.89-.22Z"/>
      <path class="cls-6" d="M66.2,131.42l-1.81-1.69v1.69h-.57v-5.15h.57v3.25l1.66-1.61h.72l-1.76,1.69,1.93,1.83h-.74Z"/>
    </g>
    <g>
      <path class="cls-6" d="M16.08,144.93h3.25v.72h-2.36v1.36h2.22v.73h-2.22v2.17h-.9v-4.98Z"/>
      <path class="cls-6" d="M20.97,149.67c-.36-.21-.63-.5-.83-.89-.19-.38-.29-.84-.29-1.36s.1-.97.29-1.35.46-.68.82-.89c.36-.21.78-.31,1.26-.31s.91.1,1.26.31c.36.21.63.5.82.89.19.38.28.84.28,1.35s-.1.98-.29,1.36-.46.68-.82.89c-.35.21-.77.31-1.26.31s-.9-.1-1.26-.31ZM23.31,148.78c.26-.32.38-.77.38-1.37s-.13-1.04-.38-1.35c-.26-.32-.62-.47-1.08-.47s-.82.16-1.08.47c-.26.31-.38.77-.38,1.36s.13,1.05.38,1.37.62.48,1.08.48.82-.16,1.08-.48Z"/>
      <path class="cls-6" d="M26.48,149.67c-.36-.21-.63-.5-.83-.89-.19-.38-.29-.84-.29-1.36s.1-.97.29-1.35.46-.68.82-.89c.36-.21.78-.31,1.26-.31s.91.1,1.26.31c.36.21.63.5.82.89.19.38.28.84.28,1.35s-.1.98-.29,1.36-.46.68-.82.89c-.35.21-.77.31-1.26.31s-.9-.1-1.26-.31ZM28.81,148.78c.26-.32.38-.77.38-1.37s-.13-1.04-.38-1.35c-.26-.32-.62-.47-1.08-.47s-.82.16-1.08.47c-.26.31-.38.77-.38,1.36s.13,1.05.38,1.37.62.48,1.08.48.82-.16,1.08-.48Z"/>
      <path class="cls-6" d="M31.02,144.93h1.83c.82,0,1.45.22,1.9.65s.68,1.05.68,1.83-.23,1.41-.68,1.84-1.08.65-1.9.65h-1.83v-4.98ZM32.8,149.18c1.15,0,1.72-.59,1.72-1.76s-.57-1.75-1.72-1.75h-.88v3.51h.88Z"/>
      <path class="cls-6" d="M36.97,149.83c-.33-.1-.62-.25-.85-.44l.31-.66c.24.18.5.32.76.4.26.09.55.13.86.13.35,0,.61-.06.8-.18.19-.12.28-.29.28-.51,0-.19-.09-.33-.26-.43-.18-.1-.46-.2-.87-.28-.62-.13-1.08-.31-1.36-.52-.29-.21-.43-.53-.43-.94,0-.29.08-.55.24-.78.16-.23.38-.41.68-.54.29-.13.63-.2,1.01-.2.35,0,.68.05,1,.16.32.11.57.25.77.44l-.3.66c-.44-.35-.93-.53-1.47-.53-.32,0-.58.07-.76.2-.19.13-.28.31-.28.54,0,.2.08.35.25.45s.45.2.85.29c.42.1.75.2,1.01.32.26.11.46.26.6.44.14.18.21.41.21.68,0,.3-.08.56-.24.78-.16.22-.39.39-.69.51-.3.12-.65.18-1.06.18-.38,0-.74-.05-1.07-.15Z"/>
    </g>
    <path class="cls-8" d="M16.76,161.97c-.2-.11-.35-.26-.47-.46-.12-.19-.17-.41-.17-.63,0-.21.06-.42.17-.61s.27-.35.46-.47c.2-.12.41-.17.65-.17.22,0,.43.05.63.16.2.11.35.26.47.45.12.19.17.4.17.64s-.06.44-.17.63-.27.34-.47.46-.41.17-.64.17-.44-.05-.64-.16Z"/>
    <g>
      <path class="cls-6" d="M25.86,158.26h-1.74v-.49h4.05v.49h-1.74v4.49h-.58v-4.49Z"/>
      <path class="cls-6" d="M31.38,159.23v3.52h-.56v-.64c-.1.22-.26.39-.47.51-.21.12-.45.18-.72.18-.31,0-.59-.07-.82-.22s-.42-.36-.55-.63c-.13-.27-.19-.59-.19-.96s.07-.69.2-.96c.13-.28.31-.49.55-.65s.51-.23.82-.23c.28,0,.52.06.72.18.21.12.36.29.47.51v-.61h.56ZM30.54,161.98c.19-.24.28-.57.28-1s-.09-.77-.28-1-.45-.35-.8-.35-.62.12-.81.36-.29.58-.29,1,.09.76.29.99.46.35.81.35.61-.12.8-.35Z"/>
      <path class="cls-6" d="M33.23,159.68v1.92c0,.26.05.45.16.55.11.11.26.16.46.16.13,0,.26-.02.38-.06v.48c-.14.05-.31.07-.49.07-.34,0-.6-.09-.79-.28-.19-.19-.28-.47-.28-.84v-2h-.69v-.45h.69v-.9l.57-.2v1.11h1.01v.45h-1.01Z"/>
      <path class="cls-6" d="M38.03,159.23v3.52h-.56v-.64c-.1.22-.26.39-.46.51-.21.12-.45.18-.72.18-.31,0-.59-.07-.82-.22-.24-.15-.42-.36-.55-.63-.13-.27-.19-.59-.19-.96s.07-.69.2-.96.31-.49.55-.65c.24-.15.51-.23.82-.23.28,0,.52.06.72.18s.36.29.47.51v-.61h.56ZM37.19,161.98c.19-.24.28-.57.28-1s-.09-.77-.28-1c-.19-.23-.45-.35-.8-.35s-.61.12-.81.36c-.19.24-.29.58-.29,1s.1.76.29.99.46.35.81.35.61-.12.8-.35Z"/>
      <path class="cls-6" d="M40.75,162.18l.22-.44c.25.21.5.36.76.45.26.09.56.13.9.13.4,0,.71-.08.93-.24.22-.16.33-.38.33-.66,0-.17-.05-.3-.16-.41-.1-.11-.24-.19-.41-.25-.17-.06-.4-.12-.68-.19-.38-.08-.7-.17-.95-.27-.25-.1-.45-.24-.6-.42-.15-.18-.23-.43-.23-.72s.07-.54.22-.75.36-.39.63-.51c.27-.12.59-.18.96-.18.34,0,.67.05.97.16.3.11.55.26.76.47l-.22.44c-.23-.2-.47-.35-.71-.44-.24-.09-.5-.14-.79-.14-.39,0-.69.08-.91.25-.22.17-.33.39-.33.68,0,.25.1.44.29.57s.49.24.88.33c.43.1.77.2,1.01.28.24.09.45.22.61.39.16.18.25.41.25.7s-.08.53-.22.74c-.15.21-.36.38-.64.49-.28.12-.6.17-.98.17-.78,0-1.4-.21-1.86-.63Z"/>
      <path class="cls-6" d="M48.42,159.23v3.52h-.56v-.64c-.1.22-.26.39-.46.51-.21.12-.45.18-.72.18-.31,0-.59-.07-.82-.22-.24-.15-.42-.36-.55-.63-.13-.27-.19-.59-.19-.96s.07-.69.2-.96.31-.49.55-.65c.24-.15.51-.23.82-.23.28,0,.52.06.72.18s.36.29.47.51v-.61h.56ZM47.58,161.98c.19-.24.28-.57.28-1s-.09-.77-.28-1c-.19-.23-.45-.35-.8-.35s-.61.12-.81.36c-.19.24-.29.58-.29,1s.1.76.29.99.46.35.81.35.61-.12.8-.35Z"/>
      <path class="cls-6" d="M49.52,157.6h.57v5.15h-.57v-5.15Z"/>
      <path class="cls-6" d="M51.94,159.68v1.92c0,.26.05.45.16.55.11.11.26.16.46.16.13,0,.26-.02.38-.06v.48c-.14.05-.31.07-.49.07-.34,0-.6-.09-.79-.28s-.28-.47-.28-.84v-2h-.69v-.45h.69v-.9l.57-.2v1.11h1.01v.45h-1.01Z"/>
    </g>
    <path class="cls-8" d="M16.76,171.97c-.2-.11-.35-.26-.47-.46-.12-.19-.17-.41-.17-.63,0-.21.06-.42.17-.61s.27-.35.46-.47c.2-.12.41-.17.65-.17.22,0,.43.05.63.16.2.11.35.26.47.45.12.19.17.4.17.64s-.06.44-.17.63-.27.34-.47.46-.41.17-.64.17-.44-.05-.64-.16Z"/>
    <g>
      <path class="cls-6" d="M25.86,168.27h-1.74v-.49h4.05v.49h-1.74v4.49h-.58v-4.49Z"/>
      <path class="cls-6" d="M31.38,169.24v3.52h-.56v-.64c-.1.22-.26.39-.47.51-.21.12-.45.18-.72.18-.31,0-.59-.07-.82-.22s-.42-.36-.55-.63c-.13-.27-.19-.59-.19-.96s.07-.69.2-.96c.13-.28.31-.49.55-.65s.51-.23.82-.23c.28,0,.52.06.72.18.21.12.36.29.47.51v-.61h.56ZM30.54,171.99c.19-.24.28-.57.28-1s-.09-.77-.28-1-.45-.35-.8-.35-.62.12-.81.36-.29.58-.29,1,.09.76.29.99.46.35.81.35.61-.12.8-.35Z"/>
      <path class="cls-6" d="M33.23,169.69v1.92c0,.26.05.45.16.55.11.11.26.16.46.16.13,0,.26-.02.38-.06v.48c-.14.05-.31.07-.49.07-.34,0-.6-.09-.79-.28-.19-.19-.28-.47-.28-.84v-2h-.69v-.45h.69v-.9l.57-.2v1.11h1.01v.45h-1.01Z"/>
      <path class="cls-6" d="M38.03,169.24v3.52h-.56v-.64c-.1.22-.26.39-.46.51-.21.12-.45.18-.72.18-.31,0-.59-.07-.82-.22-.24-.15-.42-.36-.55-.63-.13-.27-.19-.59-.19-.96s.07-.69.2-.96.31-.49.55-.65c.24-.15.51-.23.82-.23.28,0,.52.06.72.18s.36.29.47.51v-.61h.56ZM37.19,171.99c.19-.24.28-.57.28-1s-.09-.77-.28-1c-.19-.23-.45-.35-.8-.35s-.61.12-.81.36c-.19.24-.29.58-.29,1s.1.76.29.99.46.35.81.35.61-.12.8-.35Z"/>
      <path class="cls-6" d="M40.75,172.18l.22-.44c.25.21.5.36.76.45.26.09.56.13.9.13.4,0,.71-.08.93-.24.22-.16.33-.38.33-.66,0-.17-.05-.3-.16-.41-.1-.11-.24-.19-.41-.25-.17-.06-.4-.12-.68-.19-.38-.08-.7-.17-.95-.27-.25-.1-.45-.24-.6-.42-.15-.18-.23-.43-.23-.72s.07-.54.22-.75.36-.39.63-.51c.27-.12.59-.18.96-.18.34,0,.67.05.97.16.3.11.55.26.76.47l-.22.44c-.23-.2-.47-.35-.71-.44-.24-.09-.5-.14-.79-.14-.39,0-.69.08-.91.25-.22.17-.33.39-.33.68,0,.25.1.44.29.57s.49.24.88.33c.43.1.77.2,1.01.28.24.09.45.22.61.39.16.18.25.41.25.7s-.08.53-.22.74c-.15.21-.36.38-.64.49-.28.12-.6.17-.98.17-.78,0-1.4-.21-1.86-.63Z"/>
      <path class="cls-6" d="M48.42,169.24v3.52h-.56v-.64c-.1.22-.26.39-.46.51-.21.12-.45.18-.72.18-.31,0-.59-.07-.82-.22-.24-.15-.42-.36-.55-.63-.13-.27-.19-.59-.19-.96s.07-.69.2-.96.31-.49.55-.65c.24-.15.51-.23.82-.23.28,0,.52.06.72.18s.36.29.47.51v-.61h.56ZM47.58,171.99c.19-.24.28-.57.28-1s-.09-.77-.28-1c-.19-.23-.45-.35-.8-.35s-.61.12-.81.36c-.19.24-.29.58-.29,1s.1.76.29.99.46.35.81.35.61-.12.8-.35Z"/>
      <path class="cls-6" d="M54.59,170.55v2.21h-.57v-2.18c0-.33-.06-.57-.17-.72s-.3-.22-.56-.22c-.3,0-.53.1-.7.3-.17.2-.25.47-.25.82v2.01h-.57v-2.18c0-.33-.06-.57-.18-.72-.12-.15-.3-.23-.56-.23-.3,0-.53.1-.7.3-.17.2-.26.47-.26.82v2.01h-.57v-2.53c0-.36-.02-.69-.06-.99h.54l.06.62c.1-.22.24-.4.44-.52.19-.12.42-.18.68-.18.28,0,.51.06.69.17.18.11.31.28.39.52.11-.21.26-.38.47-.5.21-.12.44-.19.7-.19.78,0,1.17.46,1.17,1.39Z"/>
      <path class="cls-6" d="M58.25,169.39c.24.15.42.37.55.65s.2.6.2.96-.07.68-.2.96c-.13.27-.31.48-.55.63-.24.15-.51.22-.82.22-.28,0-.52-.06-.72-.18-.21-.12-.36-.29-.47-.52v2.16h-.57v-4.05c0-.36-.02-.69-.06-.99h.54l.06.68c.1-.24.25-.43.46-.56.21-.13.46-.2.75-.2.31,0,.58.08.82.23ZM58.12,171.99c.19-.23.28-.57.28-.99s-.1-.76-.29-1-.46-.36-.8-.36-.62.12-.81.35-.28.57-.28,1,.09.77.28,1,.46.35.81.35.61-.12.8-.35Z"/>
      <path class="cls-6" d="M62.97,169.24v3.52h-.56v-.64c-.1.22-.26.39-.46.51-.21.12-.45.18-.72.18-.31,0-.59-.07-.82-.22-.24-.15-.42-.36-.55-.63-.13-.27-.19-.59-.19-.96s.07-.69.2-.96.31-.49.55-.65c.24-.15.51-.23.82-.23.28,0,.52.06.72.18s.36.29.47.51v-.61h.56ZM62.13,171.99c.19-.24.28-.57.28-1s-.09-.77-.28-1c-.19-.23-.45-.35-.8-.35s-.61.12-.81.36c-.19.24-.29.58-.29,1s.1.76.29.99.46.35.81.35.61-.12.8-.35Z"/>
      <path class="cls-6" d="M67.09,170.55v2.21h-.57v-2.18c0-.33-.07-.57-.2-.72-.13-.15-.34-.23-.62-.23-.33,0-.59.1-.78.3-.2.2-.29.47-.29.81v2.02h-.57v-2.53c0-.36-.02-.69-.06-.99h.54l.06.63c.11-.23.27-.41.48-.53.21-.12.46-.19.74-.19.84,0,1.27.46,1.27,1.39Z"/>
      <path class="cls-6" d="M71.19,170.55v2.21h-.57v-2.18c0-.33-.07-.57-.2-.72-.13-.15-.34-.23-.62-.23-.33,0-.59.1-.78.3-.2.2-.29.47-.29.81v2.02h-.57v-2.53c0-.36-.02-.69-.06-.99h.54l.06.63c.11-.23.27-.41.48-.53.21-.12.46-.19.74-.19.84,0,1.27.46,1.27,1.39Z"/>
    </g>
    <path class="cls-8" d="M16.76,181.98c-.2-.11-.35-.26-.47-.46-.12-.19-.17-.41-.17-.63,0-.21.06-.42.17-.61s.27-.35.46-.47c.2-.12.41-.17.65-.17.22,0,.43.05.63.16.2.11.35.26.47.45.12.19.17.4.17.64s-.06.44-.17.63-.27.34-.47.46-.41.17-.64.17-.44-.05-.64-.16Z"/>
    <g>
      <path class="cls-6" d="M25.86,178.27h-1.74v-.49h4.05v.49h-1.74v4.49h-.58v-4.49Z"/>
      <path class="cls-6" d="M31.38,179.24v3.52h-.56v-.64c-.1.22-.26.39-.47.51-.21.12-.45.18-.72.18-.31,0-.59-.07-.82-.22s-.42-.36-.55-.63c-.13-.27-.19-.59-.19-.96s.07-.69.2-.96c.13-.28.31-.49.55-.65s.51-.23.82-.23c.28,0,.52.06.72.18.21.12.36.29.47.51v-.61h.56ZM30.54,181.99c.19-.24.28-.57.28-1s-.09-.77-.28-1-.45-.35-.8-.35-.62.12-.81.36-.29.58-.29,1,.09.76.29.99.46.35.81.35.61-.12.8-.35Z"/>
      <path class="cls-6" d="M33.23,179.69v1.92c0,.26.05.45.16.55.11.11.26.16.46.16.13,0,.26-.02.38-.06v.48c-.14.05-.31.07-.49.07-.34,0-.6-.09-.79-.28-.19-.19-.28-.47-.28-.84v-2h-.69v-.45h.69v-.9l.57-.2v1.11h1.01v.45h-1.01Z"/>
      <path class="cls-6" d="M38.03,179.24v3.52h-.56v-.64c-.1.22-.26.39-.46.51-.21.12-.45.18-.72.18-.31,0-.59-.07-.82-.22-.24-.15-.42-.36-.55-.63-.13-.27-.19-.59-.19-.96s.07-.69.2-.96.31-.49.55-.65c.24-.15.51-.23.82-.23.28,0,.52.06.72.18s.36.29.47.51v-.61h.56ZM37.19,181.99c.19-.24.28-.57.28-1s-.09-.77-.28-1c-.19-.23-.45-.35-.8-.35s-.61.12-.81.36c-.19.24-.29.58-.29,1s.1.76.29.99.46.35.81.35.61-.12.8-.35Z"/>
      <path class="cls-6" d="M44.94,182.76h-.61l-.62-1.66c-.07-.21-.18-.34-.31-.41-.13-.07-.32-.1-.56-.1h-1.25v2.18h-.57v-4.98h1.98c.54,0,.95.12,1.24.36s.43.58.43,1.03c0,.33-.08.6-.26.82-.17.22-.42.38-.74.47.14.02.27.08.37.19.1.1.19.24.26.43l.63,1.69ZM42.96,180.11c.77,0,1.15-.31,1.15-.94,0-.31-.09-.54-.28-.69s-.48-.23-.87-.23h-1.37v1.85h1.37Z"/>
      <path class="cls-6" d="M48.91,179.24v3.52h-.56v-.64c-.1.22-.26.39-.46.51-.21.12-.45.18-.72.18-.31,0-.59-.07-.82-.22-.24-.15-.42-.36-.55-.63-.13-.27-.19-.59-.19-.96s.07-.69.2-.96.31-.49.55-.65c.24-.15.51-.23.82-.23.28,0,.52.06.72.18s.36.29.47.51v-.61h.56ZM48.07,181.99c.19-.24.28-.57.28-1s-.09-.77-.28-1c-.19-.23-.45-.35-.8-.35s-.61.12-.81.36c-.19.24-.29.58-.29,1s.1.76.29.99.46.35.81.35.61-.12.8-.35Z"/>
      <path class="cls-6" d="M53.11,179.24v3.52h-.56v-.64c-.1.22-.26.39-.47.51-.21.12-.45.18-.72.18-.31,0-.59-.07-.82-.22s-.42-.36-.55-.63c-.13-.27-.19-.59-.19-.96s.07-.69.2-.96c.13-.28.31-.49.55-.65s.51-.23.82-.23c.28,0,.52.06.72.18.21.12.36.29.47.51v-.61h.56ZM52.27,181.99c.19-.24.28-.57.28-1s-.09-.77-.28-1-.45-.35-.8-.35-.62.12-.81.36-.29.58-.29,1,.09.76.29.99.46.35.81.35.61-.12.8-.35Z"/>
      <path class="cls-6" d="M53.99,182.36l.19-.42c.19.15.38.26.58.32s.42.1.66.1c.27,0,.47-.04.61-.14.14-.09.21-.22.21-.4,0-.14-.05-.25-.14-.34s-.25-.15-.46-.2l-.59-.14c-.29-.07-.52-.18-.68-.35s-.24-.37-.24-.6c0-.31.12-.56.37-.75.25-.19.57-.29.98-.29.25,0,.48.04.7.12.22.08.4.19.55.34l-.19.41c-.33-.27-.69-.41-1.06-.41-.25,0-.45.05-.58.14s-.21.23-.21.4c0,.14.04.26.13.34.09.08.22.15.42.2l.59.15c.33.08.57.19.73.35.16.16.24.36.24.61,0,.3-.12.55-.37.73-.25.18-.58.27-1.01.27-.59,0-1.06-.15-1.41-.46Z"/>
      <path class="cls-6" d="M60.78,179.24v3.52h-.56v-.64c-.1.22-.26.39-.47.51-.21.12-.45.18-.72.18-.31,0-.59-.07-.82-.22s-.42-.36-.55-.63c-.13-.27-.19-.59-.19-.96s.07-.69.2-.96c.13-.28.31-.49.55-.65s.51-.23.82-.23c.28,0,.52.06.72.18.21.12.36.29.47.51v-.61h.56ZM59.94,181.99c.19-.24.28-.57.28-1s-.09-.77-.28-1-.45-.35-.8-.35-.62.12-.81.36-.29.58-.29,1,.09.76.29.99.46.35.81.35.61-.12.8-.35Z"/>
    </g>
    <path class="cls-8" d="M16.76,191.98c-.2-.11-.35-.26-.47-.46-.12-.19-.17-.41-.17-.63,0-.21.06-.42.17-.61s.27-.35.46-.47c.2-.12.41-.17.65-.17.22,0,.43.05.63.16.2.11.35.26.47.45.12.19.17.4.17.64s-.06.44-.17.63-.27.34-.47.46-.41.17-.64.17-.44-.05-.64-.16Z"/>
    <g>
      <path class="cls-6" d="M24.01,193.52c.21.04.38.06.5.06.24,0,.4-.07.5-.2s.14-.36.14-.68v-4.91h.57v4.91c0,.49-.09.84-.26,1.05-.17.21-.46.32-.86.32-.16,0-.36-.02-.6-.06v-.5Z"/>
      <path class="cls-6" d="M27.47,192.59c-.25-.15-.45-.36-.58-.64s-.21-.6-.21-.97.07-.69.21-.97.33-.49.58-.64.54-.22.88-.22.62.08.88.22.45.36.58.64.21.6.21.97-.07.69-.21.97-.33.49-.58.64-.54.22-.88.22-.62-.07-.88-.22ZM29.15,192c.19-.23.28-.57.28-1.01s-.1-.76-.29-1-.46-.35-.8-.35-.61.12-.8.35-.29.57-.29,1,.09.78.28,1.01c.19.23.46.35.81.35s.62-.12.81-.35Z"/>
      <path class="cls-6" d="M33.96,189.24l-1.64,3.84c-.17.4-.39.7-.65.88s-.58.31-.97.38l-.12-.44c.33-.08.58-.17.75-.3.17-.12.31-.31.42-.57l.14-.32-1.49-3.49h.59l1.19,2.91,1.2-2.91h.57Z"/>
      <path class="cls-6" d="M35.58,188.23c-.11.1-.16.29-.16.54v.47h.86v.45h-.86v3.07h-.57v-3.07h-.69v-.45h.69v-.54c0-.37.09-.65.28-.84s.44-.28.77-.28c.16,0,.32.02.48.06v.48c-.13-.04-.25-.06-.36-.06-.19,0-.33.05-.44.16Z"/>
      <path class="cls-6" d="M39.98,189.24v3.52h-.55v-.61c-.11.21-.27.38-.47.49s-.43.17-.68.17c-.42,0-.73-.12-.95-.35s-.32-.58-.32-1.04v-2.18h.57v2.17c0,.32.07.55.2.7.13.15.33.22.59.22.31,0,.56-.1.76-.3s.29-.47.29-.8v-1.99h.57Z"/>
      <path class="cls-6" d="M41.07,187.61h.57v5.15h-.57v-5.15Z"/>
      <path class="cls-6" d="M42.73,187.61h.57v5.15h-.57v-5.15Z"/>
      <path class="cls-6" d="M51.01,187.78v4.98h-.53v-3.7l-1.62,3.7h-.41l-1.63-3.67v3.67s-.53,0-.53,0v-4.98h.48l1.89,4.3,1.87-4.3h.48Z"/>
      <path class="cls-6" d="M52.81,187.75v.64h-.69v-.64h.69ZM52.17,189.24h.57v3.52h-.57v-3.52Z"/>
      <path class="cls-6" d="M53.84,187.61h.57v5.15h-.57v-5.15Z"/>
      <path class="cls-6" d="M55.5,187.61h.57v5.15h-.57v-5.15Z"/>
      <path class="cls-6" d="M60.11,190.99h-2.58c0,.45.11.79.31,1.02s.5.34.89.34c.41,0,.79-.14,1.13-.41l.19.41c-.15.14-.35.26-.59.34s-.49.13-.74.13c-.55,0-.98-.16-1.29-.49-.31-.32-.47-.77-.47-1.33,0-.36.07-.68.21-.96.14-.28.34-.49.59-.65.25-.15.54-.23.86-.23.47,0,.83.15,1.1.46.27.31.4.73.4,1.26v.1ZM57.91,189.87c-.18.18-.3.43-.35.75h2.05c-.03-.33-.12-.58-.29-.76-.17-.17-.4-.26-.69-.26s-.53.09-.72.27Z"/>
      <path class="cls-6" d="M61.71,189.69v1.92c0,.26.05.45.16.55.11.11.26.16.46.16.13,0,.26-.02.38-.06v.48c-.14.05-.31.07-.49.07-.34,0-.6-.09-.79-.28-.19-.19-.28-.47-.28-.84v-2h-.69v-.45h.69v-.9l.57-.2v1.11h1.01v.45h-1.01Z"/>
      <path class="cls-6" d="M63.19,192.36l.19-.42c.19.15.38.26.58.32s.42.1.66.1c.27,0,.47-.04.61-.14.14-.09.21-.22.21-.4,0-.14-.05-.25-.14-.34s-.25-.15-.46-.2l-.59-.14c-.29-.07-.52-.18-.68-.35s-.24-.37-.24-.6c0-.31.12-.56.37-.75.25-.19.57-.29.98-.29.25,0,.48.04.7.12.22.08.4.19.55.34l-.19.41c-.33-.27-.69-.41-1.06-.41-.25,0-.45.05-.58.14s-.21.23-.21.4c0,.14.04.26.13.34.09.08.22.15.42.2l.59.15c.33.08.57.19.73.35.16.16.24.36.24.61,0,.3-.12.55-.37.73-.25.18-.58.27-1.01.27-.59,0-1.06-.15-1.41-.46Z"/>
    </g>
    <path class="cls-8" d="M16.7,201.97c-.19-.11-.33-.26-.45-.46-.11-.19-.17-.41-.17-.63,0-.21.05-.42.16-.61s.25-.35.44-.47c.19-.12.39-.17.62-.17.21,0,.41.05.6.16.19.11.33.26.45.45.11.19.17.4.17.64s-.05.44-.16.63-.26.34-.44.46c-.19.11-.39.17-.6.17s-.42-.05-.61-.16Z"/>
    <g>
      <path class="cls-6" d="M25.56,202.5c-.35-.21-.62-.5-.8-.89s-.28-.84-.28-1.36.09-.97.28-1.35c.19-.38.45-.67.8-.88.35-.21.76-.31,1.23-.31.35,0,.66.05.95.16.29.11.54.26.75.47l-.22.44c-.24-.21-.47-.35-.7-.44-.23-.09-.49-.13-.77-.13-.55,0-.97.18-1.27.53-.3.35-.45.86-.45,1.51s.15,1.17.45,1.52c.3.36.72.54,1.27.54.28,0,.54-.04.77-.13.23-.09.47-.24.7-.44l.22.44c-.21.21-.46.37-.75.47-.29.11-.6.16-.95.16-.47,0-.88-.1-1.23-.31Z"/>
      <path class="cls-6" d="M32.4,200.54v2.21h-.57v-2.18c0-.33-.07-.57-.2-.72-.13-.15-.34-.23-.62-.23-.33,0-.59.1-.78.3-.2.2-.29.47-.29.81v2.02h-.57v-5.15h.57v2.21c.11-.21.27-.38.48-.49.21-.11.44-.17.71-.17.84,0,1.27.46,1.27,1.39Z"/>
      <path class="cls-6" d="M34.11,197.74v.64h-.69v-.64h.69ZM33.47,199.23h.57v3.52h-.57v-3.52Z"/>
      <path class="cls-6" d="M38.16,200.54v2.21h-.57v-2.18c0-.33-.07-.57-.2-.72-.13-.15-.34-.23-.62-.23-.33,0-.59.1-.78.3-.2.2-.29.47-.29.81v2.02h-.57v-2.53c0-.36-.02-.69-.06-.99h.54l.06.63c.11-.23.27-.41.48-.53.21-.12.46-.19.74-.19.84,0,1.27.46,1.27,1.39Z"/>
      <path class="cls-6" d="M42.37,199.23v3.49c0,.52-.13.92-.4,1.19-.27.27-.66.4-1.19.4s-1-.12-1.39-.36l.1-.46c.22.13.43.22.63.27.2.06.42.08.65.08.34,0,.6-.09.77-.27s.26-.45.26-.8v-.83c-.11.22-.26.4-.47.52-.21.12-.45.18-.74.18-.31,0-.58-.07-.82-.22s-.43-.35-.56-.62c-.13-.27-.2-.57-.2-.92s.07-.65.2-.92c.13-.27.32-.47.56-.62s.51-.22.82-.22c.28,0,.52.06.73.18s.37.29.47.51v-.61h.57ZM41.51,201.84c.19-.23.29-.54.29-.93s-.1-.71-.29-.93c-.19-.23-.46-.34-.8-.34s-.62.11-.82.34c-.2.23-.3.54-.3.93s.1.71.3.93c.2.23.47.34.82.34s.61-.11.8-.34Z"/>
      <path class="cls-6" d="M44.08,197.77v.51c0,.2-.03.38-.1.54-.07.16-.17.32-.33.48l-.27-.21c.18-.21.29-.41.31-.6h-.34v-.72h.72Z"/>
      <path class="cls-6" d="M44.66,202.35l.19-.42c.19.15.38.26.58.32s.42.1.66.1c.27,0,.47-.04.61-.14.14-.09.21-.22.21-.4,0-.14-.05-.25-.14-.34s-.25-.15-.46-.2l-.59-.14c-.29-.07-.52-.18-.68-.35s-.24-.37-.24-.6c0-.31.12-.56.37-.75.25-.19.57-.29.98-.29.25,0,.48.04.7.12.22.08.4.19.55.34l-.19.41c-.33-.27-.69-.41-1.06-.41-.25,0-.45.05-.58.14s-.21.23-.21.4c0,.14.04.26.13.34.09.08.22.15.42.2l.59.15c.33.08.57.19.73.35.16.16.24.36.24.61,0,.3-.12.55-.37.73-.25.18-.58.27-1.01.27-.59,0-1.06-.15-1.41-.46Z"/>
      <path class="cls-6" d="M49.96,202.18l.22-.44c.25.21.5.36.76.45.26.09.56.13.9.13.4,0,.71-.08.93-.24.22-.16.33-.38.33-.66,0-.17-.05-.3-.16-.41-.1-.11-.24-.19-.41-.25-.17-.06-.4-.12-.68-.19-.38-.08-.7-.17-.95-.27-.25-.1-.45-.24-.6-.42-.15-.18-.23-.43-.23-.72s.07-.54.22-.75.36-.39.63-.51c.27-.12.59-.18.96-.18.34,0,.67.05.97.16.3.11.55.26.76.47l-.22.44c-.23-.2-.47-.35-.71-.44-.24-.09-.5-.14-.79-.14-.39,0-.69.08-.91.25-.22.17-.33.39-.33.68,0,.25.1.44.29.57s.49.24.88.33c.43.1.77.2,1.01.28.24.09.45.22.61.39.16.18.25.41.25.7s-.08.53-.22.74c-.15.21-.36.38-.64.49-.28.12-.6.17-.98.17-.78,0-1.4-.21-1.86-.63Z"/>
      <path class="cls-6" d="M57.48,200.98h-2.58c0,.45.11.79.31,1.02s.5.34.89.34c.41,0,.79-.14,1.13-.41l.19.41c-.15.14-.35.26-.59.34s-.49.13-.74.13c-.55,0-.98-.16-1.29-.49-.31-.32-.47-.77-.47-1.33,0-.36.07-.68.21-.96.14-.28.34-.49.59-.65.25-.15.54-.23.86-.23.47,0,.83.15,1.1.46.27.31.4.73.4,1.26v.1ZM55.27,199.86c-.18.18-.3.43-.35.75h2.05c-.03-.33-.12-.58-.29-.76-.17-.17-.4-.26-.69-.26s-.53.09-.72.27Z"/>
      <path class="cls-6" d="M58.93,202.58c-.25-.15-.45-.36-.59-.63-.14-.27-.21-.59-.21-.96s.07-.69.21-.96c.14-.28.34-.49.6-.65s.56-.23.91-.23c.24,0,.47.04.69.12s.41.2.55.34l-.19.42c-.18-.14-.35-.24-.51-.31-.17-.07-.33-.1-.51-.1-.36,0-.64.12-.85.36-.21.24-.31.58-.31,1s.1.75.3.99.49.35.85.35c.17,0,.34-.03.51-.1.17-.07.34-.17.51-.31l.19.42c-.15.14-.34.25-.56.33-.23.08-.46.12-.7.12-.34,0-.64-.07-.89-.22Z"/>
      <path class="cls-6" d="M63.77,199.19v.52c-.12-.04-.25-.06-.38-.06-.34,0-.59.11-.76.32-.17.21-.25.47-.25.77v2.01h-.57v-2.53c0-.36-.02-.69-.06-.99h.54l.06.65c.09-.24.23-.42.43-.55s.42-.19.67-.19c.12,0,.22.01.32.04Z"/>
      <path class="cls-6" d="M67.23,200.98h-2.58c0,.45.11.79.31,1.02.2.23.5.34.88.34.41,0,.79-.14,1.13-.41l.19.41c-.15.14-.35.26-.59.34s-.49.13-.74.13c-.55,0-.98-.16-1.29-.49s-.47-.77-.47-1.33c0-.36.07-.68.21-.96.14-.28.34-.49.59-.65s.54-.23.86-.23c.47,0,.83.15,1.1.46s.4.73.4,1.26v.1ZM65.02,199.86c-.18.18-.3.43-.35.75h2.05c-.03-.33-.12-.58-.29-.76-.17-.17-.4-.26-.69-.26s-.53.09-.72.27Z"/>
      <path class="cls-6" d="M68.83,199.68v1.92c0,.26.05.45.16.55.11.11.26.16.46.16.13,0,.26-.02.38-.06v.48c-.14.05-.31.07-.49.07-.34,0-.6-.09-.79-.28s-.28-.47-.28-.84v-2h-.69v-.45h.69v-.9l.57-.2v1.11h1.01v.45h-1.01Z"/>
    </g>
    <g class="cls-4">
      <path class="cls-1" d="M107.63,113.03s-2.53-.09-3.92,2.23c0,0-.84,1.63-1.23,2.7-.26.72-.49,1.41-.99,2M98.48,109.82s-1.74,1.76-.85,4.26c0,0,.71,1.66,1.28,2.62.39.65.67,1.36.8,2.11.18,1.04-.15,2.46-1.33,3M101.93,112.56c2.06-1.25,4.07-1.33,5.27-.16,1.54,1.49.82,4.6-1.59,6.95-2,1.94-4.15,2.87-5.84,2.24M102.57,115.83c0,3.32-1.76,6.01-3.93,6.01s-3.93-2.69-3.93-6.01,1.76-6.01,3.93-6.01,3.93,2.69,3.93,6.01Z"/>
    </g>
    <g class="cls-9">
      <path class="cls-1" d="M105.83,145.34c.16-.06.34-.09.53-.09.86,0,1.56.67,1.56,1.5s-.7,1.5-1.56,1.5c-.02,0-.03,0-.05,0-.03,0-.07,0-.11,0,.02-.01.04-.03.05-.05.3-.27.48-.66.48-1.08,0-.65-.43-1.2-1.03-1.41-.18.35-.49.64-.88.77M104.82,146.48c.39-.13.71-.41.88-.77.6.21,1.03.76,1.03,1.41,0,.42-.18.81-.48,1.08-.01.02-.03.03-.05.05-.28.23-.64.37-1.03.37-.03,0-.06,0-.09,0l.09-.36s0-.1-.01-.14M106.73,149.28c0,.83-.7,1.5-1.56,1.5-.18,0-.35-.03-.51-.08.24-.38.38-.92.27-1.52l.14-.56s.06,0,.09,0c.4,0,.75-.14,1.03-.37.02-.01.04-.03.05-.05.02.01.03.03.05.05.26.27.43.63.43,1.03ZM105.86,145.06c0,.1,0,.19-.03.28-.03.13-.07.25-.13.37-.18.35-.49.64-.88.77-.04.01-.08.03-.12.04l-.42-.63-.11-.17c.11-.62-.04-1.05-.32-1.4.09-.17.13-.34.13-.51v-.07l-.05-.13c.11-.03.24-.04.36-.04.87,0,1.57.67,1.57,1.5ZM104.35,149.73c-.01.09-.03.08-.06.16-.17.33-.55.59-1.15.54-.09.17-.2.3-.33.39-.21.16-.47.24-.76.27-.07.18-.18.32-.3.43-.26.22-.64.33-1.1.32-.58.12-1.04-.03-1.4-.41-.44-.14-.74-.38-.86-.72-.7-.14-1.15-.55-1.47-1.11-.19-.07-.36-.21-.49-.39-.19-.25-.31-.59-.36-.86-.31-.42-.45-.87-.43-1.34-.12-.05-.25-.13-.36-.26-.19-.2-.36-.54-.36-1.1s.18-.9.36-1.1c.12-.13.25-.21.36-.26-.02-.47.12-.92.43-1.34.05-.28.17-.61.36-.86.13-.18.3-.31.49-.39.31-.57.77-.98,1.47-1.11.12-.34.42-.58.86-.72.36-.38.82-.54,1.4-.41.47,0,.85.1,1.1.32.13.11.23.25.3.43.29.03.56.11.76.27.17.13.32.32.4.58l.21.57.05.13v.07c0,.17-.04.34-.13.51.27.35.42.78.32,1.4l.11.17.42.63.03.05c.03.1.04.2.04.31,0,.13-.03.27-.1.43.18.13.3.3.38.49.04.11.07.21.09.33,0,.04.01.09.01.14l-.09.36-.14.56c.1.6-.03,1.14-.27,1.52,0,.01-.01.03-.02.04l.29.17c.33.2.29.68-.07.83ZM99.08,145.44c.21,0,.38.16.38.36s-.17.37-.38.37-.38-.17-.38-.37.17-.36.38-.36ZM98.13,146.17c.21,0,.38.16.38.36s-.17.37-.38.37-.38-.16-.38-.37.17-.36.38-.36ZM101.74,147.12c.2.05.41-.07.46-.26.05-.19-.07-.4-.27-.45-.2-.05-.41.07-.46.26-.05.19.07.39.27.45ZM98.89,146.91c.21,0,.38.16.38.37s-.17.37-.38.37-.38-.17-.38-.37.17-.37.38-.37ZM100.81,147.64c.2.05.41-.07.46-.26.05-.19-.07-.39-.27-.44-.2-.05-.41.07-.46.26-.05.19.07.4.27.45ZM99.36,147.94s-.09.02-.14.02c-.1,0-.22-.02-.33-.05-.47-.11-1.02-.38-1.19-.65-.14-.23-.15-.67-.11-1.1.04-.44.13-.86.28-1.04.04-.06.14-.09.25-.12.25-.08.57-.11.86-.08.15.01.29.04.4.08.06.03.12.05.15.09.05.08.07.21.1.37.04.31.04.71.01,1.11-.03.39-.08.79-.16,1.08l-.11.3ZM101.54,148.58c.2.05.41-.07.46-.26.05-.19-.07-.39-.27-.45-.2-.05-.41.07-.46.26-.05.19.07.4.27.45ZM102.5,146.55c0,.3-.06.69-.14,1.08-.08.39-.19.78-.31,1.07-.06.15-.12.27-.19.33-.04.04-.1.04-.17.05-.12.01-.27,0-.41-.02-.29-.05-.58-.16-.8-.29-.1-.06-.18-.11-.21-.18-.1-.21-.07-.64.01-1.07.07-.42.2-.85.4-1.04.24-.22.85-.34,1.33-.34.12,0,.24.01.33.04.04.01.11.04.13.05l.02.32ZM101.36,138.32c-4.19,0-7.6,3.28-7.6,7.31s3.4,7.31,7.6,7.31,7.6-3.28,7.6-7.31-3.4-7.31-7.6-7.31Z"/>
      <path class="cls-1" d="M101,47.77c-4.3-.26-5.17-3.98-5.17-7.1h11.32c0,.49-.02.99-.07,1.5"/>
      <path class="cls-3" d="M103.5,39.09c1.81-2.27-1.86-2.2.38-4.54M101.04,39.09c1.81-2.27-1.85-2.2.38-4.54M98.59,39.09c1.81-2.27-1.86-2.2.38-4.54M94.93,48.93h5.66M95.87,42.12c-.14-.48-1.04-1.03-1.91-.8-.73.2-1.11.91-.82,1.85.43,1.41,2.65,1.02,3.79,2.39"/>
      <path class="cls-1" d="M101.31,50.1c1.86-2.86,4.63-3.86,6.76-4.98M102.44,48.67c-.34-2.69,1.02-4.15,2.71-4.71,1.79-.59,3.97-.22,5.33-.89-.05,5.14-4.69,6.98-7.11,6.08"/>
    </g>
  </g>
</svg>