<?xml version="1.0" encoding="UTF-8"?>
<svg id="Layer_1" data-name="Layer 1" xmlns="http://www.w3.org/2000/svg" xmlns:xlink="http://www.w3.org/1999/xlink" viewBox="0 0 127.91 148.27">
  <defs>
    <style>
      .cls-1 {
        stroke-linejoin: round;
      }

      .cls-1, .cls-2, .cls-3 {
        fill: none;
      }

      .cls-1, .cls-3 {
        stroke: #231f20;
        stroke-linecap: round;
        stroke-width: .5px;
      }

      .cls-4 {
        clip-path: url(#clippath);
      }

      .cls-2, .cls-5, .cls-6, .cls-7, .cls-8 {
        stroke-width: 0px;
      }

      .cls-5 {
        fill: #1268b3;
      }

      .cls-9 {
        clip-path: url(#clippath-1);
      }

      .cls-6 {
        fill: #58595b;
      }

      .cls-3 {
        stroke-miterlimit: 10;
      }

      .cls-7 {
        fill: #fff;
      }

      .cls-8 {
        fill: #00aeef;
      }
    </style>
    <clipPath id="clippath">
      <rect class="cls-2" x="5.03" y="5.75" width="122.88" height="130.74"/>
    </clipPath>
    <clipPath id="clippath-1">
      <rect class="cls-2" x="5.03" y="5.75" width="122.88" height="130.74"/>
    </clipPath>
  </defs>
  <rect class="cls-7" width="126.24" height="148.27" rx="13.04" ry="13.04"/>
  <g>
    <g>
      <path class="cls-5" d="M19.53,20.2h-3.48l-.72,1.67h-1.3l3.22-7.12h1.05l3.23,7.12h-1.29l-.71-1.67ZM19.1,19.2l-1.31-3.05-1.31,3.05h2.62Z"/>
      <path class="cls-5" d="M23.05,21.2c-.5-.5-.75-1.24-.75-2.21v-4.24h1.27v4.31c0,.61.14,1.08.43,1.39s.71.47,1.28.47.98-.16,1.26-.48c.29-.32.44-.78.44-1.39v-4.31h1.27v4.24c0,.97-.25,1.7-.76,2.21s-1.24.76-2.21.76-1.72-.25-2.23-.75Z"/>
      <path class="cls-5" d="M30.71,21.74c-.48-.15-.88-.36-1.21-.63l.44-.94c.35.26.71.45,1.08.58s.79.18,1.23.18c.49,0,.88-.09,1.15-.26.27-.17.41-.42.41-.73,0-.27-.12-.47-.38-.62s-.66-.28-1.24-.41c-.89-.19-1.54-.44-1.95-.75s-.61-.75-.61-1.34c0-.42.11-.79.34-1.12.23-.33.55-.58.96-.77s.9-.28,1.45-.28c.5,0,.97.08,1.42.22.45.15.82.36,1.1.62l-.43.94c-.63-.51-1.33-.76-2.1-.76-.46,0-.82.09-1.09.29-.27.19-.4.45-.4.77,0,.28.12.49.36.64.24.15.64.28,1.21.41.59.14,1.08.29,1.45.46.37.16.66.37.86.63.2.26.3.58.3.97,0,.43-.11.8-.34,1.11-.23.32-.55.56-.98.74-.43.17-.93.26-1.51.26-.55,0-1.06-.07-1.54-.22Z"/>
      <path class="cls-5" d="M37.91,15.81h-2.32v-1.06h5.95v1.06h-2.33v6.06h-1.3v-6.06Z"/>
      <path class="cls-5" d="M48.39,21.87h-1.36l-.91-2.37c-.08-.22-.2-.37-.37-.46-.17-.09-.38-.13-.65-.13h-1.29v2.96h-1.28v-7.12h3.05c.81,0,1.42.18,1.84.53s.63.86.63,1.52c0,.47-.12.88-.38,1.21s-.61.57-1.07.71c.42.09.72.38.91.88l.87,2.28ZM45.4,17.91c.49,0,.85-.09,1.08-.27.23-.18.35-.45.35-.82s-.12-.63-.34-.81c-.23-.18-.59-.26-1.08-.26h-1.61v2.16h1.61Z"/>
      <path class="cls-5" d="M54.28,20.2h-3.48l-.72,1.67h-1.3l3.22-7.12h1.05l3.23,7.12h-1.29l-.71-1.67ZM53.85,19.2l-1.31-3.05-1.31,3.05h2.62Z"/>
      <path class="cls-5" d="M57.15,14.75h1.29v6.06h3.33v1.06h-4.62v-7.12Z"/>
      <path class="cls-5" d="M62.85,14.75h1.29v7.12h-1.29v-7.12Z"/>
      <path class="cls-5" d="M70.51,20.2h-3.48l-.72,1.67h-1.3l3.22-7.12h1.05l3.23,7.12h-1.29l-.71-1.67ZM70.08,19.2l-1.31-3.05-1.31,3.05h2.62Z"/>
    </g>
    <g>
      <path class="cls-6" d="M15.74,45.17h-1.62v-.74h4.17v.74h-1.63v4.24h-.91v-4.24Z"/>
      <path class="cls-6" d="M18.9,44.42h3.33v.71h-2.45v1.38h2.3v.71h-2.3v1.46h2.45v.71h-3.33v-4.98Z"/>
      <path class="cls-6" d="M26.3,48.24h-2.44l-.5,1.17h-.91l2.25-4.98h.73l2.26,4.98h-.9l-.5-1.17ZM26,47.54l-.92-2.13-.92,2.13h1.83Z"/>
    </g>
    <path class="cls-8" d="M15.25,61.46c-.2-.11-.35-.26-.47-.46-.12-.19-.17-.41-.17-.63,0-.21.06-.42.17-.61s.27-.35.46-.47c.2-.12.41-.17.65-.17.22,0,.43.05.63.16.2.11.35.26.47.45s.17.4.17.64-.06.44-.17.63c-.12.19-.27.34-.47.46s-.41.17-.64.17-.44-.05-.64-.16Z"/>
    <g>
      <path class="cls-6" d="M24.36,57.75h-1.74v-.49h4.05v.49h-1.74v4.49h-.58v-4.49Z"/>
      <path class="cls-6" d="M29.72,60.47h-2.58c0,.45.11.79.31,1.02s.5.34.89.34c.41,0,.79-.14,1.13-.41l.19.41c-.15.14-.35.26-.59.34s-.49.13-.74.13c-.55,0-.98-.16-1.29-.49s-.47-.77-.47-1.33c0-.36.07-.68.21-.96.14-.28.34-.49.59-.65.25-.15.54-.23.86-.23.47,0,.83.15,1.1.46s.4.73.4,1.26v.1ZM27.51,59.35c-.18.18-.3.43-.35.75h2.05c-.03-.33-.12-.58-.29-.76-.17-.17-.4-.26-.69-.26s-.53.09-.72.27Z"/>
      <path class="cls-6" d="M31.32,59.17v1.92c0,.26.05.45.16.55.11.11.26.16.46.16.13,0,.26-.02.38-.06v.48c-.14.05-.31.07-.49.07-.34,0-.6-.09-.79-.28s-.28-.47-.28-.84v-2h-.69v-.45h.69v-.9l.57-.2v1.11h1.01v.45h-1.01Z"/>
      <path class="cls-6" d="M33.01,57.09h.57v5.15h-.57v-5.15Z"/>
      <path class="cls-6" d="M37.63,60.47h-2.58c0,.45.11.79.31,1.02s.5.34.88.34c.41,0,.79-.14,1.13-.41l.19.41c-.15.14-.35.26-.59.34s-.49.13-.74.13c-.55,0-.98-.16-1.29-.49-.31-.32-.47-.77-.47-1.33,0-.36.07-.68.21-.96s.34-.49.59-.65.54-.23.86-.23c.47,0,.83.15,1.1.46.27.31.4.73.4,1.26v.1ZM35.42,59.35c-.18.18-.3.43-.35.75h2.05c-.03-.33-.12-.58-.29-.76-.17-.17-.4-.26-.69-.26s-.53.09-.72.27Z"/>
      <path class="cls-6" d="M41.55,58.72l-1.64,3.84c-.17.4-.39.7-.65.88-.26.19-.58.31-.97.38l-.12-.44c.33-.08.58-.17.75-.3.17-.12.31-.31.42-.57l.14-.32-1.49-3.49h.6l1.19,2.91,1.21-2.91h.57Z"/>
    </g>
    <path class="cls-8" d="M15.25,71.46c-.2-.11-.35-.26-.47-.46-.12-.19-.17-.41-.17-.63,0-.21.06-.42.17-.61s.27-.35.46-.47c.2-.12.41-.17.65-.17.22,0,.43.05.63.16.2.11.35.26.47.45s.17.4.17.64-.06.44-.17.63c-.12.19-.27.34-.47.46s-.41.17-.64.17-.44-.05-.64-.16Z"/>
    <g>
      <path class="cls-6" d="M24.36,67.75h-1.74v-.49h4.05v.49h-1.74v4.49h-.58v-4.49Z"/>
      <path class="cls-6" d="M29.72,70.47h-2.58c0,.45.11.79.31,1.02s.5.34.89.34c.41,0,.79-.14,1.13-.41l.19.41c-.15.14-.35.26-.59.34s-.49.13-.74.13c-.55,0-.98-.16-1.29-.49s-.47-.77-.47-1.33c0-.36.07-.68.21-.96.14-.28.34-.49.59-.65.25-.15.54-.23.86-.23.47,0,.83.15,1.1.46s.4.73.4,1.26v.1ZM27.51,69.35c-.18.18-.3.43-.35.75h2.05c-.03-.33-.12-.58-.29-.76-.17-.17-.4-.26-.69-.26s-.53.09-.72.27Z"/>
      <path class="cls-6" d="M33.68,68.73v3.52h-.56v-.64c-.1.22-.26.39-.46.51-.21.12-.45.18-.72.18-.31,0-.59-.07-.82-.22-.24-.15-.42-.36-.55-.63-.13-.27-.19-.59-.19-.96s.07-.69.2-.96.31-.49.55-.65c.24-.15.51-.23.82-.23.28,0,.52.06.72.18s.36.29.47.51v-.61h.56ZM32.84,71.48c.19-.24.28-.57.28-1s-.09-.77-.28-1c-.19-.23-.45-.35-.8-.35s-.62.12-.81.36-.29.58-.29,1,.09.76.29.99.46.35.81.35.61-.12.8-.35Z"/>
      <path class="cls-6" d="M37.35,68.87c.24.15.42.37.55.65.13.28.2.6.2.96s-.07.68-.2.96c-.13.27-.31.48-.55.63s-.51.22-.82.22c-.28,0-.52-.06-.72-.18-.21-.12-.36-.29-.47-.52v2.16h-.57v-4.05c0-.36-.02-.69-.05-.99h.54l.06.68c.1-.24.25-.43.47-.56s.46-.2.75-.2c.31,0,.58.08.82.23ZM37.23,71.48c.19-.23.28-.57.28-.99s-.1-.76-.29-1-.46-.36-.8-.36-.62.12-.8.35c-.19.23-.28.57-.28,1s.09.77.28,1c.19.24.46.35.8.35s.61-.12.8-.35Z"/>
      <path class="cls-6" d="M39.62,67.24v.64h-.69v-.64h.69ZM38.98,68.73h.57v3.52h-.57v-3.52Z"/>
      <path class="cls-6" d="M43.78,68.73v3.49c0,.52-.13.92-.4,1.19-.27.27-.66.4-1.19.4s-1-.12-1.39-.36l.1-.46c.22.13.44.22.63.27.2.06.42.08.65.08.34,0,.6-.09.77-.27.17-.18.26-.45.26-.8v-.83c-.11.22-.26.4-.47.52-.21.12-.45.18-.74.18-.31,0-.58-.07-.82-.22s-.43-.35-.56-.62c-.13-.27-.2-.57-.2-.92s.07-.65.2-.92c.13-.27.32-.47.56-.62s.52-.22.82-.22c.28,0,.52.06.73.18.21.12.37.29.47.51v-.61h.57ZM42.92,71.33c.19-.23.29-.54.29-.93s-.1-.71-.29-.93c-.19-.23-.46-.34-.8-.34s-.62.11-.82.34c-.2.23-.3.54-.3.93s.1.71.3.93c.2.23.47.34.82.34s.61-.11.8-.34Z"/>
      <path class="cls-6" d="M44.65,71.84l.19-.42c.19.15.38.26.58.32s.42.1.66.1c.27,0,.47-.04.61-.14.14-.09.21-.22.21-.4,0-.14-.05-.25-.14-.34-.09-.08-.25-.15-.46-.2l-.6-.14c-.29-.07-.52-.18-.68-.35-.16-.17-.24-.37-.24-.6,0-.31.12-.56.37-.75.25-.19.57-.29.98-.29.25,0,.48.04.7.12.22.08.4.19.55.34l-.19.41c-.33-.27-.69-.41-1.06-.41-.25,0-.45.05-.58.14s-.21.23-.21.4c0,.14.04.26.13.34s.23.15.42.2l.59.15c.33.08.57.19.73.35.16.16.24.36.24.61,0,.3-.12.55-.37.73-.25.18-.58.27-1.01.27-.59,0-1.06-.15-1.41-.46Z"/>
    </g>
    <path class="cls-8" d="M15.25,81.46c-.2-.11-.35-.26-.47-.46-.12-.19-.17-.41-.17-.63,0-.21.06-.42.17-.61s.27-.35.46-.47c.2-.12.41-.17.65-.17.22,0,.43.05.63.16.2.11.35.26.47.45s.17.4.17.64-.06.44-.17.63c-.12.19-.27.34-.47.46s-.41.17-.64.17-.44-.05-.64-.16Z"/>
    <g>
      <path class="cls-6" d="M24.36,77.76h-1.74v-.49h4.05v.49h-1.74v4.49h-.58v-4.49Z"/>
      <path class="cls-6" d="M29.87,78.73v3.52h-.56v-.64c-.1.22-.26.39-.46.51-.21.12-.45.18-.72.18-.31,0-.59-.07-.82-.22-.24-.15-.42-.36-.55-.63-.13-.27-.19-.59-.19-.96s.06-.69.2-.96.31-.49.55-.65.51-.23.82-.23c.28,0,.52.06.72.18s.36.29.47.51v-.61h.56ZM29.03,81.48c.19-.24.28-.57.28-1s-.09-.77-.28-1c-.19-.23-.45-.35-.8-.35s-.61.12-.81.36c-.19.24-.29.58-.29,1s.09.76.29.99.46.35.81.35.61-.12.8-.35Z"/>
      <path class="cls-6" d="M31.73,79.18v1.92c0,.26.05.45.16.55.11.11.26.16.46.16.13,0,.26-.02.38-.06v.48c-.14.05-.31.07-.49.07-.34,0-.6-.09-.79-.28-.19-.19-.28-.47-.28-.84v-2h-.69v-.45h.69v-.9l.57-.2v1.11h1.01v.45h-1.01Z"/>
      <path class="cls-6" d="M36.52,78.73v3.52h-.56v-.64c-.1.22-.26.39-.46.51-.21.12-.45.18-.72.18-.31,0-.59-.07-.82-.22-.24-.15-.42-.36-.55-.63-.13-.27-.19-.59-.19-.96s.07-.69.2-.96.31-.49.55-.65c.24-.15.51-.23.82-.23.28,0,.52.06.72.18s.36.29.47.51v-.61h.56ZM35.68,81.48c.19-.24.28-.57.28-1s-.09-.77-.28-1c-.19-.23-.45-.35-.8-.35s-.62.12-.81.36-.29.58-.29,1,.09.76.29.99.46.35.81.35.61-.12.8-.35Z"/>
      <path class="cls-6" d="M40.72,77.76h-1.74v-.49h4.05v.49h-1.74v4.49h-.58v-4.49Z"/>
      <path class="cls-6" d="M46.08,80.47h-2.58c0,.45.11.79.31,1.02s.5.34.88.34c.41,0,.79-.14,1.13-.41l.19.41c-.15.14-.35.26-.59.34s-.49.13-.74.13c-.55,0-.98-.16-1.29-.49-.31-.32-.47-.77-.47-1.33,0-.36.07-.68.21-.96s.34-.49.59-.65.54-.23.86-.23c.47,0,.83.15,1.1.46.27.31.4.73.4,1.26v.1ZM43.87,79.35c-.18.18-.3.43-.35.75h2.05c-.03-.33-.12-.58-.29-.76-.17-.17-.4-.26-.69-.26s-.53.09-.72.27Z"/>
      <path class="cls-6" d="M50.04,78.73v3.52h-.56v-.64c-.1.22-.26.39-.47.51-.21.12-.45.18-.72.18-.31,0-.59-.07-.82-.22-.24-.15-.42-.36-.55-.63-.13-.27-.19-.59-.19-.96s.07-.69.2-.96c.13-.28.31-.49.55-.65.23-.15.51-.23.81-.23.28,0,.52.06.72.18.21.12.36.29.47.51v-.61h.56ZM49.2,81.48c.19-.24.28-.57.28-1s-.09-.77-.28-1c-.19-.23-.45-.35-.8-.35s-.61.12-.81.36c-.19.24-.29.58-.29,1s.1.76.29.99.46.35.81.35.61-.12.8-.35Z"/>
    </g>
    <g>
      <path class="cls-6" d="M14.57,95.77h3.25v.72h-2.36v1.36h2.22v.73h-2.22v2.17h-.9v-4.98Z"/>
      <path class="cls-6" d="M19.47,100.5c-.36-.21-.63-.5-.83-.89s-.29-.84-.29-1.36.1-.97.29-1.35.46-.68.82-.89c.36-.21.78-.31,1.26-.31s.91.1,1.26.31c.36.21.63.5.82.89s.28.84.28,1.35-.1.98-.29,1.36-.46.68-.82.89c-.36.21-.78.31-1.26.31s-.9-.1-1.26-.31ZM21.8,99.62c.26-.32.38-.77.38-1.37s-.13-1.04-.38-1.35c-.26-.32-.62-.47-1.08-.47s-.82.16-1.08.47c-.26.31-.38.77-.38,1.36s.13,1.05.38,1.37c.26.32.62.48,1.08.48s.82-.16,1.08-.48Z"/>
      <path class="cls-6" d="M24.97,100.5c-.36-.21-.63-.5-.83-.89s-.29-.84-.29-1.36.1-.97.29-1.35.46-.68.82-.89c.36-.21.78-.31,1.26-.31s.91.1,1.26.31c.36.21.63.5.82.89s.28.84.28,1.35-.1.98-.29,1.36-.46.68-.82.89c-.36.21-.78.31-1.26.31s-.9-.1-1.26-.31ZM27.3,99.62c.26-.32.38-.77.38-1.37s-.13-1.04-.38-1.35c-.26-.32-.62-.47-1.08-.47s-.82.16-1.08.47c-.26.31-.38.77-.38,1.36s.13,1.05.38,1.37c.26.32.62.48,1.08.48s.82-.16,1.08-.48Z"/>
      <path class="cls-6" d="M29.51,95.77h1.83c.82,0,1.45.22,1.9.65.45.43.68,1.05.68,1.83s-.22,1.41-.68,1.84c-.45.44-1.08.65-1.9.65h-1.83v-4.98ZM31.29,100.02c1.15,0,1.72-.59,1.72-1.76s-.57-1.75-1.72-1.75h-.88v3.51h.88Z"/>
      <path class="cls-6" d="M35.46,100.66c-.33-.1-.62-.25-.85-.44l.31-.66c.24.18.5.32.76.4.26.09.55.13.86.13.34,0,.61-.06.8-.18s.28-.29.28-.51c0-.19-.09-.33-.26-.43-.18-.1-.46-.2-.87-.28-.62-.13-1.08-.31-1.37-.52-.28-.21-.43-.53-.43-.94,0-.29.08-.55.24-.78.16-.23.38-.41.67-.54.29-.13.63-.2,1.01-.2.35,0,.68.05,1,.16.31.11.57.25.77.44l-.3.66c-.44-.35-.93-.53-1.47-.53-.32,0-.58.07-.76.2-.19.13-.28.31-.28.54,0,.2.08.35.25.45.17.1.45.2.85.29.42.1.75.2,1.01.32s.46.26.6.44c.14.18.21.41.21.68,0,.3-.08.56-.24.78-.16.22-.39.39-.69.51s-.65.18-1.06.18c-.38,0-.74-.05-1.07-.15Z"/>
    </g>
    <path class="cls-8" d="M15.25,112.8c-.2-.11-.35-.26-.47-.46-.12-.19-.17-.41-.17-.63,0-.21.06-.42.17-.61s.27-.35.46-.47c.2-.12.41-.17.65-.17.22,0,.43.05.63.16.2.11.35.26.47.45s.17.4.17.64-.06.44-.17.63c-.12.19-.27.34-.47.46s-.41.17-.64.17-.44-.05-.64-.16Z"/>
    <g>
      <path class="cls-6" d="M24.36,109.1h-1.74v-.49h4.05v.49h-1.74v4.49h-.58v-4.49Z"/>
      <path class="cls-6" d="M29.87,110.07v3.52h-.56v-.64c-.1.22-.26.39-.46.51-.21.12-.45.18-.72.18-.31,0-.59-.07-.82-.22-.24-.15-.42-.36-.55-.63-.13-.27-.19-.59-.19-.96s.06-.69.2-.96.31-.49.55-.65.51-.23.82-.23c.28,0,.52.06.72.18s.36.29.47.51v-.61h.56ZM29.03,112.82c.19-.24.28-.57.28-1s-.09-.77-.28-1c-.19-.23-.45-.35-.8-.35s-.61.12-.81.36c-.19.24-.29.58-.29,1s.09.76.29.99.46.35.81.35.61-.12.8-.35Z"/>
      <path class="cls-6" d="M31.73,110.52v1.92c0,.26.05.45.16.55.11.11.26.16.46.16.13,0,.26-.02.38-.06v.48c-.14.05-.31.07-.49.07-.34,0-.6-.09-.79-.28-.19-.19-.28-.47-.28-.84v-2h-.69v-.45h.69v-.9l.57-.2v1.11h1.01v.45h-1.01Z"/>
      <path class="cls-6" d="M36.52,110.07v3.52h-.56v-.64c-.1.22-.26.39-.46.51-.21.12-.45.18-.72.18-.31,0-.59-.07-.82-.22-.24-.15-.42-.36-.55-.63-.13-.27-.19-.59-.19-.96s.07-.69.2-.96.31-.49.55-.65c.24-.15.51-.23.82-.23.28,0,.52.06.72.18s.36.29.47.51v-.61h.56ZM35.68,112.82c.19-.24.28-.57.28-1s-.09-.77-.28-1c-.19-.23-.45-.35-.8-.35s-.62.12-.81.36-.29.58-.29,1,.09.76.29.99.46.35.81.35.61-.12.8-.35Z"/>
      <path class="cls-6" d="M39.24,113.02l.22-.44c.25.21.5.36.76.45.26.09.56.13.9.13.4,0,.71-.08.93-.24.22-.16.33-.38.33-.66,0-.17-.05-.3-.16-.41-.11-.11-.24-.19-.41-.25-.17-.06-.4-.12-.68-.19-.38-.08-.7-.17-.95-.27-.25-.1-.45-.24-.6-.42-.15-.18-.23-.43-.23-.72s.07-.54.22-.75.36-.39.63-.51c.27-.12.59-.18.96-.18s.67.05.97.16c.3.11.55.26.76.47l-.22.44c-.23-.2-.47-.35-.71-.44-.24-.09-.5-.14-.79-.14-.39,0-.69.08-.91.25-.22.17-.33.39-.33.68,0,.25.1.44.29.57s.48.24.88.33c.43.1.77.2,1.01.28.25.09.45.22.61.39.16.18.24.41.24.7s-.07.53-.22.74c-.15.21-.36.38-.64.49-.28.12-.6.17-.98.17-.78,0-1.4-.21-1.86-.63Z"/>
      <path class="cls-6" d="M46.91,110.07v3.52h-.56v-.64c-.1.22-.26.39-.47.51-.21.12-.45.18-.72.18-.31,0-.59-.07-.82-.22-.24-.15-.42-.36-.55-.63-.13-.27-.19-.59-.19-.96s.07-.69.2-.96c.13-.28.31-.49.55-.65.23-.15.51-.23.81-.23.28,0,.52.06.72.18.21.12.36.29.47.51v-.61h.56ZM46.07,112.82c.19-.24.28-.57.28-1s-.09-.77-.28-1c-.19-.23-.45-.35-.8-.35s-.61.12-.81.36c-.19.24-.29.58-.29,1s.1.76.29.99.46.35.81.35.61-.12.8-.35Z"/>
      <path class="cls-6" d="M48.01,108.44h.57v5.15h-.57v-5.15Z"/>
      <path class="cls-6" d="M50.43,110.52v1.92c0,.26.05.45.16.55.11.11.26.16.46.16.13,0,.26-.02.38-.06v.48c-.14.05-.31.07-.49.07-.34,0-.6-.09-.79-.28s-.28-.47-.28-.84v-2h-.69v-.45h.69v-.9l.57-.2v1.11h1.01v.45h-1.01Z"/>
    </g>
    <path class="cls-8" d="M15.25,122.81c-.2-.11-.35-.26-.47-.46-.12-.19-.17-.41-.17-.63,0-.21.06-.42.17-.61s.27-.35.46-.47c.2-.12.41-.17.65-.17.22,0,.43.05.63.16.2.11.35.26.47.45s.17.4.17.64-.06.44-.17.63c-.12.19-.27.34-.47.46s-.41.17-.64.17-.44-.05-.64-.16Z"/>
    <g>
      <path class="cls-6" d="M24.36,119.1h-1.74v-.49h4.05v.49h-1.74v4.49h-.58v-4.49Z"/>
      <path class="cls-6" d="M29.87,120.07v3.52h-.56v-.64c-.1.22-.26.39-.46.51-.21.12-.45.18-.72.18-.31,0-.59-.07-.82-.22-.24-.15-.42-.36-.55-.63-.13-.27-.19-.59-.19-.96s.06-.69.2-.96.31-.49.55-.65.51-.23.82-.23c.28,0,.52.06.72.18s.36.29.47.51v-.61h.56ZM29.03,122.82c.19-.24.28-.57.28-1s-.09-.77-.28-1c-.19-.23-.45-.35-.8-.35s-.61.12-.81.36c-.19.24-.29.58-.29,1s.09.76.29.99.46.35.81.35.61-.12.8-.35Z"/>
      <path class="cls-6" d="M31.73,120.52v1.92c0,.26.05.45.16.55.11.11.26.16.46.16.13,0,.26-.02.38-.06v.48c-.14.05-.31.07-.49.07-.34,0-.6-.09-.79-.28-.19-.19-.28-.47-.28-.84v-2h-.69v-.45h.69v-.9l.57-.2v1.11h1.01v.45h-1.01Z"/>
      <path class="cls-6" d="M36.52,120.07v3.52h-.56v-.64c-.1.22-.26.39-.46.51-.21.12-.45.18-.72.18-.31,0-.59-.07-.82-.22-.24-.15-.42-.36-.55-.63-.13-.27-.19-.59-.19-.96s.07-.69.2-.96.31-.49.55-.65c.24-.15.51-.23.82-.23.28,0,.52.06.72.18s.36.29.47.51v-.61h.56ZM35.68,122.82c.19-.24.28-.57.28-1s-.09-.77-.28-1c-.19-.23-.45-.35-.8-.35s-.62.12-.81.36-.29.58-.29,1,.09.76.29.99.46.35.81.35.61-.12.8-.35Z"/>
      <path class="cls-6" d="M39.24,123.02l.22-.44c.25.21.5.36.76.45.26.09.56.13.9.13.4,0,.71-.08.93-.24.22-.16.33-.38.33-.66,0-.17-.05-.3-.16-.41-.11-.11-.24-.19-.41-.25-.17-.06-.4-.12-.68-.19-.38-.08-.7-.17-.95-.27-.25-.1-.45-.24-.6-.42-.15-.18-.23-.43-.23-.72s.07-.54.22-.75.36-.39.63-.51c.27-.12.59-.18.96-.18s.67.05.97.16c.3.11.55.26.76.47l-.22.44c-.23-.2-.47-.35-.71-.44-.24-.09-.5-.14-.79-.14-.39,0-.69.08-.91.25-.22.17-.33.39-.33.68,0,.25.1.44.29.57s.48.24.88.33c.43.1.77.2,1.01.28.25.09.45.22.61.39.16.18.24.41.24.7s-.07.53-.22.74c-.15.21-.36.38-.64.49-.28.12-.6.17-.98.17-.78,0-1.4-.21-1.86-.63Z"/>
      <path class="cls-6" d="M46.91,120.07v3.52h-.56v-.64c-.1.22-.26.39-.47.51-.21.12-.45.18-.72.18-.31,0-.59-.07-.82-.22-.24-.15-.42-.36-.55-.63-.13-.27-.19-.59-.19-.96s.07-.69.2-.96c.13-.28.31-.49.55-.65.23-.15.51-.23.81-.23.28,0,.52.06.72.18.21.12.36.29.47.51v-.61h.56ZM46.07,122.82c.19-.24.28-.57.28-1s-.09-.77-.28-1c-.19-.23-.45-.35-.8-.35s-.61.12-.81.36c-.19.24-.29.58-.29,1s.1.76.29.99.46.35.81.35.61-.12.8-.35Z"/>
      <path class="cls-6" d="M53.08,121.38v2.21h-.57v-2.18c0-.33-.06-.57-.17-.72-.11-.15-.3-.22-.56-.22-.3,0-.53.1-.7.3-.17.2-.25.47-.25.82v2.01h-.57v-2.18c0-.33-.06-.57-.18-.72s-.3-.23-.56-.23c-.3,0-.53.1-.7.3-.17.2-.26.47-.26.82v2.01h-.57v-2.53c0-.36-.02-.69-.06-.99h.54l.06.62c.1-.22.24-.4.44-.52s.42-.18.68-.18c.28,0,.51.06.69.17.18.11.31.28.39.52.11-.21.26-.38.47-.5.21-.12.44-.19.7-.19.78,0,1.17.46,1.17,1.39Z"/>
      <path class="cls-6" d="M56.74,120.22c.24.15.42.37.55.65.13.28.2.6.2.96s-.07.68-.2.96c-.13.27-.31.48-.55.63s-.51.22-.82.22c-.28,0-.52-.06-.72-.18-.21-.12-.36-.29-.47-.52v2.16h-.57v-4.05c0-.36-.02-.69-.05-.99h.54l.06.68c.1-.24.25-.43.47-.56s.46-.2.75-.2c.31,0,.58.08.82.23ZM56.61,122.82c.19-.23.28-.57.28-.99s-.1-.76-.29-1-.46-.36-.8-.36-.62.12-.8.35c-.19.23-.28.57-.28,1s.09.77.28,1c.19.24.46.35.8.35s.61-.12.8-.35Z"/>
      <path class="cls-6" d="M61.46,120.07v3.52h-.56v-.64c-.1.22-.26.39-.47.51-.21.12-.45.18-.72.18-.31,0-.59-.07-.82-.22-.24-.15-.42-.36-.55-.63-.13-.27-.19-.59-.19-.96s.07-.69.2-.96c.13-.28.31-.49.55-.65.23-.15.51-.23.81-.23.28,0,.52.06.72.18.21.12.36.29.47.51v-.61h.56ZM60.62,122.82c.19-.24.28-.57.28-1s-.09-.77-.28-1c-.19-.23-.45-.35-.8-.35s-.61.12-.81.36c-.19.24-.29.58-.29,1s.1.76.29.99.46.35.81.35.61-.12.8-.35Z"/>
      <path class="cls-6" d="M65.58,121.38v2.21h-.57v-2.18c0-.33-.07-.57-.2-.72-.13-.15-.34-.23-.62-.23-.33,0-.59.1-.78.3-.2.2-.29.47-.29.81v2.02h-.57v-2.53c0-.36-.02-.69-.06-.99h.54l.06.63c.11-.23.27-.41.48-.53.21-.12.46-.19.74-.19.84,0,1.27.46,1.27,1.39Z"/>
      <path class="cls-6" d="M69.68,121.38v2.21h-.57v-2.18c0-.33-.07-.57-.2-.72s-.34-.23-.62-.23c-.33,0-.59.1-.78.3-.2.2-.29.47-.29.81v2.02h-.57v-2.53c0-.36-.02-.69-.06-.99h.54l.06.63c.11-.23.27-.41.48-.53.21-.12.46-.19.73-.19.84,0,1.27.46,1.27,1.39Z"/>
    </g>
    <g class="cls-4">
      <path class="cls-8" d="M15.25,132.79c-.2-.11-.35-.26-.47-.46-.12-.19-.17-.41-.17-.63,0-.21.06-.42.17-.61s.27-.35.46-.47c.2-.12.41-.17.65-.17.22,0,.43.05.63.16.2.11.35.26.47.45s.17.4.17.64-.06.44-.17.63c-.12.19-.27.34-.47.46s-.41.17-.64.17-.44-.05-.64-.16Z"/>
      <g>
        <path class="cls-6" d="M24.36,129.09h-1.74v-.49h4.05v.49h-1.74v4.49h-.58v-4.49Z"/>
        <path class="cls-6" d="M29.87,130.06v3.52h-.56v-.64c-.1.22-.26.39-.46.51-.21.12-.45.18-.72.18-.31,0-.59-.07-.82-.22-.24-.15-.42-.36-.55-.63-.13-.27-.19-.59-.19-.96s.06-.69.2-.96.31-.49.55-.65.51-.23.82-.23c.28,0,.52.06.72.18s.36.29.47.51v-.61h.56ZM29.03,132.81c.19-.24.28-.57.28-1s-.09-.77-.28-1c-.19-.23-.45-.35-.8-.35s-.61.12-.81.36c-.19.24-.29.58-.29,1s.09.76.29.99.46.35.81.35.61-.12.8-.35Z"/>
        <path class="cls-6" d="M31.73,130.51v1.92c0,.26.05.45.16.55.11.11.26.16.46.16.13,0,.26-.02.38-.06v.48c-.14.05-.31.07-.49.07-.34,0-.6-.09-.79-.28-.19-.19-.28-.47-.28-.84v-2h-.69v-.45h.69v-.9l.57-.2v1.11h1.01v.45h-1.01Z"/>
        <path class="cls-6" d="M36.52,130.06v3.52h-.56v-.64c-.1.22-.26.39-.46.51-.21.12-.45.18-.72.18-.31,0-.59-.07-.82-.22-.24-.15-.42-.36-.55-.63-.13-.27-.19-.59-.19-.96s.07-.69.2-.96.31-.49.55-.65c.24-.15.51-.23.82-.23.28,0,.52.06.72.18s.36.29.47.51v-.61h.56ZM35.68,132.81c.19-.24.28-.57.28-1s-.09-.77-.28-1c-.19-.23-.45-.35-.8-.35s-.62.12-.81.36-.29.58-.29,1,.09.76.29.99.46.35.81.35.61-.12.8-.35Z"/>
        <path class="cls-6" d="M43.43,133.58h-.61l-.62-1.66c-.07-.21-.18-.34-.31-.41-.13-.07-.32-.1-.56-.1h-1.25v2.18h-.57v-4.98h1.98c.54,0,.95.12,1.24.36s.43.58.43,1.03c0,.33-.09.6-.26.82s-.42.38-.74.47c.14.02.27.08.37.19.1.1.19.24.26.43l.63,1.69ZM41.45,130.93c.77,0,1.15-.31,1.15-.94,0-.31-.09-.54-.28-.69-.19-.15-.48-.23-.87-.23h-1.37v1.85h1.37Z"/>
        <path class="cls-6" d="M47.4,130.06v3.52h-.56v-.64c-.1.22-.26.39-.47.51-.21.12-.45.18-.72.18-.31,0-.59-.07-.82-.22-.24-.15-.42-.36-.55-.63-.13-.27-.19-.59-.19-.96s.07-.69.2-.96c.13-.28.31-.49.55-.65.23-.15.51-.23.81-.23.28,0,.52.06.72.18.21.12.36.29.47.51v-.61h.56ZM46.56,132.81c.19-.24.28-.57.28-1s-.09-.77-.28-1c-.19-.23-.45-.35-.8-.35s-.61.12-.81.36c-.19.24-.29.58-.29,1s.1.76.29.99.46.35.81.35.61-.12.8-.35Z"/>
        <path class="cls-6" d="M51.6,130.06v3.52h-.56v-.64c-.1.22-.26.39-.47.51-.21.12-.45.18-.72.18-.31,0-.59-.07-.82-.22s-.42-.36-.55-.63c-.13-.27-.19-.59-.19-.96s.07-.69.2-.96c.13-.28.31-.49.55-.65.24-.15.51-.23.82-.23.28,0,.52.06.72.18.21.12.36.29.47.51v-.61h.56ZM50.76,132.81c.19-.24.28-.57.28-1s-.09-.77-.28-1-.45-.35-.8-.35-.62.12-.81.36-.29.58-.29,1,.1.76.29.99.46.35.81.35.61-.12.8-.35Z"/>
        <path class="cls-6" d="M52.48,133.17l.19-.42c.19.15.38.26.58.32s.42.1.66.1c.27,0,.47-.04.61-.14.14-.09.21-.22.21-.4,0-.14-.05-.25-.14-.34-.09-.08-.25-.15-.46-.2l-.6-.14c-.29-.07-.52-.18-.68-.35-.16-.17-.24-.37-.24-.6,0-.31.12-.56.37-.75.25-.19.57-.29.98-.29.25,0,.48.04.7.12.22.08.4.19.55.34l-.19.41c-.33-.27-.69-.41-1.06-.41-.25,0-.45.05-.58.14s-.21.23-.21.4c0,.14.04.26.13.34s.23.15.42.2l.59.15c.33.08.57.19.73.35.16.16.24.36.24.61,0,.3-.12.55-.37.73-.25.18-.58.27-1.01.27-.59,0-1.06-.15-1.41-.46Z"/>
        <path class="cls-6" d="M59.27,130.06v3.52h-.56v-.64c-.1.22-.26.39-.47.51-.21.12-.45.18-.72.18-.31,0-.59-.07-.82-.22s-.42-.36-.55-.63c-.13-.27-.19-.59-.19-.96s.07-.69.2-.96c.13-.28.31-.49.55-.65.24-.15.51-.23.82-.23.28,0,.52.06.72.18.21.12.36.29.47.51v-.61h.56ZM58.43,132.81c.19-.24.28-.57.28-1s-.09-.77-.28-1-.45-.35-.8-.35-.62.12-.81.36-.29.58-.29,1,.1.76.29.99.46.35.81.35.61-.12.8-.35Z"/>
      </g>
    </g>
    <g class="cls-9">
      <path class="cls-1" d="M104.32,96.12c.16-.06.34-.09.53-.09.86,0,1.56.67,1.56,1.5s-.7,1.5-1.56,1.5c-.02,0-.03,0-.05,0-.03,0-.07,0-.11,0,.02-.01.04-.03.05-.05.3-.27.48-.66.48-1.08,0-.65-.43-1.2-1.03-1.41-.18.35-.49.64-.88.77M103.31,97.25c.39-.13.71-.41.88-.77.6.21,1.03.76,1.03,1.41,0,.42-.18.81-.48,1.08-.01.02-.03.03-.05.05-.28.23-.64.37-1.03.37-.03,0-.06,0-.09,0l.09-.36s0-.1-.01-.14M105.22,100.06c0,.83-.7,1.5-1.56,1.5-.18,0-.35-.03-.51-.08.24-.38.38-.92.27-1.52l.14-.56s.06,0,.09,0c.4,0,.75-.14,1.03-.37.02-.01.04-.03.05-.05.02.01.03.03.05.05.26.27.43.63.43,1.03ZM104.35,95.84c0,.09,0,.19-.03.28-.03.13-.07.25-.13.37-.18.35-.49.64-.88.77-.04.01-.08.03-.12.04l-.42-.63-.11-.17c.11-.62-.04-1.05-.32-1.4.09-.17.13-.34.13-.51v-.07l-.05-.13c.11-.03.24-.04.36-.04.87,0,1.57.67,1.57,1.5ZM102.84,100.5c-.01.09-.03.08-.06.16-.17.33-.55.59-1.15.54-.09.17-.2.3-.33.39-.21.16-.47.24-.76.27-.07.18-.18.32-.3.43-.26.22-.64.33-1.1.32-.58.12-1.04-.03-1.4-.41-.44-.14-.74-.38-.86-.72-.7-.14-1.15-.55-1.47-1.11-.19-.07-.36-.21-.49-.39-.19-.25-.31-.59-.36-.86-.31-.42-.45-.87-.43-1.34-.12-.06-.25-.13-.36-.26-.19-.2-.36-.54-.36-1.1s.18-.9.36-1.1c.12-.13.25-.21.36-.26-.02-.47.12-.92.43-1.34.05-.28.17-.61.36-.86.13-.18.3-.31.49-.39.31-.57.77-.98,1.47-1.11.12-.34.42-.59.86-.72.36-.38.82-.54,1.4-.41.47,0,.85.1,1.1.32.13.11.23.25.3.43.29.03.56.11.76.27.17.13.32.32.4.58l.21.57.05.13v.07c0,.17-.04.34-.13.51.27.35.42.78.32,1.4l.11.17.42.63.03.05c.03.1.04.21.04.31,0,.13-.03.27-.1.43.18.13.3.3.38.49.04.11.07.22.09.33,0,.04.01.09.01.14l-.09.36-.14.56c.1.6-.03,1.14-.27,1.52,0,.01-.01.03-.02.04l.29.17c.33.2.29.68-.07.83ZM97.57,96.22c.21,0,.38.16.38.37s-.17.37-.38.37-.38-.17-.38-.37.17-.37.38-.37ZM96.62,96.95c.21,0,.38.16.38.36s-.17.37-.38.37-.38-.17-.38-.37.17-.36.38-.36ZM100.23,97.9c.2.05.41-.07.46-.26.05-.19-.07-.4-.27-.45-.2-.05-.41.06-.46.26-.05.19.07.4.27.45ZM97.38,97.68c.21,0,.38.16.38.37s-.17.37-.38.37-.38-.17-.38-.37.17-.37.38-.37ZM99.3,98.42c.2.05.41-.07.46-.26.05-.19-.07-.39-.27-.44-.2-.05-.41.06-.46.26-.05.19.07.4.27.45ZM97.85,98.72s-.09.02-.14.02c-.1,0-.22-.02-.33-.05-.47-.11-1.02-.38-1.19-.65-.14-.23-.15-.67-.11-1.1.04-.43.13-.86.28-1.04.04-.06.14-.09.25-.12.25-.08.57-.11.86-.08.15.01.29.04.4.08.06.03.12.05.15.09.05.08.07.21.1.37.04.31.04.71.01,1.11-.03.4-.08.79-.16,1.08l-.11.3ZM100.03,99.36c.2.05.41-.07.46-.26.05-.19-.07-.4-.27-.45-.2-.05-.41.07-.46.26-.05.19.07.4.27.45ZM100.99,97.33c0,.3-.06.69-.14,1.08-.08.39-.19.78-.31,1.07-.06.15-.12.27-.19.33-.04.04-.1.04-.17.05-.12.01-.27,0-.41-.02-.29-.05-.58-.16-.8-.29-.1-.06-.18-.11-.21-.18-.1-.21-.07-.64.01-1.07.07-.42.2-.85.4-1.04.24-.22.85-.34,1.33-.34.12,0,.24.01.33.04.04.01.11.04.13.05l.02.32ZM99.85,89.09c-4.19,0-7.6,3.28-7.6,7.31s3.4,7.31,7.6,7.31,7.6-3.27,7.6-7.31-3.4-7.31-7.6-7.31Z"/>
      <path class="cls-1" d="M99.49,49.94c-4.3-.26-5.17-3.98-5.17-7.1h11.32c0,.49-.02.99-.07,1.5"/>
      <path class="cls-3" d="M101.99,41.26c1.81-2.27-1.86-2.2.38-4.54M99.53,41.26c1.81-2.27-1.85-2.2.38-4.54M97.08,41.26c1.81-2.27-1.86-2.2.38-4.54M93.42,51.1h5.66M94.36,44.29c-.14-.48-1.04-1.03-1.91-.8-.73.2-1.11.91-.82,1.85.43,1.41,2.65,1.02,3.79,2.39"/>
      <path class="cls-1" d="M99.8,52.27c1.86-2.86,4.63-3.86,6.76-4.98M100.93,50.84c-.34-2.69,1.02-4.15,2.71-4.71,1.79-.59,3.97-.22,5.33-.89-.05,5.14-4.69,6.98-7.11,6.08"/>
    </g>
  </g>
</svg>