<?xml version="1.0" encoding="UTF-8"?>
<svg id="Layer_1" data-name="Layer 1" xmlns="http://www.w3.org/2000/svg" xmlns:xlink="http://www.w3.org/1999/xlink" viewBox="0 0 127.16 95.22">
  <defs>
    <style>
      .cls-1 {
        stroke-linejoin: round;
      }

      .cls-1, .cls-2, .cls-3 {
        fill: none;
      }

      .cls-1, .cls-3 {
        stroke: #231f20;
        stroke-linecap: round;
        stroke-width: .5px;
      }

      .cls-4 {
        clip-path: url(#clippath);
      }

      .cls-2, .cls-5, .cls-6, .cls-7, .cls-8 {
        stroke-width: 0px;
      }

      .cls-5 {
        fill: #1268b3;
      }

      .cls-9 {
        clip-path: url(#clippath-1);
      }

      .cls-6 {
        fill: #58595b;
      }

      .cls-3 {
        stroke-miterlimit: 10;
      }

      .cls-7 {
        fill: #fff;
      }

      .cls-8 {
        fill: #00aeef;
      }
    </style>
    <clipPath id="clippath">
      <rect class="cls-2" x="4.28" y="3.8" width="122.88" height="79.4"/>
    </clipPath>
    <clipPath id="clippath-1">
      <rect class="cls-2" x="4.28" y="3.8" width="122.88" height="79.4"/>
    </clipPath>
  </defs>
  <rect class="cls-7" width="126.24" height="95.22" rx="13.04" ry="13.04"/>
  <g>
    <g>
      <path class="cls-5" d="M14.93,19.79c-.48-.15-.88-.36-1.21-.63l.44-.94c.35.26.71.45,1.08.58s.79.18,1.24.18c.49,0,.88-.09,1.14-.26.27-.17.41-.42.41-.73,0-.27-.12-.47-.38-.62s-.66-.28-1.24-.41c-.89-.19-1.54-.44-1.95-.75-.41-.31-.61-.75-.61-1.34,0-.42.11-.79.34-1.12.23-.33.55-.58.96-.77.42-.19.9-.28,1.45-.28.5,0,.97.08,1.42.22.45.15.82.36,1.11.62l-.43.94c-.63-.51-1.33-.76-2.1-.76-.46,0-.82.09-1.09.29-.27.19-.4.45-.4.77,0,.28.12.49.36.64.24.15.64.28,1.21.41.59.14,1.08.29,1.45.46.37.16.66.37.86.63.2.26.3.58.3.97,0,.43-.11.8-.34,1.11-.23.32-.55.56-.98.74-.43.17-.93.26-1.51.26-.55,0-1.06-.07-1.54-.22Z"/>
      <path class="cls-5" d="M21.96,19.57c-.51-.3-.9-.72-1.18-1.27s-.42-1.2-.42-1.95.14-1.38.41-1.93.67-.97,1.17-1.26c.51-.29,1.11-.44,1.81-.44s1.29.15,1.8.44c.51.29.9.71,1.17,1.26.27.55.41,1.2.41,1.93s-.14,1.4-.41,1.95-.66.97-1.17,1.27c-.51.3-1.11.45-1.8.45s-1.29-.15-1.8-.45ZM25.29,18.3c.37-.45.55-1.1.55-1.95s-.18-1.48-.55-1.93c-.37-.45-.88-.67-1.54-.67s-1.17.22-1.54.67c-.37.45-.55,1.09-.55,1.94s.18,1.5.55,1.95c.37.45.88.68,1.54.68s1.17-.23,1.54-.68Z"/>
      <path class="cls-5" d="M29.27,19.26c-.5-.5-.75-1.24-.75-2.21v-4.24h1.27v4.31c0,.61.14,1.08.43,1.39.29.32.71.47,1.28.47s.98-.16,1.27-.48.43-.78.43-1.39v-4.31h1.27v4.24c0,.97-.25,1.7-.76,2.21s-1.24.76-2.21.76-1.72-.25-2.22-.75Z"/>
      <path class="cls-5" d="M37.72,13.86h-2.32v-1.06h5.95v1.06h-2.33v6.06h-1.3v-6.06Z"/>
      <path class="cls-5" d="M48.54,12.8v7.12h-1.28v-3.09h-3.65v3.09h-1.27v-7.12h1.27v2.98h3.65v-2.98h1.28Z"/>
      <path class="cls-5" d="M57.75,18.25h-3.48l-.72,1.67h-1.3l3.22-7.12h1.05l3.23,7.12h-1.29l-.71-1.67ZM57.32,17.25l-1.31-3.05-1.31,3.05h2.62Z"/>
      <path class="cls-5" d="M60.61,12.8h4.65v1.03h-3.37v1.95h3.17v1.04h-3.17v3.1h-1.28v-7.12Z"/>
      <path class="cls-5" d="M72.29,19.92h-1.36l-.91-2.37c-.08-.22-.2-.37-.37-.46-.17-.09-.38-.13-.65-.13h-1.29v2.96h-1.28v-7.12h3.05c.81,0,1.42.18,1.84.53s.63.86.63,1.52c0,.47-.12.88-.38,1.21s-.61.57-1.07.71c.42.09.72.38.91.88l.87,2.28ZM69.3,15.96c.49,0,.85-.09,1.08-.27.23-.18.35-.45.35-.82s-.11-.63-.34-.81c-.23-.18-.59-.26-1.08-.26h-1.61v2.16h1.61Z"/>
      <path class="cls-5" d="M73.55,12.8h1.29v7.12h-1.29v-7.12Z"/>
      <path class="cls-5" d="M77.88,19.56c-.52-.3-.92-.72-1.21-1.27s-.42-1.2-.42-1.94.14-1.38.42-1.92.68-.97,1.21-1.27c.52-.3,1.13-.45,1.83-.45.48,0,.93.08,1.35.22.42.15.78.36,1.06.62l-.42.94c-.32-.26-.64-.45-.96-.57-.32-.12-.66-.17-1.02-.17-.69,0-1.22.22-1.59.67-.38.45-.57,1.09-.57,1.92s.19,1.49.56,1.94c.37.45.91.67,1.6.67.36,0,.7-.06,1.02-.17.32-.12.63-.31.96-.57l.42.94c-.28.27-.63.47-1.06.62-.42.15-.88.22-1.35.22-.7,0-1.31-.15-1.83-.45Z"/>
      <path class="cls-5" d="M88.04,18.25h-3.48l-.72,1.67h-1.3l3.22-7.12h1.05l3.23,7.12h-1.29l-.71-1.67ZM87.61,17.25l-1.31-3.05-1.31,3.05h2.62Z"/>
    </g>
    <g>
      <path class="cls-6" d="M14.99,43.22h-1.62v-.74h4.17v.74h-1.63v4.24h-.91v-4.24Z"/>
      <path class="cls-6" d="M18.15,42.48h3.33v.71h-2.45v1.38h2.3v.71h-2.3v1.46h2.45v.71h-3.33v-4.98Z"/>
      <path class="cls-6" d="M25.55,46.29h-2.44l-.5,1.17h-.91l2.25-4.98h.74l2.26,4.98h-.9l-.5-1.17ZM25.25,45.59l-.92-2.13-.92,2.13h1.83Z"/>
    </g>
    <path class="cls-8" d="M14.5,59.51c-.2-.11-.35-.26-.47-.46-.12-.19-.17-.41-.17-.63,0-.21.06-.42.17-.61s.27-.35.46-.47c.2-.12.41-.17.65-.17.22,0,.43.05.63.16.2.11.35.26.47.45.12.19.17.4.17.64s-.06.44-.17.63-.27.34-.47.46-.41.17-.64.17-.44-.05-.64-.16Z"/>
    <g>
      <path class="cls-6" d="M23.61,55.8h-1.74v-.49h4.05v.49h-1.74v4.49h-.58v-4.49Z"/>
      <path class="cls-6" d="M28.97,58.52h-2.58c0,.45.11.79.31,1.02.2.23.5.34.88.34.41,0,.79-.14,1.13-.41l.19.41c-.15.14-.35.26-.59.34s-.49.13-.74.13c-.55,0-.98-.16-1.29-.49s-.47-.77-.47-1.33c0-.36.07-.68.21-.96.14-.28.34-.49.59-.65s.54-.23.86-.23c.47,0,.83.15,1.1.46s.4.73.4,1.26v.1ZM26.76,57.4c-.18.18-.3.43-.35.75h2.05c-.03-.33-.12-.58-.29-.76-.17-.17-.4-.26-.69-.26s-.53.09-.72.27Z"/>
      <path class="cls-6" d="M30.57,57.22v1.92c0,.26.05.45.16.55.11.11.26.16.46.16.13,0,.26-.02.38-.06v.48c-.14.05-.31.07-.49.07-.34,0-.6-.09-.79-.28s-.28-.47-.28-.84v-2h-.69v-.45h.69v-.9l.57-.2v1.11h1.01v.45h-1.01Z"/>
      <path class="cls-6" d="M32.26,55.15h.57v5.15h-.57v-5.15Z"/>
      <path class="cls-6" d="M36.88,58.52h-2.58c0,.45.11.79.31,1.02s.5.34.89.34c.41,0,.79-.14,1.13-.41l.19.41c-.15.14-.35.26-.59.34s-.49.13-.74.13c-.55,0-.98-.16-1.29-.49-.31-.32-.47-.77-.47-1.33,0-.36.07-.68.21-.96.14-.28.34-.49.59-.65.25-.15.54-.23.86-.23.47,0,.83.15,1.1.46.27.31.4.73.4,1.26v.1ZM34.67,57.4c-.18.18-.3.43-.35.75h2.05c-.03-.33-.12-.58-.29-.76-.17-.17-.4-.26-.69-.26s-.53.09-.72.27Z"/>
      <path class="cls-6" d="M40.8,56.78l-1.64,3.84c-.17.4-.39.7-.65.88s-.58.31-.97.38l-.12-.44c.33-.08.58-.17.75-.3.17-.12.31-.31.42-.57l.14-.32-1.49-3.49h.59l1.19,2.91,1.2-2.91h.57Z"/>
    </g>
    <path class="cls-8" d="M14.5,69.51c-.2-.11-.35-.26-.47-.46-.12-.19-.17-.41-.17-.63,0-.21.06-.42.17-.61s.27-.35.46-.47c.2-.12.41-.17.65-.17.22,0,.43.05.63.16.2.11.35.26.47.45.12.19.17.4.17.64s-.06.44-.17.63-.27.34-.47.46-.41.17-.64.17-.44-.05-.64-.16Z"/>
    <g>
      <path class="cls-6" d="M22.4,65.32h.57v4.49h2.5v.49h-3.07v-4.98Z"/>
      <path class="cls-6" d="M29.25,66.78v3.52h-.56v-.64c-.1.22-.26.39-.47.51-.21.12-.45.18-.72.18-.31,0-.59-.07-.82-.22s-.42-.36-.55-.63c-.13-.27-.19-.59-.19-.96s.07-.69.2-.96c.13-.28.31-.49.55-.65s.51-.23.82-.23c.28,0,.52.06.72.18.21.12.36.29.47.51v-.61h.56ZM28.41,69.53c.19-.24.28-.57.28-1s-.09-.77-.28-1-.45-.35-.8-.35-.62.12-.81.36-.29.58-.29,1,.09.76.29.99.46.35.81.35.61-.12.8-.35Z"/>
      <path class="cls-6" d="M33.45,66.78v3.52h-.56v-.64c-.1.22-.26.39-.47.51-.21.12-.45.18-.72.18-.31,0-.59-.07-.82-.22s-.42-.36-.55-.63c-.13-.27-.19-.59-.19-.96s.07-.69.2-.96c.13-.28.31-.49.55-.65s.51-.23.82-.23c.28,0,.52.06.72.18.21.12.36.29.47.51v-.61h.56ZM32.61,69.53c.19-.24.28-.57.28-1s-.09-.77-.28-1-.45-.35-.8-.35-.62.12-.81.36-.29.58-.29,1,.09.76.29.99.46.35.81.35.61-.12.8-.35Z"/>
      <path class="cls-6" d="M37.68,66.78v3.49c0,.52-.13.92-.4,1.19-.27.27-.66.4-1.19.4s-1-.12-1.39-.36l.1-.46c.22.13.43.22.63.27.2.06.42.08.65.08.34,0,.6-.09.77-.27s.26-.45.26-.8v-.83c-.11.22-.26.4-.47.52-.21.12-.45.18-.74.18-.31,0-.58-.07-.82-.22s-.43-.35-.56-.62c-.13-.27-.2-.57-.2-.92s.07-.65.2-.92c.13-.27.32-.47.56-.62s.51-.22.82-.22c.28,0,.52.06.73.18s.37.29.47.51v-.61h.57ZM36.83,69.38c.19-.23.29-.54.29-.93s-.1-.71-.29-.93c-.19-.23-.46-.34-.8-.34s-.62.11-.82.34c-.2.23-.3.54-.3.93s.1.71.3.93c.2.23.47.34.82.34s.61-.11.8-.34Z"/>
      <path class="cls-6" d="M41.72,68.52h-2.58c0,.45.11.79.31,1.02.2.23.5.34.88.34.41,0,.79-.14,1.13-.41l.19.41c-.15.14-.35.26-.59.34s-.49.13-.74.13c-.55,0-.98-.16-1.29-.49s-.47-.77-.47-1.33c0-.36.07-.68.21-.96.14-.28.34-.49.59-.65s.54-.23.86-.23c.47,0,.83.15,1.1.46s.4.73.4,1.26v.1ZM39.51,67.4c-.18.18-.3.43-.35.75h2.05c-.03-.33-.12-.58-.29-.76-.17-.17-.4-.26-.69-.26s-.53.09-.72.27Z"/>
      <path class="cls-6" d="M44.54,66.74v.52c-.12-.04-.25-.06-.38-.06-.34,0-.59.11-.76.32-.17.21-.25.47-.25.77v2.01h-.57v-2.53c0-.36-.02-.69-.06-.99h.54l.06.65c.09-.24.23-.42.43-.55s.42-.19.67-.19c.12,0,.22.01.32.04Z"/>
    </g>
    <g class="cls-4">
      <path class="cls-8" d="M14.5,79.51c-.2-.11-.35-.26-.47-.46-.12-.19-.17-.41-.17-.63,0-.21.06-.42.17-.61s.27-.35.46-.47c.2-.12.41-.17.65-.17.22,0,.43.05.63.16.2.11.35.26.47.45.12.19.17.4.17.64s-.06.44-.17.63-.27.34-.47.46-.41.17-.64.17-.44-.05-.64-.16Z"/>
      <g>
        <path class="cls-6" d="M23.61,75.8h-1.74v-.49h4.05v.49h-1.74v4.49h-.58v-4.49Z"/>
        <path class="cls-6" d="M28.97,78.52h-2.58c0,.45.11.79.31,1.02.2.23.5.34.88.34.41,0,.79-.14,1.13-.41l.19.41c-.15.14-.35.26-.59.34s-.49.13-.74.13c-.55,0-.98-.16-1.29-.49s-.47-.77-.47-1.33c0-.36.07-.68.21-.96.14-.28.34-.49.59-.65s.54-.23.86-.23c.47,0,.83.15,1.1.46s.4.73.4,1.26v.1ZM26.76,77.4c-.18.18-.3.43-.35.75h2.05c-.03-.33-.12-.58-.29-.76-.17-.17-.4-.26-.69-.26s-.53.09-.72.27Z"/>
        <path class="cls-6" d="M32.93,76.77v3.52h-.56v-.64c-.1.22-.26.39-.46.51-.21.12-.45.18-.72.18-.31,0-.59-.07-.82-.22-.24-.15-.42-.36-.55-.63-.13-.27-.19-.59-.19-.96s.07-.69.2-.96.31-.49.55-.65c.24-.15.51-.23.82-.23.28,0,.52.06.72.18s.36.29.47.51v-.61h.56ZM32.09,79.52c.19-.24.28-.57.28-1s-.09-.77-.28-1c-.19-.23-.45-.35-.8-.35s-.61.12-.81.36c-.19.24-.29.58-.29,1s.1.76.29.99.46.35.81.35.61-.12.8-.35Z"/>
        <path class="cls-6" d="M37.45,79.21h-.76v1.08h-.57v-1.08h-2.3v-.43l2.4-3.47h.47v3.42h.76v.48ZM36.12,78.73v-2.45l-1.7,2.45h1.7Z"/>
        <path class="cls-6" d="M41.44,80.29l-2.57-2.37v2.37h-.57v-4.98h.57v2.29l2.45-2.29h.74l-2.6,2.43,2.74,2.55h-.75Z"/>
        <path class="cls-6" d="M43.3,75.28v.64h-.69v-.64h.69ZM42.67,76.77h.57v3.52h-.57v-3.52Z"/>
        <path class="cls-6" d="M47.43,75.14v5.15h-.56v-.64c-.1.22-.26.39-.47.51-.21.12-.45.18-.72.18-.31,0-.58-.08-.82-.23-.24-.15-.42-.37-.55-.65-.13-.28-.2-.6-.2-.96s.06-.68.19-.96c.13-.27.31-.48.55-.63.24-.15.51-.22.82-.22.28,0,.52.06.72.18.21.12.36.29.46.5v-2.23h.57ZM46.59,79.52c.19-.24.28-.57.28-1s-.09-.76-.28-1-.45-.35-.8-.35-.62.12-.81.35-.29.56-.29.99.1.77.29,1.01.46.36.81.36.61-.12.8-.35Z"/>
        <path class="cls-6" d="M51.31,79.85v.45h-2.98v-.39l2.22-2.68h-2.14v-.45h2.82v.41l-2.2,2.66h2.28Z"/>
      </g>
    </g>
    <g class="cls-9">
      <path class="cls-1" d="M97.75,47.99c-4.3-.26-5.17-3.98-5.17-7.1h11.32c0,.49-.02.99-.07,1.5"/>
      <path class="cls-3" d="M100.24,39.31c1.81-2.27-1.86-2.2.38-4.54M97.79,39.31c1.81-2.27-1.85-2.2.38-4.54M95.33,39.31c1.81-2.27-1.86-2.2.38-4.54M91.67,49.15h5.66M92.62,42.34c-.14-.48-1.04-1.03-1.91-.8-.73.2-1.11.91-.82,1.85.43,1.41,2.65,1.02,3.79,2.39"/>
      <path class="cls-1" d="M98.05,50.32c1.86-2.86,4.63-3.86,6.76-4.98M99.18,48.89c-.34-2.69,1.02-4.15,2.71-4.72,1.79-.59,3.97-.22,5.33-.89-.05,5.14-4.69,6.98-7.11,6.08"/>
    </g>
  </g>
</svg>