<?xml version="1.0" encoding="UTF-8"?>
<svg id="Layer_1" data-name="Layer 1" xmlns="http://www.w3.org/2000/svg" xmlns:xlink="http://www.w3.org/1999/xlink" viewBox="0 0 130.68 172.73">
  <defs>
    <style>
      .cls-1 {
        stroke-linejoin: round;
      }

      .cls-1, .cls-2, .cls-3 {
        fill: none;
      }

      .cls-1, .cls-3 {
        stroke: #231f20;
        stroke-linecap: round;
        stroke-width: .5px;
      }

      .cls-4 {
        clip-path: url(#clippath);
      }

      .cls-2, .cls-5, .cls-6, .cls-7, .cls-8 {
        stroke-width: 0px;
      }

      .cls-5 {
        fill: #1268b3;
      }

      .cls-9 {
        clip-path: url(#clippath-1);
      }

      .cls-10 {
        clip-path: url(#clippath-2);
      }

      .cls-6 {
        fill: #58595b;
      }

      .cls-3 {
        stroke-miterlimit: 10;
      }

      .cls-7 {
        fill: #fff;
      }

      .cls-8 {
        fill: #00aeef;
      }
    </style>
    <clipPath id="clippath">
      <rect class="cls-2" x="7.8" y="8.1" width="122.88" height="152.08"/>
    </clipPath>
    <clipPath id="clippath-1">
      <rect class="cls-2" x="7.8" y="8.1" width="122.88" height="152.08"/>
    </clipPath>
    <clipPath id="clippath-2">
      <rect class="cls-2" x="7.8" y="8.1" width="122.88" height="152.08"/>
    </clipPath>
  </defs>
  <rect class="cls-7" width="130.68" height="172.73" rx="13.04" ry="13.04"/>
  <g>
    <g>
      <path class="cls-5" d="M24.51,17.1v7.12h-1.14v-4.42l-1.89,4.42h-.85l-1.9-4.37v4.37h-1.14v-7.12h1.02l2.45,5.57,2.43-5.57h1.02Z"/>
      <path class="cls-5" d="M26.17,17.1h1.29v7.12h-1.29v-7.12Z"/>
      <path class="cls-5" d="M29.1,17.1h2.62c1.17,0,2.07.31,2.71.93.64.62.96,1.49.96,2.62s-.32,2.01-.96,2.64c-.64.62-1.55.93-2.71.93h-2.62v-7.12ZM31.64,23.17c1.64,0,2.46-.84,2.46-2.52s-.82-2.5-2.46-2.5h-1.25v5.02h1.25Z"/>
      <path class="cls-5" d="M36.8,17.1h2.62c1.17,0,2.07.31,2.71.93.64.62.96,1.49.96,2.62s-.32,2.01-.96,2.64c-.64.62-1.55.93-2.71.93h-2.62v-7.12ZM39.35,23.17c1.64,0,2.46-.84,2.46-2.52s-.82-2.5-2.46-2.5h-1.25v5.02h1.25Z"/>
      <path class="cls-5" d="M44.52,17.1h1.29v6.06h3.33v1.06h-4.62v-7.12Z"/>
      <path class="cls-5" d="M50.21,17.1h4.76v1.02h-3.5v1.97h3.29v1.02h-3.29v2.09h3.5v1.02h-4.76v-7.12Z"/>
      <path class="cls-5" d="M59.1,17.1h4.76v1.02h-3.5v1.97h3.29v1.02h-3.29v2.09h3.5v1.02h-4.76v-7.12Z"/>
      <path class="cls-5" d="M69.77,22.55h-3.48l-.72,1.67h-1.3l3.22-7.12h1.05l3.23,7.12h-1.29l-.71-1.67ZM69.34,21.55l-1.31-3.05-1.31,3.05h2.62Z"/>
      <path class="cls-5" d="M73.42,24.09c-.48-.15-.88-.36-1.21-.63l.44-.94c.35.26.71.45,1.08.58s.79.18,1.24.18c.49,0,.88-.09,1.14-.26.27-.17.41-.42.41-.73,0-.27-.12-.47-.38-.62s-.66-.28-1.24-.41c-.89-.19-1.54-.44-1.95-.75-.41-.31-.61-.75-.61-1.34,0-.42.11-.79.34-1.12.23-.33.55-.58.96-.77.42-.19.9-.28,1.45-.28.5,0,.97.08,1.42.22.45.15.82.36,1.11.62l-.43.94c-.63-.51-1.33-.76-2.1-.76-.46,0-.82.09-1.09.29-.27.19-.4.45-.4.77,0,.28.12.49.36.64.24.15.64.28,1.21.41.59.14,1.08.29,1.45.46.37.16.66.37.86.63.2.26.3.58.3.97,0,.43-.11.8-.34,1.11-.23.32-.55.56-.98.74-.43.17-.93.26-1.51.26-.55,0-1.06-.07-1.54-.22Z"/>
      <path class="cls-5" d="M80.62,18.16h-2.32v-1.06h5.95v1.06h-2.33v6.06h-1.3v-6.06Z"/>
    </g>
    <g>
      <path class="cls-6" d="M18.5,47.51h-1.62v-.74h4.17v.74h-1.63v4.24h-.91v-4.24Z"/>
      <path class="cls-6" d="M21.67,46.77h3.33v.71h-2.45v1.38h2.3v.71h-2.3v1.46h2.45v.71h-3.33v-4.98Z"/>
      <path class="cls-6" d="M29.07,50.58h-2.44l-.5,1.17h-.91l2.25-4.98h.73l2.26,4.98h-.9l-.5-1.17ZM28.76,49.88l-.92-2.13-.92,2.13h1.83Z"/>
    </g>
    <path class="cls-8" d="M18.01,63.8c-.2-.11-.35-.26-.47-.46-.12-.19-.17-.41-.17-.63,0-.21.06-.42.17-.61.11-.19.27-.35.46-.47.2-.12.41-.17.65-.17.22,0,.43.05.63.16.2.11.35.26.47.45s.17.4.17.64-.06.44-.17.63-.27.34-.47.46c-.2.11-.41.17-.64.17s-.44-.05-.64-.16Z"/>
    <g>
      <path class="cls-6" d="M27.12,60.1h-1.74v-.49h4.05v.49h-1.74v4.49h-.58v-4.49Z"/>
      <path class="cls-6" d="M32.48,62.81h-2.58c0,.45.11.79.31,1.02.2.23.5.34.89.34.41,0,.79-.14,1.13-.41l.19.41c-.15.14-.35.26-.59.34s-.49.13-.74.13c-.55,0-.98-.16-1.29-.49-.31-.32-.47-.77-.47-1.33,0-.36.07-.68.21-.96s.34-.49.59-.65c.25-.15.54-.23.86-.23.47,0,.83.15,1.1.46.27.31.4.73.4,1.26v.1ZM30.27,61.69c-.18.18-.3.43-.35.75h2.05c-.03-.33-.12-.58-.29-.76-.17-.17-.4-.26-.69-.26s-.53.09-.72.27Z"/>
      <path class="cls-6" d="M34.08,61.52v1.92c0,.26.05.45.16.55.11.11.26.16.46.16.13,0,.26-.02.38-.06v.48c-.14.05-.31.07-.49.07-.34,0-.6-.09-.79-.28-.19-.19-.28-.47-.28-.84v-2h-.69v-.45h.69v-.9l.57-.2v1.11h1.01v.45h-1.01Z"/>
      <path class="cls-6" d="M35.78,59.44h.57v5.15h-.57v-5.15Z"/>
      <path class="cls-6" d="M40.39,62.81h-2.58c0,.45.11.79.31,1.02.2.23.5.34.89.34.41,0,.79-.14,1.13-.41l.19.41c-.15.14-.35.26-.59.34s-.49.13-.74.13c-.55,0-.98-.16-1.29-.49-.31-.32-.47-.77-.47-1.33,0-.36.07-.68.21-.96s.34-.49.59-.65c.25-.15.54-.23.86-.23.47,0,.83.15,1.1.46.27.31.4.73.4,1.26v.1ZM38.18,61.69c-.18.18-.3.43-.35.75h2.05c-.03-.33-.12-.58-.29-.76-.17-.17-.4-.26-.69-.26s-.53.09-.72.27Z"/>
      <path class="cls-6" d="M44.31,61.07l-1.65,3.84c-.17.4-.39.7-.65.88-.26.19-.58.31-.97.38l-.12-.44c.33-.08.58-.17.75-.3.17-.12.31-.31.42-.57l.14-.32-1.49-3.49h.6l1.19,2.91,1.2-2.91h.57Z"/>
    </g>
    <path class="cls-8" d="M18.01,73.81c-.2-.11-.35-.26-.47-.46-.12-.19-.17-.41-.17-.63,0-.21.06-.42.17-.61.11-.19.27-.35.46-.47.2-.12.41-.17.65-.17.22,0,.43.05.63.16.2.11.35.26.47.45s.17.4.17.64-.06.44-.17.63-.27.34-.47.46c-.2.11-.41.17-.64.17s-.44-.05-.64-.16Z"/>
    <g>
      <path class="cls-6" d="M27.12,70.1h-1.74v-.49h4.05v.49h-1.74v4.49h-.58v-4.49Z"/>
      <path class="cls-6" d="M32.64,71.07v3.52h-.56v-.64c-.1.22-.26.39-.47.51-.21.12-.45.18-.72.18-.31,0-.59-.07-.82-.22-.24-.15-.42-.36-.55-.63-.13-.27-.19-.59-.19-.96s.07-.69.2-.96c.13-.28.31-.49.55-.65.24-.15.51-.23.82-.23.28,0,.52.06.72.18.21.12.36.29.47.51v-.61h.56ZM31.8,73.82c.19-.24.28-.57.28-1s-.09-.77-.28-1c-.19-.23-.45-.35-.8-.35s-.61.12-.81.36c-.19.24-.29.58-.29,1s.1.76.29.99.46.35.81.35.61-.12.8-.35Z"/>
      <path class="cls-6" d="M34.49,71.52v1.92c0,.26.05.45.16.55.11.11.26.16.46.16.13,0,.26-.02.38-.06v.48c-.14.05-.31.07-.49.07-.34,0-.6-.09-.79-.28-.19-.19-.28-.47-.28-.84v-2h-.69v-.45h.69v-.9l.57-.2v1.11h1.01v.45h-1.01Z"/>
      <path class="cls-6" d="M39.29,71.07v3.52h-.56v-.64c-.1.22-.26.39-.47.51-.21.12-.45.18-.72.18-.31,0-.59-.07-.82-.22-.24-.15-.42-.36-.55-.63-.13-.27-.19-.59-.19-.96s.07-.69.2-.96c.13-.28.31-.49.55-.65.24-.15.51-.23.82-.23.28,0,.52.06.72.18.21.12.36.29.47.51v-.61h.56ZM38.45,73.82c.19-.24.28-.57.28-1s-.09-.77-.28-1c-.19-.23-.45-.35-.8-.35s-.61.12-.81.36c-.19.24-.29.58-.29,1s.1.76.29.99.46.35.81.35.61-.12.8-.35Z"/>
      <path class="cls-6" d="M43.49,70.1h-1.74v-.49h4.05v.49h-1.74v4.49h-.58v-4.49Z"/>
      <path class="cls-6" d="M48.84,72.82h-2.58c0,.45.11.79.31,1.02.2.23.5.34.89.34.41,0,.79-.14,1.13-.41l.19.41c-.15.14-.35.26-.59.34s-.49.13-.74.13c-.55,0-.98-.16-1.29-.49-.31-.32-.47-.77-.47-1.33,0-.36.07-.68.21-.96s.34-.49.59-.65c.25-.15.54-.23.86-.23.47,0,.83.15,1.1.46.27.31.4.73.4,1.26v.1ZM46.63,71.7c-.18.18-.3.43-.35.75h2.05c-.03-.33-.12-.58-.29-.76-.17-.17-.4-.26-.69-.26s-.53.09-.72.27Z"/>
      <path class="cls-6" d="M52.8,71.07v3.52h-.56v-.64c-.1.22-.26.39-.47.51-.21.12-.45.18-.72.18-.31,0-.59-.07-.82-.22-.24-.15-.42-.36-.55-.63-.13-.27-.19-.59-.19-.96s.07-.69.2-.96c.13-.28.31-.49.55-.65.24-.15.51-.23.82-.23.28,0,.52.06.72.18.21.12.36.29.47.51v-.61h.56ZM51.96,73.82c.19-.24.28-.57.28-1s-.09-.77-.28-1c-.19-.23-.45-.35-.8-.35s-.61.12-.81.36c-.19.24-.29.58-.29,1s.1.76.29.99.46.35.81.35.61-.12.8-.35Z"/>
    </g>
    <g>
      <path class="cls-6" d="M18.31,92.84c-.37-.21-.65-.51-.84-.89-.2-.38-.29-.84-.29-1.35s.1-.96.29-1.35c.2-.38.48-.68.84-.89.37-.21.79-.31,1.28-.31.34,0,.65.05.95.16.3.11.54.25.74.44l-.29.66c-.22-.18-.45-.31-.67-.4s-.46-.12-.71-.12c-.48,0-.85.16-1.12.47s-.4.76-.4,1.34.13,1.04.39,1.35.63.47,1.12.47c.25,0,.49-.04.71-.12.22-.08.44-.21.67-.4l.29.66c-.2.19-.44.33-.74.44-.3.11-.61.16-.95.16-.49,0-.92-.11-1.28-.32Z"/>
      <path class="cls-6" d="M22.99,92.85c-.36-.21-.63-.5-.83-.89s-.29-.84-.29-1.36.1-.97.29-1.35.47-.68.82-.89c.36-.21.78-.31,1.26-.31s.91.1,1.26.31c.36.21.63.5.82.89s.28.84.28,1.35-.1.98-.29,1.36-.46.68-.82.89c-.35.21-.77.31-1.26.31s-.9-.1-1.26-.31ZM25.32,91.96c.26-.32.38-.77.38-1.37s-.13-1.04-.38-1.35c-.26-.32-.62-.47-1.08-.47s-.82.16-1.08.47c-.26.31-.38.77-.38,1.36s.13,1.05.38,1.37c.26.32.62.48,1.08.48s.82-.16,1.08-.48Z"/>
      <path class="cls-6" d="M27.53,88.11h3.25v.72h-2.36v1.36h2.22v.73h-2.22v2.17h-.9v-4.98Z"/>
      <path class="cls-6" d="M31.54,88.11h3.25v.72h-2.36v1.36h2.22v.73h-2.22v2.17h-.9v-4.98Z"/>
      <path class="cls-6" d="M35.54,88.11h3.33v.71h-2.45v1.38h2.3v.71h-2.3v1.46h2.45v.71h-3.33v-4.98Z"/>
      <path class="cls-6" d="M39.71,88.11h3.33v.71h-2.45v1.38h2.3v.71h-2.3v1.46h2.45v.71h-3.33v-4.98Z"/>
    </g>
    <path class="cls-8" d="M18.01,105.15c-.2-.11-.35-.26-.47-.46-.12-.19-.17-.41-.17-.63,0-.21.06-.42.17-.61.11-.19.27-.35.46-.47.2-.12.41-.17.65-.17.22,0,.43.05.63.16.2.11.35.26.47.45s.17.4.17.64-.06.44-.17.63-.27.34-.47.46c-.2.11-.41.17-.64.17s-.44-.05-.64-.16Z"/>
    <g>
      <path class="cls-6" d="M27.12,101.44h-1.74v-.49h4.05v.49h-1.74v4.49h-.58v-4.49Z"/>
      <path class="cls-6" d="M32.64,102.41v3.52h-.56v-.64c-.1.22-.26.39-.47.51-.21.12-.45.18-.72.18-.31,0-.59-.07-.82-.22-.24-.15-.42-.36-.55-.63-.13-.27-.19-.59-.19-.96s.07-.69.2-.96c.13-.28.31-.49.55-.65.24-.15.51-.23.82-.23.28,0,.52.06.72.18.21.12.36.29.47.51v-.61h.56ZM31.8,105.16c.19-.24.28-.57.28-1s-.09-.77-.28-1c-.19-.23-.45-.35-.8-.35s-.61.12-.81.36c-.19.24-.29.58-.29,1s.1.76.29.99.46.35.81.35.61-.12.8-.35Z"/>
      <path class="cls-6" d="M34.49,102.86v1.92c0,.26.05.45.16.55.11.11.26.16.46.16.13,0,.26-.02.38-.06v.48c-.14.05-.31.07-.49.07-.34,0-.6-.09-.79-.28-.19-.19-.28-.47-.28-.84v-2h-.69v-.45h.69v-.9l.57-.2v1.11h1.01v.45h-1.01Z"/>
      <path class="cls-6" d="M39.29,102.41v3.52h-.56v-.64c-.1.22-.26.39-.47.51-.21.12-.45.18-.72.18-.31,0-.59-.07-.82-.22-.24-.15-.42-.36-.55-.63-.13-.27-.19-.59-.19-.96s.07-.69.2-.96c.13-.28.31-.49.55-.65.24-.15.51-.23.82-.23.28,0,.52.06.72.18.21.12.36.29.47.51v-.61h.56ZM38.45,105.16c.19-.24.28-.57.28-1s-.09-.77-.28-1c-.19-.23-.45-.35-.8-.35s-.61.12-.81.36c-.19.24-.29.58-.29,1s.1.76.29.99.46.35.81.35.61-.12.8-.35Z"/>
      <path class="cls-6" d="M43.18,105.68c-.35-.21-.62-.5-.8-.89s-.28-.84-.28-1.36.09-.97.28-1.35c.19-.38.45-.67.8-.88.35-.21.76-.31,1.23-.31.35,0,.66.05.95.16.29.11.54.26.75.47l-.22.44c-.24-.21-.47-.35-.7-.44s-.49-.13-.77-.13c-.55,0-.97.18-1.27.53-.3.35-.45.86-.45,1.51s.15,1.17.45,1.52c.3.36.72.54,1.27.54.28,0,.54-.04.77-.13.23-.09.47-.24.7-.44l.22.44c-.21.21-.46.37-.75.47-.29.11-.6.16-.95.16-.47,0-.88-.1-1.23-.31Z"/>
      <path class="cls-6" d="M47.51,105.76c-.25-.15-.45-.36-.58-.64s-.21-.6-.21-.97.07-.69.21-.97.33-.49.58-.64.54-.22.88-.22.62.08.88.22.45.36.58.64.21.6.21.97-.07.69-.21.97-.33.49-.58.64-.54.22-.88.22-.62-.07-.88-.22ZM49.19,105.17c.19-.23.28-.57.28-1.01s-.1-.76-.29-1-.46-.35-.8-.35-.61.12-.81.35-.29.57-.29,1,.09.78.28,1.01c.19.23.46.35.81.35s.62-.12.81-.35Z"/>
      <path class="cls-6" d="M51.85,101.4c-.1.1-.16.29-.16.54v.47h.86v.45h-.86v3.07h-.57v-3.07h-.69v-.45h.69v-.54c0-.37.09-.65.28-.84.18-.19.44-.28.77-.28.16,0,.32.02.48.06v.48c-.13-.04-.25-.06-.36-.06-.19,0-.33.05-.44.16Z"/>
      <path class="cls-6" d="M54.21,101.4c-.1.1-.16.29-.16.54v.47h.86v.45h-.86v3.07h-.57v-3.07h-.69v-.45h.69v-.54c0-.37.09-.65.28-.84.18-.19.44-.28.77-.28.16,0,.32.02.48.06v.48c-.13-.04-.25-.06-.36-.06-.19,0-.33.05-.44.16Z"/>
      <path class="cls-6" d="M58.57,104.15h-2.58c0,.45.11.79.31,1.02.2.23.5.34.89.34.41,0,.79-.14,1.13-.41l.19.41c-.15.14-.35.26-.59.34s-.49.13-.74.13c-.55,0-.98-.16-1.29-.49-.31-.32-.47-.77-.47-1.33,0-.36.07-.68.21-.96s.34-.49.59-.65c.25-.15.54-.23.86-.23.47,0,.83.15,1.1.46.27.31.4.73.4,1.26v.1ZM56.36,103.03c-.18.18-.3.43-.35.75h2.05c-.03-.33-.12-.58-.29-.76-.17-.17-.4-.26-.69-.26s-.53.09-.72.27Z"/>
      <path class="cls-6" d="M62.38,104.15h-2.58c0,.45.11.79.31,1.02.2.23.5.34.89.34.41,0,.79-.14,1.13-.41l.19.41c-.15.14-.35.26-.59.34s-.49.13-.74.13c-.55,0-.98-.16-1.29-.49-.31-.32-.47-.77-.47-1.33,0-.36.07-.68.21-.96s.34-.49.59-.65c.25-.15.54-.23.86-.23.47,0,.83.15,1.1.46.27.31.4.73.4,1.26v.1ZM60.17,103.03c-.18.18-.3.43-.35.75h2.05c-.03-.33-.12-.58-.29-.76-.17-.17-.4-.26-.69-.26s-.53.09-.72.27Z"/>
      <path class="cls-6" d="M69.08,103.34v2.31c-.2.1-.45.19-.77.25-.32.06-.64.09-.97.09-.5,0-.92-.1-1.28-.3-.36-.2-.63-.5-.82-.88-.19-.38-.28-.84-.28-1.37s.09-.98.28-1.36c.19-.38.46-.67.81-.88.35-.2.77-.3,1.25-.3.35,0,.67.05.96.16.29.11.54.26.75.47l-.22.44c-.24-.21-.48-.35-.71-.44-.23-.09-.49-.14-.78-.14-.56,0-1,.18-1.3.53-.3.35-.45.86-.45,1.52s.15,1.19.46,1.54c.31.35.76.53,1.34.53.42,0,.81-.07,1.2-.2v-1.52h-1.24v-.46h1.76Z"/>
      <path class="cls-6" d="M72.14,102.37v.52c-.12-.04-.25-.06-.38-.06-.34,0-.59.11-.76.32-.17.21-.25.47-.25.77v2.01h-.57v-2.53c0-.36-.02-.69-.06-.99h.54l.06.65c.09-.24.23-.42.43-.55s.42-.19.67-.19c.12,0,.22.01.32.04Z"/>
      <path class="cls-6" d="M75.76,102.41v3.52h-.56v-.64c-.1.22-.26.39-.46.51-.21.12-.45.18-.72.18-.31,0-.59-.07-.82-.22-.24-.15-.42-.36-.55-.63-.13-.27-.19-.59-.19-.96s.07-.69.2-.96.31-.49.55-.65c.24-.15.51-.23.82-.23.28,0,.52.06.72.18s.36.29.47.51v-.61h.56ZM74.92,105.16c.19-.24.28-.57.28-1s-.09-.77-.28-1c-.19-.23-.45-.35-.8-.35s-.61.12-.81.36c-.19.24-.29.58-.29,1s.1.76.29.99.46.35.81.35.61-.12.8-.35Z"/>
      <path class="cls-6" d="M79.88,103.72v2.21h-.57v-2.18c0-.33-.07-.57-.2-.72s-.34-.23-.62-.23c-.33,0-.59.1-.78.3-.2.2-.29.47-.29.81v2.02h-.57v-2.53c0-.36-.02-.69-.06-.99h.54l.06.63c.11-.23.27-.41.48-.53.21-.12.46-.19.74-.19.84,0,1.27.46,1.27,1.39Z"/>
      <path class="cls-6" d="M84.05,100.78v5.15h-.56v-.64c-.1.22-.26.39-.46.51-.21.12-.45.18-.72.18-.31,0-.58-.08-.82-.23-.24-.15-.42-.37-.55-.65-.13-.28-.2-.6-.2-.96s.06-.68.19-.96c.13-.27.31-.48.55-.63s.51-.22.82-.22c.28,0,.52.06.72.18s.36.29.46.5v-2.23h.57ZM83.21,105.16c.19-.24.28-.57.28-1s-.09-.76-.28-1c-.19-.24-.45-.35-.8-.35s-.61.12-.81.35c-.19.23-.29.56-.29.99s.1.77.29,1.01c.19.24.46.36.81.36s.61-.12.8-.35Z"/>
    </g>
    <g>
      <path class="cls-6" d="M17.33,119.45h3.25v.72h-2.36v1.36h2.22v.73h-2.22v2.17h-.9v-4.98Z"/>
      <path class="cls-6" d="M22.23,124.19c-.36-.21-.63-.5-.83-.89s-.29-.84-.29-1.36.1-.97.29-1.35.47-.68.82-.89c.36-.21.78-.31,1.26-.31s.91.1,1.26.31c.36.21.63.5.82.89s.28.84.28,1.35-.1.98-.29,1.36-.46.68-.82.89c-.35.21-.77.31-1.26.31s-.9-.1-1.26-.31ZM24.57,123.3c.26-.32.38-.77.38-1.37s-.13-1.04-.38-1.35c-.26-.32-.62-.47-1.08-.47s-.82.16-1.08.47c-.26.31-.38.77-.38,1.36s.13,1.05.38,1.37c.26.32.62.48,1.08.48s.82-.16,1.08-.48Z"/>
      <path class="cls-6" d="M27.73,124.19c-.36-.21-.63-.5-.83-.89s-.29-.84-.29-1.36.1-.97.29-1.35.47-.68.82-.89c.36-.21.78-.31,1.26-.31s.91.1,1.26.31c.36.21.63.5.82.89s.28.84.28,1.35-.1.98-.29,1.36-.46.68-.82.89c-.35.21-.77.31-1.26.31s-.9-.1-1.26-.31ZM30.07,123.3c.26-.32.38-.77.38-1.37s-.13-1.04-.38-1.35c-.26-.32-.62-.47-1.08-.47s-.82.16-1.08.47c-.26.31-.38.77-.38,1.36s.13,1.05.38,1.37c.26.32.62.48,1.08.48s.82-.16,1.08-.48Z"/>
      <path class="cls-6" d="M32.28,119.45h1.83c.82,0,1.45.22,1.9.65s.68,1.05.68,1.83-.23,1.41-.68,1.84-1.08.65-1.9.65h-1.83v-4.98ZM34.06,123.7c1.15,0,1.72-.59,1.72-1.76s-.57-1.75-1.72-1.75h-.88v3.51h.88Z"/>
      <path class="cls-6" d="M38.23,124.34c-.33-.1-.62-.25-.85-.44l.31-.66c.24.18.5.32.76.4.26.09.55.13.86.13.35,0,.61-.06.8-.18s.28-.29.28-.51c0-.19-.09-.33-.26-.43-.18-.1-.46-.2-.86-.28-.63-.13-1.08-.31-1.36-.52-.28-.21-.43-.53-.43-.94,0-.29.08-.55.24-.78.16-.23.38-.41.68-.54.29-.13.63-.2,1.01-.2.35,0,.68.05,1,.16.32.11.57.25.77.44l-.3.66c-.44-.35-.93-.53-1.47-.53-.32,0-.58.07-.76.2-.19.13-.28.31-.28.54,0,.2.08.35.25.45.17.1.45.2.85.29.42.1.75.2,1.02.32s.46.26.6.44.21.41.21.68c0,.3-.08.56-.24.78-.16.22-.39.39-.69.51-.3.12-.65.18-1.06.18-.38,0-.74-.05-1.07-.15Z"/>
    </g>
    <path class="cls-8" d="M18.01,136.49c-.2-.11-.35-.26-.47-.46-.12-.19-.17-.41-.17-.63,0-.21.06-.42.17-.61.11-.19.27-.35.46-.47.2-.12.41-.17.65-.17.22,0,.43.05.63.16.2.11.35.26.47.45s.17.4.17.64-.06.44-.17.63-.27.34-.47.46c-.2.11-.41.17-.64.17s-.44-.05-.64-.16Z"/>
    <g>
      <path class="cls-6" d="M27.12,132.78h-1.74v-.49h4.05v.49h-1.74v4.49h-.58v-4.49Z"/>
      <path class="cls-6" d="M32.64,133.75v3.52h-.56v-.64c-.1.22-.26.39-.47.51-.21.12-.45.18-.72.18-.31,0-.59-.07-.82-.22-.24-.15-.42-.36-.55-.63-.13-.27-.19-.59-.19-.96s.07-.69.2-.96c.13-.28.31-.49.55-.65.24-.15.51-.23.82-.23.28,0,.52.06.72.18.21.12.36.29.47.51v-.61h.56ZM31.8,136.5c.19-.24.28-.57.28-1s-.09-.77-.28-1c-.19-.23-.45-.35-.8-.35s-.61.12-.81.36c-.19.24-.29.58-.29,1s.1.76.29.99.46.35.81.35.61-.12.8-.35Z"/>
      <path class="cls-6" d="M34.49,134.2v1.92c0,.26.05.45.16.55.11.11.26.16.46.16.13,0,.26-.02.38-.06v.48c-.14.05-.31.07-.49.07-.34,0-.6-.09-.79-.28-.19-.19-.28-.47-.28-.84v-2h-.69v-.45h.69v-.9l.57-.2v1.11h1.01v.45h-1.01Z"/>
      <path class="cls-6" d="M39.29,133.75v3.52h-.56v-.64c-.1.22-.26.39-.47.51-.21.12-.45.18-.72.18-.31,0-.59-.07-.82-.22-.24-.15-.42-.36-.55-.63-.13-.27-.19-.59-.19-.96s.07-.69.2-.96c.13-.28.31-.49.55-.65.24-.15.51-.23.82-.23.28,0,.52.06.72.18.21.12.36.29.47.51v-.61h.56ZM38.45,136.5c.19-.24.28-.57.28-1s-.09-.77-.28-1c-.19-.23-.45-.35-.8-.35s-.61.12-.81.36c-.19.24-.29.58-.29,1s.1.76.29.99.46.35.81.35.61-.12.8-.35Z"/>
      <path class="cls-6" d="M42,136.7l.22-.44c.25.21.5.36.76.45.26.09.56.13.9.13.4,0,.71-.08.93-.24.22-.16.33-.38.33-.66,0-.17-.05-.3-.16-.41-.1-.11-.24-.19-.41-.25-.17-.06-.4-.12-.68-.19-.38-.08-.7-.17-.95-.27-.25-.1-.45-.24-.6-.42-.15-.18-.23-.43-.23-.72s.07-.54.22-.75.36-.39.63-.51c.27-.12.59-.18.96-.18.35,0,.67.05.97.16.3.11.55.26.76.47l-.22.44c-.23-.2-.47-.35-.71-.44-.24-.09-.5-.14-.79-.14-.39,0-.69.08-.91.25-.22.17-.33.39-.33.68,0,.25.1.44.29.57s.49.24.88.33c.43.1.77.2,1.01.28.24.09.45.22.61.39.16.18.25.41.25.7s-.07.53-.22.74c-.15.21-.36.38-.64.49-.28.12-.6.17-.98.17-.78,0-1.4-.21-1.86-.63Z"/>
      <path class="cls-6" d="M47.15,137.1c-.25-.15-.45-.36-.58-.64s-.21-.6-.21-.97.07-.69.21-.97.33-.49.58-.64.54-.22.88-.22.62.08.88.22.45.36.58.64.21.6.21.97-.07.69-.21.97-.33.49-.58.64-.54.22-.88.22-.62-.07-.88-.22ZM48.83,136.51c.19-.23.28-.57.28-1.01s-.1-.76-.29-1-.46-.35-.8-.35-.61.12-.81.35-.29.57-.29,1,.09.78.28,1.01c.19.23.46.35.81.35s.62-.12.81-.35Z"/>
      <path class="cls-6" d="M53.52,133.75v3.52h-.55v-.61c-.11.21-.27.38-.47.49-.2.11-.43.17-.68.17-.42,0-.73-.12-.94-.35-.21-.23-.32-.58-.32-1.04v-2.18h.57v2.17c0,.32.07.55.2.7.13.15.33.22.59.22.31,0,.56-.1.76-.3.19-.2.29-.47.29-.8v-1.99h.57Z"/>
      <path class="cls-6" d="M54.62,132.12h.57v5.15h-.57v-5.15Z"/>
      <path class="cls-6" d="M57.2,132.74c-.1.1-.16.29-.16.54v.47h.86v.45h-.86v3.07h-.57v-3.07h-.69v-.45h.69v-.54c0-.37.09-.65.28-.84.18-.19.44-.28.77-.28.16,0,.32.02.48.06v.48c-.13-.04-.25-.06-.36-.06-.19,0-.33.05-.44.16Z"/>
      <path class="cls-6" d="M61.59,133.75v3.52h-.55v-.61c-.11.21-.27.38-.47.49-.2.11-.43.17-.68.17-.42,0-.73-.12-.94-.35-.21-.23-.32-.58-.32-1.04v-2.18h.57v2.17c0,.32.07.55.2.7.13.15.33.22.59.22.31,0,.56-.1.76-.3.19-.2.29-.47.29-.8v-1.99h.57Z"/>
      <path class="cls-6" d="M62.68,132.12h.57v5.15h-.57v-5.15Z"/>
      <path class="cls-6" d="M64.35,132.12h.57v5.15h-.57v-5.15Z"/>
    </g>
    <path class="cls-8" d="M18.01,146.49c-.2-.11-.35-.26-.47-.46-.12-.19-.17-.41-.17-.63,0-.21.06-.42.17-.61.11-.19.27-.35.46-.47.2-.12.41-.17.65-.17.22,0,.43.05.63.16.2.11.35.26.47.45s.17.4.17.64-.06.44-.17.63-.27.34-.47.46c-.2.11-.41.17-.64.17s-.44-.05-.64-.16Z"/>
    <g>
      <path class="cls-6" d="M27.12,142.78h-1.74v-.49h4.05v.49h-1.74v4.49h-.58v-4.49Z"/>
      <path class="cls-6" d="M32.64,143.75v3.52h-.56v-.64c-.1.22-.26.39-.47.51-.21.12-.45.18-.72.18-.31,0-.59-.07-.82-.22-.24-.15-.42-.36-.55-.63-.13-.27-.19-.59-.19-.96s.07-.69.2-.96c.13-.28.31-.49.55-.65.24-.15.51-.23.82-.23.28,0,.52.06.72.18.21.12.36.29.47.51v-.61h.56ZM31.8,146.5c.19-.24.28-.57.28-1s-.09-.77-.28-1c-.19-.23-.45-.35-.8-.35s-.61.12-.81.36c-.19.24-.29.58-.29,1s.1.76.29.99.46.35.81.35.61-.12.8-.35Z"/>
      <path class="cls-6" d="M34.49,144.2v1.92c0,.26.05.45.16.55.11.11.26.16.46.16.13,0,.26-.02.38-.06v.48c-.14.05-.31.07-.49.07-.34,0-.6-.09-.79-.28-.19-.19-.28-.47-.28-.84v-2h-.69v-.45h.69v-.9l.57-.2v1.11h1.01v.45h-1.01Z"/>
      <path class="cls-6" d="M39.29,143.75v3.52h-.56v-.64c-.1.22-.26.39-.47.51-.21.12-.45.18-.72.18-.31,0-.59-.07-.82-.22-.24-.15-.42-.36-.55-.63-.13-.27-.19-.59-.19-.96s.07-.69.2-.96c.13-.28.31-.49.55-.65.24-.15.51-.23.82-.23.28,0,.52.06.72.18.21.12.36.29.47.51v-.61h.56ZM38.45,146.5c.19-.24.28-.57.28-1s-.09-.77-.28-1c-.19-.23-.45-.35-.8-.35s-.61.12-.81.36c-.19.24-.29.58-.29,1s.1.76.29.99.46.35.81.35.61-.12.8-.35Z"/>
      <path class="cls-6" d="M42,146.7l.22-.44c.25.21.5.36.76.45.26.09.56.13.9.13.4,0,.71-.08.93-.24.22-.16.33-.38.33-.66,0-.17-.05-.3-.16-.41-.1-.11-.24-.19-.41-.25-.17-.06-.4-.12-.68-.19-.38-.08-.7-.17-.95-.27-.25-.1-.45-.24-.6-.42-.15-.18-.23-.43-.23-.72s.07-.54.22-.75.36-.39.63-.51c.27-.12.59-.18.96-.18.35,0,.67.05.97.16.3.11.55.26.76.47l-.22.44c-.23-.2-.47-.35-.71-.44-.24-.09-.5-.14-.79-.14-.39,0-.69.08-.91.25-.22.17-.33.39-.33.68,0,.25.1.44.29.57s.49.24.88.33c.43.1.77.2,1.01.28.24.09.45.22.61.39.16.18.25.41.25.7s-.07.53-.22.74c-.15.21-.36.38-.64.49-.28.12-.6.17-.98.17-.78,0-1.4-.21-1.86-.63Z"/>
      <path class="cls-6" d="M49.67,143.75v3.52h-.56v-.64c-.1.22-.26.39-.47.51-.21.12-.45.18-.72.18-.31,0-.59-.07-.82-.22-.24-.15-.42-.36-.55-.63-.13-.27-.19-.59-.19-.96s.07-.69.2-.96c.13-.28.31-.49.55-.65.24-.15.51-.23.82-.23.28,0,.52.06.72.18.21.12.36.29.47.51v-.61h.56ZM48.83,146.5c.19-.24.28-.57.28-1s-.09-.77-.28-1c-.19-.23-.45-.35-.8-.35s-.61.12-.81.36c-.19.24-.29.58-.29,1s.1.76.29.99.46.35.81.35.61-.12.8-.35Z"/>
      <path class="cls-6" d="M50.77,142.12h.57v5.15h-.57v-5.15Z"/>
      <path class="cls-6" d="M53.19,144.2v1.92c0,.26.05.45.16.55.11.11.26.16.46.16.13,0,.26-.02.38-.06v.48c-.14.05-.31.07-.49.07-.34,0-.6-.09-.79-.28-.19-.19-.28-.47-.28-.84v-2h-.69v-.45h.69v-.9l.57-.2v1.11h1.01v.45h-1.01Z"/>
    </g>
    <g class="cls-4">
      <path class="cls-8" d="M18.01,156.48c-.2-.11-.35-.26-.47-.46-.12-.19-.17-.41-.17-.63,0-.21.06-.42.17-.61.11-.19.27-.35.46-.47.2-.12.41-.17.65-.17.22,0,.43.05.63.16.2.11.35.26.47.45s.17.4.17.64-.06.44-.17.63-.27.34-.47.46c-.2.11-.41.17-.64.17s-.44-.05-.64-.16Z"/>
      <g>
        <path class="cls-6" d="M27.12,152.77h-1.74v-.49h4.05v.49h-1.74v4.49h-.58v-4.49Z"/>
        <path class="cls-6" d="M32.64,153.74v3.52h-.56v-.64c-.1.22-.26.39-.47.51-.21.12-.45.18-.72.18-.31,0-.59-.07-.82-.22-.24-.15-.42-.36-.55-.63-.13-.27-.19-.59-.19-.96s.07-.69.2-.96c.13-.28.31-.49.55-.65.24-.15.51-.23.82-.23.28,0,.52.06.72.18.21.12.36.29.47.51v-.61h.56ZM31.8,156.49c.19-.24.28-.57.28-1s-.09-.77-.28-1c-.19-.23-.45-.35-.8-.35s-.61.12-.81.36c-.19.24-.29.58-.29,1s.1.76.29.99.46.35.81.35.61-.12.8-.35Z"/>
        <path class="cls-6" d="M34.49,154.19v1.92c0,.26.05.45.16.55.11.11.26.16.46.16.13,0,.26-.02.38-.06v.48c-.14.05-.31.07-.49.07-.34,0-.6-.09-.79-.28-.19-.19-.28-.47-.28-.84v-2h-.69v-.45h.69v-.9l.57-.2v1.11h1.01v.45h-1.01Z"/>
        <path class="cls-6" d="M39.29,153.74v3.52h-.56v-.64c-.1.22-.26.39-.47.51-.21.12-.45.18-.72.18-.31,0-.59-.07-.82-.22-.24-.15-.42-.36-.55-.63-.13-.27-.19-.59-.19-.96s.07-.69.2-.96c.13-.28.31-.49.55-.65.24-.15.51-.23.82-.23.28,0,.52.06.72.18.21.12.36.29.47.51v-.61h.56ZM38.45,156.49c.19-.24.28-.57.28-1s-.09-.77-.28-1c-.19-.23-.45-.35-.8-.35s-.61.12-.81.36c-.19.24-.29.58-.29,1s.1.76.29.99.46.35.81.35.61-.12.8-.35Z"/>
        <path class="cls-6" d="M42,156.69l.22-.44c.25.21.5.36.76.45.26.09.56.13.9.13.4,0,.71-.08.93-.24.22-.16.33-.38.33-.66,0-.17-.05-.3-.16-.41-.1-.11-.24-.19-.41-.25-.17-.06-.4-.12-.68-.19-.38-.08-.7-.17-.95-.27-.25-.1-.45-.24-.6-.42-.15-.18-.23-.43-.23-.72s.07-.54.22-.75.36-.39.63-.51c.27-.12.59-.18.96-.18.35,0,.67.05.97.16.3.11.55.26.76.47l-.22.44c-.23-.2-.47-.35-.71-.44-.24-.09-.5-.14-.79-.14-.39,0-.69.08-.91.25-.22.17-.33.39-.33.68,0,.25.1.44.29.57s.49.24.88.33c.43.1.77.2,1.01.28.24.09.45.22.61.39.16.18.25.41.25.7s-.07.53-.22.74c-.15.21-.36.38-.64.49-.28.12-.6.17-.98.17-.78,0-1.4-.21-1.86-.63Z"/>
        <path class="cls-6" d="M49.67,153.74v3.52h-.56v-.64c-.1.22-.26.39-.47.51-.21.12-.45.18-.72.18-.31,0-.59-.07-.82-.22-.24-.15-.42-.36-.55-.63-.13-.27-.19-.59-.19-.96s.07-.69.2-.96c.13-.28.31-.49.55-.65.24-.15.51-.23.82-.23.28,0,.52.06.72.18.21.12.36.29.47.51v-.61h.56ZM48.83,156.49c.19-.24.28-.57.28-1s-.09-.77-.28-1c-.19-.23-.45-.35-.8-.35s-.61.12-.81.36c-.19.24-.29.58-.29,1s.1.76.29.99.46.35.81.35.61-.12.8-.35Z"/>
        <path class="cls-6" d="M55.85,155.05v2.21h-.57v-2.18c0-.33-.06-.57-.17-.72s-.3-.22-.56-.22c-.3,0-.53.1-.7.3-.17.2-.25.47-.25.82v2.01h-.57v-2.18c0-.33-.06-.57-.18-.72s-.3-.23-.56-.23c-.3,0-.53.1-.7.3-.17.2-.26.47-.26.82v2.01h-.57v-2.53c0-.36-.02-.69-.06-.99h.54l.06.62c.1-.22.24-.4.44-.52s.42-.18.68-.18c.28,0,.51.06.69.17.18.11.31.28.39.52.11-.21.27-.38.47-.5.21-.12.44-.19.7-.19.78,0,1.17.46,1.17,1.39Z"/>
        <path class="cls-6" d="M59.5,153.89c.24.15.42.37.55.65.13.28.2.6.2.96s-.07.68-.2.96c-.13.27-.31.48-.55.63s-.51.22-.82.22c-.28,0-.52-.06-.72-.18-.21-.12-.36-.29-.47-.52v2.16h-.57v-4.05c0-.36-.02-.69-.06-.99h.54l.06.68c.1-.24.25-.43.47-.56s.46-.2.75-.2c.31,0,.58.08.82.23ZM59.38,156.5c.19-.23.28-.57.28-.99s-.1-.76-.29-1-.46-.36-.8-.36-.62.12-.81.35c-.19.23-.28.57-.28,1s.09.77.28,1c.19.24.46.35.81.35s.61-.12.8-.35Z"/>
        <path class="cls-6" d="M64.23,153.74v3.52h-.56v-.64c-.1.22-.26.39-.47.51-.21.12-.45.18-.72.18-.31,0-.59-.07-.82-.22-.24-.15-.42-.36-.55-.63-.13-.27-.19-.59-.19-.96s.07-.69.2-.96c.13-.28.31-.49.55-.65.24-.15.51-.23.82-.23.28,0,.52.06.72.18.21.12.36.29.47.51v-.61h.56ZM63.39,156.49c.19-.24.28-.57.28-1s-.09-.77-.28-1c-.19-.23-.45-.35-.8-.35s-.61.12-.81.36c-.19.24-.29.58-.29,1s.1.76.29.99.46.35.81.35.61-.12.8-.35Z"/>
        <path class="cls-6" d="M68.35,155.05v2.21h-.57v-2.18c0-.33-.07-.57-.2-.72s-.34-.23-.62-.23c-.33,0-.59.1-.78.3-.2.2-.29.47-.29.81v2.02h-.57v-2.53c0-.36-.02-.69-.06-.99h.54l.06.63c.11-.23.27-.41.48-.53.21-.12.46-.19.74-.19.84,0,1.27.46,1.27,1.39Z"/>
        <path class="cls-6" d="M72.44,155.05v2.21h-.57v-2.18c0-.33-.07-.57-.2-.72s-.34-.23-.62-.23c-.33,0-.59.1-.78.3-.2.2-.29.47-.29.81v2.02h-.57v-2.53c0-.36-.02-.69-.06-.99h.54l.06.63c.11-.23.27-.41.48-.53.21-.12.46-.19.74-.19.84,0,1.27.46,1.27,1.39Z"/>
      </g>
    </g>
    <g class="cls-9">
      <path class="cls-1" d="M107.09,119.46c.16-.06.34-.09.53-.09.86,0,1.56.67,1.56,1.5s-.7,1.5-1.56,1.5c-.02,0-.03,0-.05,0-.03,0-.07,0-.11,0,.02-.01.04-.03.05-.05.3-.27.48-.66.48-1.08,0-.65-.43-1.2-1.03-1.41-.18.35-.49.64-.88.77M106.08,120.6c.39-.13.71-.41.88-.77.6.21,1.03.76,1.03,1.41,0,.42-.18.81-.48,1.08-.01.02-.03.03-.05.05-.28.23-.64.37-1.03.37-.03,0-.06,0-.09,0l.09-.36s0-.1-.01-.14M107.98,123.41c0,.83-.7,1.5-1.56,1.5-.18,0-.35-.03-.51-.08.24-.38.38-.92.27-1.52l.14-.56s.06,0,.09,0c.4,0,.75-.14,1.03-.37.02-.01.04-.03.05-.05.02.01.03.03.05.05.26.27.43.63.43,1.03ZM107.11,119.19c0,.09,0,.19-.03.28-.03.13-.07.25-.13.37-.18.35-.49.64-.88.77-.04.01-.08.03-.12.04l-.42-.63-.11-.17c.11-.62-.04-1.05-.32-1.4.09-.17.13-.34.13-.51v-.07l-.05-.13c.11-.03.24-.04.36-.04.87,0,1.57.67,1.57,1.5ZM105.6,123.85c-.01.09-.03.08-.06.16-.17.33-.55.59-1.15.54-.09.17-.2.3-.33.39-.21.16-.47.24-.76.27-.07.18-.18.32-.3.43-.26.22-.64.33-1.1.32-.58.12-1.04-.03-1.4-.41-.44-.14-.74-.38-.86-.72-.7-.14-1.15-.55-1.47-1.11-.19-.07-.36-.21-.49-.39-.19-.25-.31-.59-.36-.86-.31-.42-.45-.87-.43-1.34-.12-.06-.25-.13-.36-.26-.19-.2-.36-.54-.36-1.1s.18-.9.36-1.1c.12-.13.25-.21.36-.26-.02-.47.12-.92.43-1.34.05-.28.17-.61.36-.86.13-.18.3-.31.49-.39.31-.57.77-.98,1.47-1.11.12-.34.42-.59.86-.72.36-.38.82-.54,1.4-.41.47,0,.85.1,1.1.32.13.11.23.25.3.43.29.03.56.11.76.27.17.13.32.32.4.58l.21.57.05.13v.07c0,.17-.04.34-.13.51.27.35.42.78.32,1.4l.11.17.42.63.03.05c.03.1.04.21.04.31,0,.13-.03.27-.1.43.18.13.3.3.38.49.04.11.07.22.09.33,0,.04.01.09.01.14l-.09.36-.14.56c.1.6-.03,1.14-.27,1.52,0,.01-.01.03-.02.04l.29.17c.33.2.29.68-.07.83ZM100.33,119.57c.21,0,.38.16.38.37s-.17.37-.38.37-.38-.17-.38-.37.17-.37.38-.37ZM99.38,120.3c.21,0,.38.16.38.36s-.17.37-.38.37-.38-.17-.38-.37.17-.36.38-.36ZM103,121.25c.2.05.41-.07.46-.26.05-.19-.07-.4-.27-.45-.2-.05-.41.06-.46.26-.05.19.07.4.27.45ZM100.14,121.03c.21,0,.38.16.38.37s-.17.37-.38.37-.38-.17-.38-.37.17-.37.38-.37ZM102.07,121.77c.2.05.41-.07.46-.26.05-.19-.07-.39-.27-.44-.2-.05-.41.06-.46.26-.05.19.07.4.27.45ZM100.61,122.07s-.09.02-.14.02c-.1,0-.22-.02-.33-.05-.47-.11-1.02-.38-1.19-.65-.14-.23-.15-.67-.11-1.1.04-.43.13-.86.28-1.04.04-.06.14-.09.25-.12.25-.08.57-.11.86-.08.15.01.29.04.4.08.06.03.12.05.15.09.05.08.07.21.1.37.04.31.04.71.01,1.11-.03.4-.08.79-.16,1.08l-.11.3ZM102.79,122.7c.2.05.41-.07.46-.26.05-.19-.07-.4-.27-.45-.2-.05-.41.07-.46.26-.05.19.07.4.27.45ZM103.76,120.68c0,.3-.06.69-.14,1.08-.08.39-.19.78-.31,1.07-.06.15-.12.27-.19.33-.04.04-.1.04-.17.05-.12.01-.27,0-.41-.02-.29-.05-.58-.16-.8-.29-.1-.06-.18-.11-.21-.18-.1-.21-.07-.64.01-1.07.07-.42.2-.85.4-1.04.24-.22.85-.34,1.33-.34.12,0,.24.01.33.04.04.01.11.04.13.05l.02.32ZM102.61,112.44c-4.19,0-7.6,3.28-7.6,7.31s3.4,7.31,7.6,7.31,7.6-3.27,7.6-7.31-3.4-7.31-7.6-7.31Z"/>
    </g>
    <g class="cls-10">
      <path class="cls-1" d="M108.34,87.17s-2.53-.09-3.92,2.23c0,0-.84,1.63-1.23,2.7-.26.72-.49,1.41-.99,2M99.19,83.97s-1.74,1.76-.85,4.26c0,0,.71,1.66,1.28,2.62.39.65.67,1.36.8,2.11.18,1.04-.15,2.46-1.33,3M102.64,86.7c2.06-1.25,4.07-1.33,5.27-.16,1.54,1.49.82,4.6-1.59,6.95-2,1.94-4.15,2.87-5.84,2.24M103.27,89.98c0,3.32-1.76,6.01-3.93,6.01s-3.93-2.69-3.93-6.01,1.76-6.01,3.93-6.01,3.93,2.69,3.93,6.01Z"/>
      <path class="cls-1" d="M101.26,52.28c-4.3-.26-5.17-3.98-5.17-7.1h11.32c0,.49-.02.99-.07,1.5"/>
      <path class="cls-3" d="M103.75,43.6c1.81-2.27-1.86-2.2.38-4.54M101.3,43.6c1.81-2.27-1.85-2.2.38-4.54M98.85,43.6c1.81-2.27-1.86-2.2.38-4.54M95.18,53.44h5.66M96.13,46.63c-.14-.48-1.04-1.03-1.91-.8-.73.2-1.11.91-.82,1.85.43,1.41,2.65,1.02,3.79,2.39"/>
      <path class="cls-1" d="M101.56,54.61c1.86-2.86,4.63-3.86,6.76-4.98M102.7,53.18c-.34-2.69,1.02-4.15,2.71-4.72,1.79-.59,3.97-.22,5.33-.89-.05,5.14-4.69,6.98-7.11,6.08"/>
    </g>
  </g>
</svg>