<?xml version="1.0" encoding="UTF-8"?>
<svg id="Layer_1" data-name="Layer 1" xmlns="http://www.w3.org/2000/svg" xmlns:xlink="http://www.w3.org/1999/xlink" viewBox="0 0 126.24 198.39">
  <defs>
    <style>
      .cls-1 {
        stroke-linejoin: round;
      }

      .cls-1, .cls-2, .cls-3 {
        fill: none;
      }

      .cls-1, .cls-3 {
        stroke: #231f20;
        stroke-linecap: round;
        stroke-width: .5px;
      }

      .cls-4 {
        clip-path: url(#clippath);
      }

      .cls-2, .cls-5, .cls-6, .cls-7, .cls-8 {
        stroke-width: 0px;
      }

      .cls-5 {
        fill: #1268b3;
      }

      .cls-6 {
        fill: #58595b;
      }

      .cls-3 {
        stroke-miterlimit: 10;
      }

      .cls-7 {
        fill: #fff;
      }

      .cls-8 {
        fill: #00aeef;
      }
    </style>
    <clipPath id="clippath">
      <rect class="cls-2" x="3.35" y="3.59" width="122.88" height="202.35"/>
    </clipPath>
  </defs>
  <rect class="cls-7" y="0" width="126.24" height="197.6" rx="13.04" ry="13.04"/>
  <g>
    <g>
      <path class="cls-5" d="M13.84,19.04c-.5-.5-.75-1.24-.75-2.21v-4.24h1.27v4.31c0,.61.14,1.08.43,1.39s.71.47,1.28.47.97-.16,1.26-.48.44-.78.44-1.39v-4.31h1.27v4.24c0,.97-.25,1.7-.76,2.21s-1.24.76-2.21.76-1.72-.25-2.23-.75Z"/>
      <path class="cls-5" d="M25.22,19.71l-3.31-3.33v3.33h-1.29v-7.12h1.29v3.19l3.18-3.19h1.55l-3.46,3.42,3.62,3.7h-1.58Z"/>
      <path class="cls-5" d="M34.95,18.04h-3.48l-.72,1.67h-1.3l3.22-7.12h1.05l3.23,7.12h-1.29l-.71-1.67ZM34.52,17.04l-1.31-3.05-1.31,3.05h2.62Z"/>
      <path class="cls-5" d="M43.82,12.59v7.12h-.96l-3.84-4.99v4.99h-1.2v-7.12h.96l3.83,4.98v-4.98h1.21Z"/>
      <path class="cls-5" d="M45.47,12.59h2.62c1.17,0,2.07.31,2.71.93.64.62.96,1.49.96,2.62s-.32,2.01-.96,2.64c-.64.62-1.55.93-2.71.93h-2.62v-7.12ZM48.01,18.66c1.64,0,2.46-.84,2.46-2.52s-.82-2.5-2.46-2.5h-1.25v5.02h1.25Z"/>
      <path class="cls-5" d="M56.02,12.59h4.76v1.02h-3.5v1.97h3.29v1.02h-3.29v2.09h3.5v1.02h-4.76v-7.12Z"/>
      <path class="cls-5" d="M62.79,19.04c-.5-.5-.75-1.24-.75-2.21v-4.24h1.27v4.31c0,.61.14,1.08.43,1.39s.71.47,1.28.47.97-.16,1.26-.48.44-.78.44-1.39v-4.31h1.27v4.24c0,.97-.25,1.7-.76,2.21s-1.24.76-2.21.76-1.72-.25-2.23-.75Z"/>
      <path class="cls-5" d="M75.43,19.71h-1.36l-.91-2.37c-.08-.22-.2-.37-.37-.46-.17-.09-.38-.13-.65-.13h-1.29v2.96h-1.28v-7.12h3.05c.81,0,1.42.18,1.84.53s.63.86.63,1.52c0,.47-.12.88-.38,1.21s-.61.57-1.07.71c.42.09.72.38.91.88l.87,2.28ZM72.44,15.75c.49,0,.85-.09,1.08-.27.23-.18.35-.45.35-.82s-.11-.63-.34-.81c-.23-.18-.59-.26-1.08-.26h-1.61v2.16h1.61Z"/>
      <path class="cls-5" d="M78.01,19.35c-.51-.3-.9-.72-1.18-1.27s-.42-1.2-.42-1.95.14-1.38.41-1.93.67-.97,1.17-1.26c.51-.29,1.11-.44,1.81-.44s1.29.15,1.8.44c.51.29.9.71,1.17,1.26.27.55.41,1.2.41,1.93s-.14,1.4-.41,1.95-.66.97-1.17,1.27c-.51.3-1.11.45-1.8.45s-1.29-.15-1.8-.45ZM81.34,18.09c.37-.45.55-1.1.55-1.95s-.18-1.48-.55-1.93c-.37-.45-.88-.67-1.54-.67s-1.17.22-1.54.67c-.37.45-.55,1.09-.55,1.94s.18,1.5.55,1.95c.37.45.88.68,1.54.68s1.17-.23,1.54-.68Z"/>
      <path class="cls-5" d="M84.59,12.59h3.09c.77,0,1.36.19,1.79.55.43.37.64.88.64,1.52s-.21,1.15-.65,1.52c-.43.37-1.02.56-1.79.56h-1.8v2.97h-1.29v-7.12ZM87.53,15.74c.45,0,.79-.09,1.01-.28.23-.18.34-.45.34-.79s-.11-.62-.34-.8-.57-.28-1.02-.28h-1.65v2.15h1.65Z"/>
      <path class="cls-5" d="M91.35,12.59h4.76v1.02h-3.5v1.97h3.29v1.02h-3.29v2.09h3.5v1.02h-4.76v-7.12Z"/>
    </g>
    <g>
      <path class="cls-6" d="M14.06,43h-1.62v-.74h4.17v.74h-1.63v4.24h-.91v-4.24Z"/>
      <path class="cls-6" d="M17.23,42.26h3.33v.71h-2.45v1.38h2.3v.71h-2.3v1.46h2.45v.71h-3.33v-4.98Z"/>
      <path class="cls-6" d="M24.62,46.08h-2.44l-.5,1.17h-.91l2.25-4.98h.73l2.26,4.98h-.9l-.5-1.17ZM24.32,45.37l-.92-2.13-.92,2.13h1.83Z"/>
    </g>
    <path class="cls-8" d="M13.57,59.29c-.2-.11-.35-.26-.47-.46-.12-.19-.17-.41-.17-.63,0-.21.06-.42.17-.61.11-.19.27-.35.46-.47.2-.12.41-.17.65-.17.22,0,.43.05.63.16.2.11.35.26.47.45.12.19.17.4.17.64s-.06.44-.17.63-.27.34-.46.46c-.2.11-.41.17-.64.17s-.44-.05-.64-.16Z"/>
    <g>
      <path class="cls-6" d="M22.68,55.59h-1.74v-.49h4.05v.49h-1.74v4.49h-.58v-4.49Z"/>
      <path class="cls-6" d="M28.04,58.3h-2.58c0,.45.11.79.31,1.02s.5.34.89.34c.41,0,.79-.14,1.13-.41l.19.41c-.15.14-.35.26-.59.34s-.49.13-.74.13c-.55,0-.98-.16-1.29-.49-.31-.32-.47-.77-.47-1.33,0-.36.07-.68.21-.96.14-.28.34-.49.59-.65.25-.15.54-.23.86-.23.47,0,.83.15,1.1.46.27.31.4.73.4,1.26v.1ZM25.83,57.18c-.18.18-.3.43-.35.75h2.05c-.03-.33-.12-.58-.29-.76-.17-.17-.4-.26-.69-.26s-.53.09-.72.27Z"/>
      <path class="cls-6" d="M29.64,57.01v1.92c0,.26.05.45.16.55.11.11.26.16.46.16.13,0,.26-.02.38-.06v.48c-.14.05-.31.07-.49.07-.34,0-.6-.09-.79-.28-.19-.19-.28-.47-.28-.84v-2h-.69v-.45h.69v-.9l.57-.2v1.11h1.01v.45h-1.01Z"/>
      <path class="cls-6" d="M31.34,54.93h.57v5.15h-.57v-5.15Z"/>
      <path class="cls-6" d="M35.95,58.3h-2.58c0,.45.11.79.31,1.02.2.23.5.34.88.34.41,0,.79-.14,1.13-.41l.19.41c-.15.14-.35.26-.59.34s-.49.13-.74.13c-.55,0-.98-.16-1.29-.49s-.47-.77-.47-1.33c0-.36.07-.68.21-.96.14-.28.34-.49.59-.65s.54-.23.86-.23c.47,0,.83.15,1.1.46s.4.73.4,1.26v.1ZM33.74,57.18c-.18.18-.3.43-.35.75h2.05c-.03-.33-.12-.58-.29-.76-.17-.17-.4-.26-.69-.26s-.53.09-.72.27Z"/>
      <path class="cls-6" d="M39.87,56.56l-1.65,3.84c-.17.4-.39.7-.65.88-.26.19-.58.31-.97.38l-.12-.44c.33-.08.58-.17.75-.3.17-.12.31-.31.42-.57l.14-.32-1.49-3.49h.6l1.19,2.91,1.2-2.91h.57Z"/>
    </g>
    <path class="cls-8" d="M13.57,69.3c-.2-.11-.35-.26-.47-.46-.12-.19-.17-.41-.17-.63,0-.21.06-.42.17-.61.11-.19.27-.35.46-.47.2-.12.41-.17.65-.17.22,0,.43.05.63.16.2.11.35.26.47.45.12.19.17.4.17.64s-.06.44-.17.63-.27.34-.46.46c-.2.11-.41.17-.64.17s-.44-.05-.64-.16Z"/>
    <g>
      <path class="cls-6" d="M22.68,65.59h-1.74v-.49h4.05v.49h-1.74v4.49h-.58v-4.49Z"/>
      <path class="cls-6" d="M28.04,68.31h-2.58c0,.45.11.79.31,1.02s.5.34.89.34c.41,0,.79-.14,1.13-.41l.19.41c-.15.14-.35.26-.59.34s-.49.13-.74.13c-.55,0-.98-.16-1.29-.49-.31-.32-.47-.77-.47-1.33,0-.36.07-.68.21-.96.14-.28.34-.49.59-.65.25-.15.54-.23.86-.23.47,0,.83.15,1.1.46.27.31.4.73.4,1.26v.1ZM25.83,67.19c-.18.18-.3.43-.35.75h2.05c-.03-.33-.12-.58-.29-.76-.17-.17-.4-.26-.69-.26s-.53.09-.72.27Z"/>
      <path class="cls-6" d="M32,66.56v3.52h-.56v-.64c-.1.22-.26.39-.47.51-.21.12-.45.18-.72.18-.31,0-.59-.07-.82-.22s-.42-.36-.55-.63c-.13-.27-.19-.59-.19-.96s.07-.69.2-.96c.13-.28.31-.49.55-.65s.51-.23.82-.23c.28,0,.52.06.72.18.21.12.36.29.47.51v-.61h.56ZM31.16,69.31c.19-.24.28-.57.28-1s-.09-.77-.28-1-.45-.35-.8-.35-.62.12-.81.36-.29.58-.29,1,.09.76.29.99.46.35.81.35.61-.12.8-.35Z"/>
      <path class="cls-6" d="M35.68,66.71c.24.15.42.37.55.65.13.28.2.6.2.96s-.07.68-.2.96c-.13.27-.31.48-.55.63-.24.15-.51.22-.82.22-.28,0-.52-.06-.72-.18s-.36-.29-.47-.52v2.16h-.57v-4.05c0-.36-.02-.69-.06-.99h.54l.06.68c.1-.24.25-.43.47-.56.21-.13.46-.2.75-.2.31,0,.58.08.82.23ZM35.56,69.32c.19-.23.28-.57.28-.99s-.1-.76-.29-1-.46-.36-.8-.36-.62.12-.8.35c-.19.23-.28.57-.28,1s.09.77.28,1c.19.24.46.35.8.35s.61-.12.8-.35Z"/>
      <path class="cls-6" d="M37.94,65.07v.64h-.69v-.64h.69ZM37.3,66.56h.57v3.52h-.57v-3.52Z"/>
      <path class="cls-6" d="M42.1,66.56v3.49c0,.52-.13.92-.4,1.19s-.66.4-1.19.4-1-.12-1.39-.36l.1-.46c.22.13.44.22.63.27.2.06.42.08.65.08.34,0,.6-.09.77-.27.17-.18.26-.45.26-.8v-.83c-.11.22-.27.4-.47.52-.21.12-.45.18-.74.18-.31,0-.58-.07-.82-.22s-.43-.35-.56-.62c-.13-.27-.2-.57-.2-.92s.07-.65.2-.92c.13-.27.32-.47.56-.62s.51-.22.82-.22c.28,0,.52.06.73.18.21.12.37.29.47.51v-.61h.57ZM41.25,69.16c.19-.23.29-.54.29-.93s-.1-.71-.29-.93c-.19-.23-.46-.34-.8-.34s-.62.11-.82.34c-.2.23-.3.54-.3.93s.1.71.3.93c.2.23.47.34.82.34s.61-.11.8-.34Z"/>
      <path class="cls-6" d="M42.98,69.68l.19-.42c.19.15.38.26.58.32.2.07.42.1.66.1.27,0,.47-.04.61-.14.14-.09.21-.22.21-.4,0-.14-.05-.25-.14-.34-.09-.08-.25-.15-.46-.2l-.59-.14c-.29-.07-.52-.18-.68-.35s-.24-.37-.24-.6c0-.31.12-.56.37-.75s.57-.29.98-.29c.25,0,.48.04.7.12.22.08.4.19.55.34l-.19.41c-.33-.27-.69-.41-1.06-.41-.25,0-.45.05-.58.14s-.21.23-.21.4c0,.14.04.26.13.34s.23.15.42.2l.59.15c.33.08.57.19.73.35.16.16.24.36.24.61,0,.3-.12.55-.37.73-.25.18-.58.27-1.01.27-.59,0-1.06-.15-1.41-.46Z"/>
    </g>
    <path class="cls-8" d="M13.57,79.3c-.2-.11-.35-.26-.47-.46-.12-.19-.17-.41-.17-.63,0-.21.06-.42.17-.61.11-.19.27-.35.46-.47.2-.12.41-.17.65-.17.22,0,.43.05.63.16.2.11.35.26.47.45.12.19.17.4.17.64s-.06.44-.17.63-.27.34-.46.46c-.2.11-.41.17-.64.17s-.44-.05-.64-.16Z"/>
    <g>
      <path class="cls-6" d="M25.42,77.49v2.31c-.2.1-.45.19-.77.25-.32.06-.64.09-.97.09-.49,0-.92-.1-1.28-.3-.36-.2-.63-.5-.82-.88-.19-.38-.28-.84-.28-1.37s.09-.98.28-1.36c.19-.38.46-.67.81-.88s.77-.3,1.25-.3c.35,0,.67.05.96.16.29.11.54.26.75.47l-.22.44c-.24-.21-.48-.35-.71-.44-.23-.09-.49-.14-.78-.14-.56,0-1,.18-1.3.53s-.45.86-.45,1.52.15,1.19.46,1.54c.31.35.76.53,1.34.53.42,0,.81-.07,1.2-.2v-1.52h-1.24v-.46h1.76Z"/>
      <path class="cls-6" d="M27.1,79.91c-.25-.15-.45-.36-.58-.64s-.21-.6-.21-.97.07-.69.21-.97.33-.49.58-.64.54-.22.88-.22.62.08.88.22.45.36.58.64.21.6.21.97-.07.69-.21.97-.33.49-.58.64-.54.22-.88.22-.62-.07-.88-.22ZM28.78,79.32c.19-.23.28-.57.28-1.01s-.1-.76-.29-1-.46-.35-.8-.35-.61.12-.8.35-.29.57-.29,1,.09.78.28,1.01c.19.23.46.35.81.35s.62-.12.81-.35Z"/>
      <path class="cls-6" d="M31.11,79.91c-.25-.15-.45-.36-.58-.64s-.21-.6-.21-.97.07-.69.21-.97.33-.49.58-.64.54-.22.88-.22.62.08.88.22.45.36.58.64.21.6.21.97-.07.69-.21.97-.33.49-.58.64-.54.22-.88.22-.62-.07-.88-.22ZM32.79,79.32c.19-.23.28-.57.28-1.01s-.1-.76-.29-1-.46-.35-.8-.35-.61.12-.81.35-.29.57-.29,1,.09.78.28,1.01c.19.23.46.35.81.35s.62-.12.8-.35Z"/>
      <path class="cls-6" d="M37.63,74.94v5.15h-.56v-.64c-.1.22-.26.39-.47.51-.21.12-.45.18-.72.18-.31,0-.58-.08-.82-.23-.24-.15-.42-.37-.55-.65-.13-.28-.2-.6-.2-.96s.06-.68.19-.96c.13-.27.31-.48.55-.63.24-.15.51-.22.82-.22.28,0,.52.06.72.18.21.12.36.29.46.5v-2.23h.57ZM36.79,79.31c.19-.24.28-.57.28-1s-.09-.76-.28-1-.45-.35-.8-.35-.62.12-.81.35-.29.56-.29.99.1.77.29,1.01.46.36.81.36.61-.12.8-.35Z"/>
      <path class="cls-6" d="M40.63,75.1h3.15v.48h-2.58v1.74h2.44v.48h-2.44v1.81h2.58v.48h-3.15v-4.98Z"/>
      <path class="cls-6" d="M47.77,76.57v3.52h-.56v-.64c-.1.22-.26.39-.47.51-.21.12-.45.18-.72.18-.31,0-.59-.07-.82-.22s-.42-.36-.55-.63c-.13-.27-.19-.59-.19-.96s.07-.69.2-.96c.13-.28.31-.49.55-.65s.51-.23.82-.23c.28,0,.52.06.72.18.21.12.36.29.47.51v-.61h.56ZM46.93,79.31c.19-.24.28-.57.28-1s-.09-.77-.28-1-.45-.35-.8-.35-.62.12-.81.36-.29.58-.29,1,.09.76.29.99.46.35.81.35.61-.12.8-.35Z"/>
      <path class="cls-6" d="M50.83,76.52v.52c-.12-.04-.25-.06-.38-.06-.34,0-.59.11-.76.32-.17.21-.25.47-.25.77v2.01h-.57v-2.53c0-.36-.02-.69-.06-.99h.54l.06.65c.09-.24.23-.42.43-.55s.42-.19.67-.19c.12,0,.22.01.32.04Z"/>
      <path class="cls-6" d="M52.43,77.01v1.92c0,.26.05.45.16.55.11.11.26.16.46.16.13,0,.26-.02.38-.06v.48c-.14.05-.31.07-.49.07-.34,0-.6-.09-.79-.28s-.28-.47-.28-.84v-2h-.69v-.45h.69v-.9l.57-.2v1.11h1.01v.45h-1.01Z"/>
      <path class="cls-6" d="M57.15,77.88v2.21h-.57v-2.18c0-.33-.07-.57-.2-.72-.13-.15-.34-.23-.62-.23-.33,0-.59.1-.78.3-.2.2-.29.47-.29.81v2.02h-.57v-5.15h.57v2.21c.11-.21.27-.38.48-.49.21-.11.44-.17.71-.17.84,0,1.27.46,1.27,1.39Z"/>
    </g>
    <path class="cls-8" d="M13.57,89.3c-.2-.11-.35-.26-.47-.46-.12-.19-.17-.41-.17-.63,0-.21.06-.42.17-.61.11-.19.27-.35.46-.47.2-.12.41-.17.65-.17.22,0,.43.05.63.16.2.11.35.26.47.45.12.19.17.4.17.64s-.06.44-.17.63-.27.34-.46.46c-.2.11-.41.17-.64.17s-.44-.05-.64-.16Z"/>
    <g>
      <path class="cls-6" d="M25.73,85.11l-2.18,4.98h-.5l-2.18-4.98h.61l1.83,4.26,1.83-4.26h.6Z"/>
      <path class="cls-6" d="M26.92,85.08v.64h-.69v-.64h.69ZM26.28,86.57h.57v3.52h-.57v-3.52Z"/>
      <path class="cls-6" d="M28.71,87.02v1.92c0,.26.05.45.16.55.11.11.26.16.46.16.13,0,.26-.02.38-.06v.48c-.14.05-.31.07-.49.07-.34,0-.6-.09-.79-.28s-.28-.47-.28-.84v-2h-.69v-.45h.69v-.9l.57-.2v1.1h1.01v.45h-1.01Z"/>
      <path class="cls-6" d="M33.5,86.57v3.52h-.56v-.64c-.1.22-.26.39-.46.51-.21.12-.45.18-.72.18-.31,0-.59-.07-.82-.22-.24-.15-.42-.36-.55-.63-.13-.27-.19-.59-.19-.96s.07-.69.2-.96.31-.49.55-.65c.24-.15.51-.23.82-.23.28,0,.52.06.72.18s.36.29.47.51v-.61h.56ZM32.66,89.32c.19-.24.28-.57.28-1s-.09-.77-.28-1c-.19-.23-.45-.35-.8-.35s-.61.12-.81.36c-.19.24-.29.58-.29,1s.1.76.29.99.46.35.81.35.61-.12.8-.35Z"/>
      <path class="cls-6" d="M37.71,90.09h-.68l-1.11-1.39-1.1,1.39h-.69l1.46-1.81-1.38-1.71h.69l1.02,1.3,1.02-1.3h.69l-1.37,1.71,1.45,1.81Z"/>
    </g>
    <path class="cls-8" d="M13.57,99.31c-.2-.11-.35-.26-.47-.46-.12-.19-.17-.41-.17-.63,0-.21.06-.42.17-.61.11-.19.27-.35.46-.47.2-.12.41-.17.65-.17.22,0,.43.05.63.16.2.11.35.26.47.45.12.19.17.4.17.64s-.06.44-.17.63-.27.34-.46.46c-.2.11-.41.17-.64.17s-.44-.05-.64-.16Z"/>
    <g>
      <path class="cls-6" d="M22.68,95.6h-1.74v-.49h4.05v.49h-1.74v4.49h-.58v-4.49Z"/>
      <path class="cls-6" d="M28.19,96.57v3.52h-.56v-.64c-.1.22-.26.39-.46.51-.21.12-.45.18-.72.18-.31,0-.59-.07-.82-.22-.24-.15-.42-.36-.55-.63-.13-.27-.19-.59-.19-.96s.07-.69.2-.96.31-.49.55-.65c.24-.15.51-.23.82-.23.28,0,.52.06.72.18s.36.29.47.51v-.61h.56ZM27.35,99.32c.19-.24.28-.57.28-1s-.09-.77-.28-1c-.19-.23-.45-.35-.8-.35s-.61.12-.81.36c-.19.24-.29.58-.29,1s.1.76.29.99.46.35.81.35.61-.12.8-.35Z"/>
      <path class="cls-6" d="M30.05,97.02v1.92c0,.26.05.45.16.55.11.11.26.16.46.16.13,0,.26-.02.38-.06v.48c-.14.05-.31.07-.49.07-.34,0-.6-.09-.79-.28s-.28-.47-.28-.84v-2h-.69v-.45h.69v-.9l.57-.2v1.11h1.01v.45h-1.01Z"/>
      <path class="cls-6" d="M34.84,96.57v3.52h-.56v-.64c-.1.22-.26.39-.47.51-.21.12-.45.18-.72.18-.31,0-.59-.07-.82-.22s-.42-.36-.55-.63c-.13-.27-.19-.59-.19-.96s.07-.69.2-.96c.13-.28.31-.49.55-.65s.51-.23.82-.23c.28,0,.52.06.72.18.21.12.36.29.47.51v-.61h.56ZM34,99.32c.19-.24.28-.57.28-1s-.09-.77-.28-1-.45-.35-.8-.35-.62.12-.81.36-.29.58-.29,1,.09.76.29.99.46.35.81.35.61-.12.8-.35Z"/>
      <path class="cls-6" d="M39.04,95.6h-1.74v-.49h4.05v.49h-1.74v4.49h-.58v-4.49Z"/>
      <path class="cls-6" d="M44.4,98.32h-2.58c0,.45.11.79.31,1.02.2.23.5.34.88.34.41,0,.79-.14,1.13-.41l.19.41c-.15.14-.35.26-.59.34s-.49.13-.74.13c-.55,0-.98-.16-1.29-.49s-.47-.77-.47-1.33c0-.36.07-.68.21-.96.14-.28.34-.49.59-.65s.54-.23.86-.23c.47,0,.83.15,1.1.46s.4.73.4,1.26v.1ZM42.19,97.2c-.18.18-.3.43-.35.75h2.05c-.03-.33-.12-.58-.29-.76-.17-.17-.4-.26-.69-.26s-.53.09-.72.27Z"/>
      <path class="cls-6" d="M48.36,96.57v3.52h-.56v-.64c-.1.22-.26.39-.47.51-.21.12-.45.18-.72.18-.31,0-.59-.07-.82-.22s-.42-.36-.55-.63c-.13-.27-.19-.59-.19-.96s.07-.69.2-.96c.13-.28.31-.49.55-.65s.51-.23.82-.23c.28,0,.52.06.72.18.21.12.36.29.47.51v-.61h.56ZM47.52,99.32c.19-.24.28-.57.28-1s-.09-.77-.28-1-.45-.35-.8-.35-.62.12-.81.36-.29.58-.29,1,.09.76.29.99.46.35.81.35.61-.12.8-.35Z"/>
    </g>
    <path class="cls-8" d="M13.51,109.29c-.19-.11-.33-.26-.45-.46-.11-.19-.17-.41-.17-.63,0-.21.05-.42.16-.61s.25-.35.44-.47c.19-.12.39-.17.62-.17.21,0,.41.05.6.16.19.11.33.26.45.45.11.19.17.4.17.64s-.05.44-.16.63-.26.34-.44.46-.39.17-.61.17-.42-.05-.6-.16Z"/>
    <g>
      <path class="cls-6" d="M22.36,109.83c-.34-.21-.6-.5-.79-.89s-.28-.84-.28-1.35.09-.98.27-1.36c.18-.38.44-.68.78-.88.34-.21.74-.31,1.21-.31s.87.1,1.21.31c.34.21.6.5.78.88.18.38.27.83.27,1.35s-.09.98-.28,1.36-.45.68-.79.88c-.34.21-.74.31-1.2.31s-.86-.1-1.2-.31ZM24.79,109.11c.29-.36.44-.87.44-1.53s-.15-1.16-.44-1.52c-.29-.36-.7-.53-1.24-.53s-.95.18-1.24.54c-.29.36-.44.86-.44,1.52s.15,1.17.44,1.53.71.54,1.24.54.94-.18,1.23-.54Z"/>
      <path class="cls-6" d="M28.77,106.52v.52c-.12-.04-.24-.06-.38-.06-.34,0-.59.11-.76.32-.17.21-.25.47-.25.77v2.01h-.57v-2.53c0-.36-.02-.69-.06-.99h.54l.06.65c.09-.24.23-.42.43-.55.2-.13.42-.19.67-.19.12,0,.22.01.32.04Z"/>
      <path class="cls-6" d="M32.41,106.56v3.49c0,.52-.13.92-.4,1.19s-.66.4-1.19.4-1-.12-1.39-.36l.1-.46c.22.13.44.22.63.27.2.06.42.08.65.08.34,0,.6-.09.77-.27.17-.18.26-.45.26-.8v-.83c-.11.22-.27.4-.47.52-.21.12-.45.18-.74.18-.31,0-.58-.07-.82-.22s-.43-.35-.56-.62c-.13-.27-.2-.57-.2-.92s.07-.65.2-.92c.13-.27.32-.47.56-.62s.51-.22.82-.22c.28,0,.52.06.73.18.21.12.37.29.47.51v-.61h.57ZM31.56,109.16c.19-.23.29-.54.29-.93s-.1-.71-.29-.93c-.19-.23-.46-.34-.8-.34s-.62.11-.82.34c-.2.23-.3.54-.3.93s.1.71.3.93c.2.23.47.34.82.34s.61-.11.8-.34Z"/>
      <path class="cls-6" d="M36.61,106.56v3.52h-.56v-.64c-.1.22-.26.39-.46.51-.21.12-.45.18-.72.18-.31,0-.59-.07-.82-.22-.24-.15-.42-.36-.55-.63-.13-.27-.19-.59-.19-.96s.07-.69.2-.96.31-.49.55-.65c.24-.15.51-.23.82-.23.28,0,.52.06.72.18s.36.29.47.51v-.61h.56ZM35.77,109.31c.19-.24.28-.57.28-1s-.09-.77-.28-1c-.19-.23-.45-.35-.8-.35s-.61.12-.81.36c-.19.24-.29.58-.29,1s.1.76.29.99.46.35.81.35.61-.12.8-.35Z"/>
      <path class="cls-6" d="M40.73,107.87v2.21h-.57v-2.18c0-.33-.07-.57-.2-.72s-.34-.23-.62-.23c-.33,0-.59.1-.78.3-.2.2-.29.47-.29.81v2.02h-.57v-2.53c0-.36-.02-.69-.06-.99h.54l.06.63c.11-.23.27-.41.48-.53.21-.12.46-.19.74-.19.84,0,1.27.46,1.27,1.39Z"/>
      <path class="cls-6" d="M42.44,105.07v.64h-.69v-.64h.69ZM41.8,106.56h.57v3.52h-.57v-3.52Z"/>
      <path class="cls-6" d="M44.05,109.9c-.25-.15-.45-.36-.59-.63-.14-.27-.21-.59-.21-.96s.07-.69.21-.96c.14-.28.34-.49.6-.65s.56-.23.91-.23c.24,0,.47.04.69.12s.41.2.55.34l-.19.42c-.18-.14-.35-.24-.51-.31-.17-.07-.33-.1-.51-.1-.36,0-.64.12-.85.36-.21.24-.31.58-.31,1s.1.75.3.99.49.35.85.35c.17,0,.34-.03.51-.1.17-.07.34-.17.51-.31l.19.42c-.15.14-.34.25-.56.33-.23.08-.46.12-.7.12-.34,0-.64-.07-.89-.22Z"/>
      <path class="cls-6" d="M48.83,105.09h.57v4.98h-.57v-4.98Z"/>
      <path class="cls-6" d="M53.59,107.87v2.21h-.57v-2.18c0-.33-.07-.57-.2-.72-.13-.15-.34-.23-.62-.23-.33,0-.59.1-.78.3-.2.2-.29.47-.29.81v2.02h-.57v-2.53c0-.36-.02-.69-.06-.99h.54l.06.63c.11-.23.27-.41.48-.53.21-.12.46-.19.74-.19.84,0,1.27.46,1.27,1.39Z"/>
      <path class="cls-6" d="M57.76,104.93v5.15h-.56v-.64c-.1.22-.26.39-.46.51-.21.12-.45.18-.72.18-.31,0-.58-.08-.82-.23-.24-.15-.42-.37-.55-.65-.13-.28-.2-.6-.2-.96s.06-.68.19-.96c.13-.27.31-.48.55-.63s.51-.22.82-.22c.28,0,.52.06.72.18s.36.29.46.5v-2.23h.57ZM56.92,109.31c.19-.24.28-.57.28-1s-.09-.76-.28-1c-.19-.24-.45-.35-.8-.35s-.61.12-.81.35c-.19.23-.29.56-.29.99s.1.77.29,1.01c.19.24.46.36.81.36s.61-.12.8-.35Z"/>
      <path class="cls-6" d="M59.5,105.07v.64h-.69v-.64h.69ZM58.86,106.56h.57v3.52h-.57v-3.52Z"/>
      <path class="cls-6" d="M63.63,106.56v3.52h-.56v-.64c-.1.22-.26.39-.47.51-.21.12-.45.18-.72.18-.31,0-.59-.07-.82-.22s-.42-.36-.55-.63c-.13-.27-.19-.59-.19-.96s.07-.69.2-.96c.13-.28.31-.49.55-.65s.51-.23.82-.23c.28,0,.52.06.72.18.21.12.36.29.47.51v-.61h.56ZM62.79,109.31c.19-.24.28-.57.28-1s-.09-.77-.28-1-.45-.35-.8-.35-.62.12-.81.36-.29.58-.29,1,.09.76.29.99.46.35.81.35.61-.12.8-.35Z"/>
    </g>
    <g>
      <path class="cls-6" d="M12.89,123.6h3.25v.72h-2.36v1.36h2.22v.73h-2.22v2.17h-.9v-4.98Z"/>
      <path class="cls-6" d="M17.79,128.33c-.36-.21-.63-.5-.83-.89-.19-.38-.29-.84-.29-1.36s.1-.97.29-1.35.47-.68.82-.89c.36-.21.78-.31,1.26-.31s.91.1,1.26.31c.36.21.63.5.82.89.19.38.28.84.28,1.35s-.1.98-.29,1.36-.46.68-.82.89c-.36.21-.78.31-1.26.31s-.9-.1-1.26-.31ZM20.12,127.45c.26-.32.38-.77.38-1.37s-.13-1.04-.38-1.35-.62-.47-1.08-.47-.82.16-1.08.47c-.26.31-.38.77-.38,1.36s.13,1.05.38,1.37c.26.32.62.48,1.08.48s.82-.16,1.08-.48Z"/>
      <path class="cls-6" d="M23.29,128.33c-.36-.21-.63-.5-.83-.89-.19-.38-.29-.84-.29-1.36s.1-.97.29-1.35.47-.68.82-.89c.36-.21.78-.31,1.26-.31s.91.1,1.26.31c.36.21.63.5.82.89.19.38.28.84.28,1.35s-.1.98-.29,1.36-.46.68-.82.89c-.36.21-.78.31-1.26.31s-.9-.1-1.26-.31ZM25.62,127.45c.26-.32.38-.77.38-1.37s-.13-1.04-.38-1.35-.62-.47-1.08-.47-.82.16-1.08.47c-.26.31-.38.77-.38,1.36s.13,1.05.38,1.37c.26.32.62.48,1.08.48s.82-.16,1.08-.48Z"/>
      <path class="cls-6" d="M27.84,123.6h1.83c.82,0,1.45.22,1.9.65s.68,1.05.68,1.83-.23,1.41-.68,1.84-1.08.65-1.9.65h-1.83v-4.98ZM29.61,127.84c1.15,0,1.72-.59,1.72-1.76s-.57-1.75-1.72-1.75h-.88v3.51h.88Z"/>
      <path class="cls-6" d="M33.78,128.49c-.33-.1-.62-.25-.85-.44l.31-.66c.24.18.5.32.76.4.26.09.55.13.86.13.34,0,.61-.06.8-.18.19-.12.28-.29.28-.51,0-.19-.09-.33-.26-.43s-.46-.2-.86-.28c-.63-.13-1.08-.31-1.37-.52s-.43-.53-.43-.94c0-.29.08-.55.24-.78.16-.23.38-.41.67-.54.29-.13.63-.2,1.01-.2.35,0,.68.05,1,.16.32.11.57.25.77.44l-.3.66c-.44-.35-.93-.53-1.47-.53-.32,0-.58.07-.76.2-.19.13-.28.31-.28.54,0,.2.08.35.25.45.17.1.45.2.85.29.42.1.75.2,1.02.32.26.11.46.26.6.44.14.18.21.41.21.68,0,.3-.08.56-.24.78-.16.22-.39.39-.69.51s-.65.18-1.06.18c-.38,0-.74-.05-1.08-.15Z"/>
    </g>
    <path class="cls-8" d="M13.57,140.63c-.2-.11-.35-.26-.47-.46-.12-.19-.17-.41-.17-.63,0-.21.06-.42.17-.61.11-.19.27-.35.46-.47.2-.12.41-.17.65-.17.22,0,.43.05.63.16.2.11.35.26.47.45.12.19.17.4.17.64s-.06.44-.17.63-.27.34-.46.46c-.2.11-.41.17-.64.17s-.44-.05-.64-.16Z"/>
    <g>
      <path class="cls-6" d="M22.68,136.92h-1.74v-.49h4.05v.49h-1.74v4.49h-.58v-4.49Z"/>
      <path class="cls-6" d="M28.19,137.9v3.52h-.56v-.64c-.1.22-.26.39-.46.51-.21.12-.45.18-.72.18-.31,0-.59-.07-.82-.22-.24-.15-.42-.36-.55-.63-.13-.27-.19-.59-.19-.96s.07-.69.2-.96.31-.49.55-.65c.24-.15.51-.23.82-.23.28,0,.52.06.72.18s.36.29.47.51v-.61h.56ZM27.35,140.64c.19-.24.28-.57.28-1s-.09-.77-.28-1c-.19-.23-.45-.35-.8-.35s-.61.12-.81.36c-.19.24-.29.58-.29,1s.1.76.29.99.46.35.81.35.61-.12.8-.35Z"/>
      <path class="cls-6" d="M30.05,138.34v1.92c0,.26.05.45.16.55.11.11.26.16.46.16.13,0,.26-.02.38-.06v.48c-.14.05-.31.07-.49.07-.34,0-.6-.09-.79-.28s-.28-.47-.28-.84v-2h-.69v-.45h.69v-.9l.57-.2v1.11h1.01v.45h-1.01Z"/>
      <path class="cls-6" d="M34.84,137.9v3.52h-.56v-.64c-.1.22-.26.39-.47.51-.21.12-.45.18-.72.18-.31,0-.59-.07-.82-.22s-.42-.36-.55-.63c-.13-.27-.19-.59-.19-.96s.07-.69.2-.96c.13-.28.31-.49.55-.65s.51-.23.82-.23c.28,0,.52.06.72.18.21.12.36.29.47.51v-.61h.56ZM34,140.64c.19-.24.28-.57.28-1s-.09-.77-.28-1-.45-.35-.8-.35-.62.12-.81.36-.29.58-.29,1,.09.76.29.99.46.35.81.35.61-.12.8-.35Z"/>
      <path class="cls-6" d="M37.56,140.84l.22-.44c.25.21.5.36.76.45.26.09.55.13.9.13.4,0,.71-.08.93-.24.22-.16.33-.38.33-.66,0-.17-.05-.3-.16-.41s-.24-.19-.41-.25-.4-.12-.68-.19c-.38-.08-.7-.17-.95-.27-.25-.1-.45-.24-.6-.42-.15-.18-.23-.43-.23-.72s.08-.54.22-.75.36-.39.63-.51c.27-.12.59-.18.96-.18s.67.05.97.16.55.26.76.47l-.22.44c-.23-.2-.47-.35-.71-.44-.24-.09-.5-.14-.79-.14-.39,0-.69.08-.91.25-.22.17-.33.39-.33.68,0,.25.1.44.29.57s.49.24.88.33c.43.1.77.2,1.01.28s.45.22.61.39c.16.18.25.41.25.7s-.07.53-.22.74c-.15.21-.36.38-.64.49-.28.12-.6.17-.98.17-.78,0-1.4-.21-1.86-.63Z"/>
      <path class="cls-6" d="M45.23,137.9v3.52h-.56v-.64c-.1.22-.26.39-.47.51-.21.12-.45.18-.72.18-.31,0-.59-.07-.82-.22s-.42-.36-.55-.63c-.13-.27-.19-.59-.19-.96s.07-.69.2-.96c.13-.28.31-.49.55-.65s.51-.23.82-.23c.28,0,.52.06.72.18.21.12.36.29.47.51v-.61h.56ZM44.39,140.64c.19-.24.28-.57.28-1s-.09-.77-.28-1-.45-.35-.8-.35-.62.12-.81.36-.29.58-.29,1,.09.76.29.99.46.35.81.35.61-.12.8-.35Z"/>
      <path class="cls-6" d="M46.33,136.27h.57v5.15h-.57v-5.15Z"/>
      <path class="cls-6" d="M48.75,138.34v1.92c0,.26.05.45.16.55.11.11.26.16.46.16.13,0,.26-.02.38-.06v.48c-.14.05-.31.07-.49.07-.34,0-.6-.09-.79-.28-.19-.19-.28-.47-.28-.84v-2h-.69v-.45h.69v-.9l.57-.2v1.11h1.01v.45h-1.01Z"/>
    </g>
    <path class="cls-8" d="M13.57,150.63c-.2-.11-.35-.26-.47-.46-.12-.19-.17-.41-.17-.63,0-.21.06-.42.17-.61.11-.19.27-.35.46-.47.2-.12.41-.17.65-.17.22,0,.43.05.63.16.2.11.35.26.47.45.12.19.17.4.17.64s-.06.44-.17.63-.27.34-.46.46c-.2.11-.41.17-.64.17s-.44-.05-.64-.16Z"/>
    <g>
      <path class="cls-6" d="M22.68,146.93h-1.74v-.49h4.05v.49h-1.74v4.49h-.58v-4.49Z"/>
      <path class="cls-6" d="M28.19,147.9v3.52h-.56v-.64c-.1.22-.26.39-.46.51-.21.12-.45.18-.72.18-.31,0-.59-.07-.82-.22-.24-.15-.42-.36-.55-.63-.13-.27-.19-.59-.19-.96s.07-.69.2-.96.31-.49.55-.65c.24-.15.51-.23.82-.23.28,0,.52.06.72.18s.36.29.47.51v-.61h.56ZM27.35,150.65c.19-.24.28-.57.28-1s-.09-.77-.28-1c-.19-.23-.45-.35-.8-.35s-.61.12-.81.36c-.19.24-.29.58-.29,1s.1.76.29.99.46.35.81.35.61-.12.8-.35Z"/>
      <path class="cls-6" d="M30.05,148.35v1.92c0,.26.05.45.16.55.11.11.26.16.46.16.13,0,.26-.02.38-.06v.48c-.14.05-.31.07-.49.07-.34,0-.6-.09-.79-.28s-.28-.47-.28-.84v-2h-.69v-.45h.69v-.9l.57-.2v1.11h1.01v.45h-1.01Z"/>
      <path class="cls-6" d="M34.84,147.9v3.52h-.56v-.64c-.1.22-.26.39-.47.51-.21.12-.45.18-.72.18-.31,0-.59-.07-.82-.22s-.42-.36-.55-.63c-.13-.27-.19-.59-.19-.96s.07-.69.2-.96c.13-.28.31-.49.55-.65s.51-.23.82-.23c.28,0,.52.06.72.18.21.12.36.29.47.51v-.61h.56ZM34,150.65c.19-.24.28-.57.28-1s-.09-.77-.28-1-.45-.35-.8-.35-.62.12-.81.36-.29.58-.29,1,.09.76.29.99.46.35.81.35.61-.12.8-.35Z"/>
      <path class="cls-6" d="M37.56,150.85l.22-.44c.25.21.5.36.76.45.26.09.55.13.9.13.4,0,.71-.08.93-.24.22-.16.33-.38.33-.66,0-.17-.05-.3-.16-.41s-.24-.19-.41-.25-.4-.12-.68-.19c-.38-.08-.7-.17-.95-.27-.25-.1-.45-.24-.6-.42-.15-.18-.23-.43-.23-.72s.08-.54.22-.75.36-.39.63-.51c.27-.12.59-.18.96-.18s.67.05.97.16.55.26.76.47l-.22.44c-.23-.2-.47-.35-.71-.44-.24-.09-.5-.14-.79-.14-.39,0-.69.08-.91.25-.22.17-.33.39-.33.68,0,.25.1.44.29.57s.49.24.88.33c.43.1.77.2,1.01.28s.45.22.61.39c.16.18.25.41.25.7s-.07.53-.22.74c-.15.21-.36.38-.64.49-.28.12-.6.17-.98.17-.78,0-1.4-.21-1.86-.63Z"/>
      <path class="cls-6" d="M45.23,147.9v3.52h-.56v-.64c-.1.22-.26.39-.47.51-.21.12-.45.18-.72.18-.31,0-.59-.07-.82-.22s-.42-.36-.55-.63c-.13-.27-.19-.59-.19-.96s.07-.69.2-.96c.13-.28.31-.49.55-.65s.51-.23.82-.23c.28,0,.52.06.72.18.21.12.36.29.47.51v-.61h.56ZM44.39,150.65c.19-.24.28-.57.28-1s-.09-.77-.28-1-.45-.35-.8-.35-.62.12-.81.36-.29.58-.29,1,.09.76.29.99.46.35.81.35.61-.12.8-.35Z"/>
      <path class="cls-6" d="M51.41,149.21v2.21h-.57v-2.18c0-.33-.06-.57-.17-.72s-.3-.22-.56-.22c-.3,0-.53.1-.7.3-.17.2-.25.47-.25.82v2.01h-.57v-2.18c0-.33-.06-.57-.17-.72-.12-.15-.3-.23-.56-.23-.3,0-.53.1-.7.3-.17.2-.26.47-.26.82v2.01h-.57v-2.53c0-.36-.02-.69-.06-.99h.54l.06.62c.1-.22.24-.4.44-.52.19-.12.42-.18.68-.18.28,0,.51.06.69.17.18.11.31.28.39.52.11-.21.27-.38.47-.5.21-.12.44-.19.7-.19.78,0,1.17.46,1.17,1.39Z"/>
      <path class="cls-6" d="M55.06,148.05c.24.15.42.37.55.65.13.28.2.6.2.96s-.07.68-.2.96c-.13.27-.31.48-.55.63-.24.15-.51.22-.82.22-.28,0-.52-.06-.72-.18s-.36-.29-.47-.52v2.16h-.57v-4.05c0-.36-.02-.69-.06-.99h.54l.06.68c.1-.24.25-.43.47-.56.21-.13.46-.2.75-.2.31,0,.58.08.82.23ZM54.94,150.65c.19-.23.28-.57.28-.99s-.1-.76-.29-1-.46-.36-.8-.36-.62.12-.8.35c-.19.23-.28.57-.28,1s.09.77.28,1c.19.24.46.35.8.35s.61-.12.8-.35Z"/>
      <path class="cls-6" d="M59.78,147.9v3.52h-.56v-.64c-.1.22-.26.39-.47.51-.21.12-.45.18-.72.18-.31,0-.59-.07-.82-.22s-.42-.36-.55-.63c-.13-.27-.19-.59-.19-.96s.07-.69.2-.96c.13-.28.31-.49.55-.65s.51-.23.82-.23c.28,0,.52.06.72.18.21.12.36.29.47.51v-.61h.56ZM58.94,150.65c.19-.24.28-.57.28-1s-.09-.77-.28-1-.45-.35-.8-.35-.62.12-.81.36-.29.58-.29,1,.09.76.29.99.46.35.81.35.61-.12.8-.35Z"/>
      <path class="cls-6" d="M63.91,149.21v2.21h-.57v-2.18c0-.33-.07-.57-.2-.72s-.34-.23-.62-.23c-.33,0-.59.1-.78.3-.2.2-.29.47-.29.81v2.02h-.57v-2.53c0-.36-.02-.69-.06-.99h.54l.06.63c.11-.23.27-.41.48-.53.21-.12.46-.19.74-.19.84,0,1.27.46,1.27,1.39Z"/>
      <path class="cls-6" d="M68,149.21v2.21h-.57v-2.18c0-.33-.07-.57-.2-.72s-.34-.23-.62-.23c-.33,0-.59.1-.78.3-.2.2-.29.47-.29.81v2.02h-.57v-2.53c0-.36-.02-.69-.06-.99h.54l.06.63c.11-.23.27-.41.48-.53.21-.12.46-.19.74-.19.84,0,1.27.46,1.27,1.39Z"/>
    </g>
    <path class="cls-8" d="M13.57,160.64c-.2-.11-.35-.26-.47-.46-.12-.19-.17-.41-.17-.63,0-.21.06-.42.17-.61.11-.19.27-.35.46-.47.2-.12.41-.17.65-.17.22,0,.43.05.63.16.2.11.35.26.47.45.12.19.17.4.17.64s-.06.44-.17.63-.27.34-.46.46c-.2.11-.41.17-.64.17s-.44-.05-.64-.16Z"/>
    <g>
      <path class="cls-6" d="M22.68,156.93h-1.74v-.49h4.05v.49h-1.74v4.49h-.58v-4.49Z"/>
      <path class="cls-6" d="M28.19,157.9v3.52h-.56v-.64c-.1.22-.26.39-.46.51-.21.12-.45.18-.72.18-.31,0-.59-.07-.82-.22-.24-.15-.42-.36-.55-.63-.13-.27-.19-.59-.19-.96s.07-.69.2-.96.31-.49.55-.65c.24-.15.51-.23.82-.23.28,0,.52.06.72.18s.36.29.47.51v-.61h.56ZM27.35,160.65c.19-.24.28-.57.28-1s-.09-.77-.28-1c-.19-.23-.45-.35-.8-.35s-.61.12-.81.36c-.19.24-.29.58-.29,1s.1.76.29.99.46.35.81.35.61-.12.8-.35Z"/>
      <path class="cls-6" d="M30.05,158.35v1.92c0,.26.05.45.16.55.11.11.26.16.46.16.13,0,.26-.02.38-.06v.48c-.14.05-.31.07-.49.07-.34,0-.6-.09-.79-.28s-.28-.47-.28-.84v-2h-.69v-.45h.69v-.9l.57-.2v1.11h1.01v.45h-1.01Z"/>
      <path class="cls-6" d="M34.84,157.9v3.52h-.56v-.64c-.1.22-.26.39-.47.51-.21.12-.45.18-.72.18-.31,0-.59-.07-.82-.22s-.42-.36-.55-.63c-.13-.27-.19-.59-.19-.96s.07-.69.2-.96c.13-.28.31-.49.55-.65s.51-.23.82-.23c.28,0,.52.06.72.18.21.12.36.29.47.51v-.61h.56ZM34,160.65c.19-.24.28-.57.28-1s-.09-.77-.28-1-.45-.35-.8-.35-.62.12-.81.36-.29.58-.29,1,.09.76.29.99.46.35.81.35.61-.12.8-.35Z"/>
      <path class="cls-6" d="M41.75,161.42h-.61l-.62-1.66c-.08-.21-.18-.34-.31-.41-.13-.07-.32-.1-.56-.1h-1.25v2.18h-.57v-4.98h1.98c.54,0,.95.12,1.24.36s.43.58.43,1.03c0,.33-.09.6-.26.82-.17.22-.42.38-.74.47.14.02.27.08.37.19.1.1.19.24.26.43l.63,1.69ZM39.77,158.77c.77,0,1.15-.31,1.15-.94,0-.31-.09-.54-.28-.69s-.48-.23-.87-.23h-1.36v1.85h1.36Z"/>
      <path class="cls-6" d="M45.72,157.9v3.52h-.56v-.64c-.1.22-.26.39-.47.51-.21.12-.45.18-.72.18-.31,0-.59-.07-.82-.22s-.42-.36-.55-.63c-.13-.27-.19-.59-.19-.96s.07-.69.2-.96c.13-.28.31-.49.55-.65s.51-.23.82-.23c.28,0,.52.06.72.18.21.12.36.29.47.51v-.61h.56ZM44.88,160.65c.19-.24.28-.57.28-1s-.09-.77-.28-1-.45-.35-.8-.35-.62.12-.81.36-.29.58-.29,1,.09.76.29.99.46.35.81.35.61-.12.8-.35Z"/>
      <path class="cls-6" d="M49.92,157.9v3.52h-.56v-.64c-.1.22-.26.39-.46.51-.21.12-.45.18-.72.18-.31,0-.59-.07-.82-.22-.24-.15-.42-.36-.55-.63-.13-.27-.19-.59-.19-.96s.07-.69.2-.96.31-.49.55-.65c.24-.15.51-.23.82-.23.28,0,.52.06.72.18s.36.29.47.51v-.61h.56ZM49.08,160.65c.19-.24.28-.57.28-1s-.09-.77-.28-1c-.19-.23-.45-.35-.8-.35s-.61.12-.81.36c-.19.24-.29.58-.29,1s.1.76.29.99.46.35.81.35.61-.12.8-.35Z"/>
      <path class="cls-6" d="M50.8,161.02l.19-.42c.19.15.38.26.58.32.2.07.42.1.66.1.27,0,.47-.04.61-.14.14-.09.21-.22.21-.4,0-.14-.05-.25-.14-.34-.09-.08-.25-.15-.46-.2l-.59-.14c-.29-.07-.52-.18-.68-.35s-.24-.37-.24-.6c0-.31.12-.56.37-.75s.57-.29.98-.29c.25,0,.48.04.7.12.22.08.4.19.55.34l-.19.41c-.33-.27-.69-.41-1.06-.41-.25,0-.45.05-.58.14s-.21.23-.21.4c0,.14.04.26.13.34s.23.15.42.2l.59.15c.33.08.57.19.73.35.16.16.24.36.24.61,0,.3-.12.55-.37.73-.25.18-.58.27-1.01.27-.59,0-1.06-.15-1.41-.46Z"/>
      <path class="cls-6" d="M57.59,157.9v3.52h-.56v-.64c-.1.22-.26.39-.46.51-.21.12-.45.18-.72.18-.31,0-.59-.07-.82-.22-.24-.15-.42-.36-.55-.63-.13-.27-.19-.59-.19-.96s.07-.69.2-.96.31-.49.55-.65c.24-.15.51-.23.82-.23.28,0,.52.06.72.18s.36.29.47.51v-.61h.56ZM56.75,160.65c.19-.24.28-.57.28-1s-.09-.77-.28-1c-.19-.23-.45-.35-.8-.35s-.61.12-.81.36c-.19.24-.29.58-.29,1s.1.76.29.99.46.35.81.35.61-.12.8-.35Z"/>
    </g>
    <path class="cls-8" d="M13.57,170.64c-.2-.11-.35-.26-.47-.46-.12-.19-.17-.41-.17-.63,0-.21.06-.42.17-.61.11-.19.27-.35.46-.47.2-.12.41-.17.65-.17.22,0,.43.05.63.16.2.11.35.26.47.45.12.19.17.4.17.64s-.06.44-.17.63-.27.34-.46.46c-.2.11-.41.17-.64.17s-.44-.05-.64-.16Z"/>
    <g>
      <path class="cls-6" d="M20.82,172.18c.21.04.38.06.5.06.24,0,.41-.07.5-.2.09-.13.14-.36.14-.68v-4.91h.57v4.91c0,.49-.09.84-.26,1.05-.17.21-.46.32-.86.32-.16,0-.36-.02-.59-.06v-.5Z"/>
      <path class="cls-6" d="M24.29,171.25c-.25-.15-.45-.36-.58-.64s-.21-.6-.21-.97.07-.69.21-.97.33-.49.58-.64.54-.22.88-.22.62.08.88.22.45.36.58.64.21.6.21.97-.07.69-.21.97-.33.49-.58.64-.54.22-.88.22-.62-.07-.88-.22ZM25.97,170.66c.19-.23.28-.57.28-1.01s-.1-.76-.29-1-.46-.35-.8-.35-.61.12-.81.35-.29.57-.29,1,.09.78.28,1.01c.19.23.46.35.81.35s.62-.12.8-.35Z"/>
      <path class="cls-6" d="M30.77,167.9l-1.65,3.84c-.17.4-.39.7-.65.88-.26.19-.58.31-.97.38l-.12-.44c.33-.08.58-.17.75-.3.17-.12.31-.31.42-.57l.14-.32-1.49-3.49h.6l1.19,2.91,1.2-2.91h.57Z"/>
      <path class="cls-6" d="M32.4,166.89c-.1.1-.16.29-.16.54v.47h.86v.45h-.86v3.07h-.57v-3.07h-.69v-.45h.69v-.54c0-.37.09-.65.28-.84.18-.19.44-.28.77-.28.16,0,.32.02.48.06v.48c-.13-.04-.25-.06-.36-.06-.19,0-.33.05-.44.16Z"/>
      <path class="cls-6" d="M36.79,167.9v3.52h-.55v-.61c-.11.21-.27.38-.47.49-.2.11-.43.17-.68.17-.42,0-.73-.12-.94-.35-.21-.23-.32-.58-.32-1.04v-2.18h.57v2.17c0,.32.07.55.2.7s.33.22.59.22c.31,0,.57-.1.76-.3.19-.2.29-.47.29-.8v-1.99h.57Z"/>
      <path class="cls-6" d="M37.88,166.27h.57v5.15h-.57v-5.15Z"/>
      <path class="cls-6" d="M39.55,166.27h.57v5.15h-.57v-5.15Z"/>
      <path class="cls-6" d="M47.82,166.44v4.98h-.53v-3.7l-1.62,3.7h-.41l-1.63-3.67v3.67s-.52,0-.52,0v-4.98h.48l1.89,4.3,1.87-4.3h.48Z"/>
      <path class="cls-6" d="M49.62,166.41v.64h-.69v-.64h.69ZM48.98,167.9h.57v3.52h-.57v-3.52Z"/>
      <path class="cls-6" d="M50.65,166.27h.57v5.15h-.57v-5.15Z"/>
      <path class="cls-6" d="M52.31,166.27h.57v5.15h-.57v-5.15Z"/>
      <path class="cls-6" d="M56.93,169.65h-2.58c0,.45.11.79.31,1.02.2.23.5.34.88.34.41,0,.79-.14,1.13-.41l.19.41c-.15.14-.35.26-.59.34s-.49.13-.74.13c-.55,0-.98-.16-1.29-.49s-.47-.77-.47-1.33c0-.36.07-.68.21-.96.14-.28.34-.49.59-.65s.54-.23.86-.23c.47,0,.83.15,1.1.46s.4.73.4,1.26v.1ZM54.72,168.53c-.18.18-.3.43-.35.75h2.05c-.03-.33-.12-.58-.29-.76-.17-.17-.4-.26-.69-.26s-.53.09-.72.27Z"/>
      <path class="cls-6" d="M58.52,168.35v1.92c0,.26.05.45.16.55.11.11.26.16.46.16.13,0,.26-.02.38-.06v.48c-.14.05-.31.07-.49.07-.34,0-.6-.09-.79-.28s-.28-.47-.28-.84v-2h-.69v-.45h.69v-.9l.57-.2v1.11h1.01v.45h-1.01Z"/>
      <path class="cls-6" d="M60,171.02l.19-.42c.19.15.38.26.58.32.2.07.42.1.66.1.27,0,.47-.04.61-.14.14-.09.21-.22.21-.4,0-.14-.05-.25-.14-.34-.09-.08-.25-.15-.46-.2l-.59-.14c-.29-.07-.52-.18-.68-.35s-.24-.37-.24-.6c0-.31.12-.56.37-.75s.57-.29.98-.29c.25,0,.48.04.7.12.22.08.4.19.55.34l-.19.41c-.33-.27-.69-.41-1.06-.41-.25,0-.45.05-.58.14s-.21.23-.21.4c0,.14.04.26.13.34s.23.15.42.2l.59.15c.33.08.57.19.73.35.16.16.24.36.24.61,0,.3-.12.55-.37.73-.25.18-.58.27-1.01.27-.59,0-1.06-.15-1.41-.46Z"/>
    </g>
    <path class="cls-8" d="M13.51,180.63c-.19-.11-.33-.26-.45-.46-.11-.19-.17-.41-.17-.63,0-.21.05-.42.16-.61s.25-.35.44-.47c.19-.12.39-.17.62-.17.21,0,.41.05.6.16.19.11.33.26.45.45.11.19.17.4.17.64s-.05.44-.16.63-.26.34-.44.46-.39.17-.61.17-.42-.05-.6-.16Z"/>
    <g>
      <path class="cls-6" d="M22.37,181.17c-.35-.21-.62-.5-.8-.89s-.28-.84-.28-1.36.09-.97.28-1.35c.19-.38.45-.67.8-.88.35-.21.76-.31,1.23-.31.34,0,.66.05.95.16.29.11.54.26.75.47l-.22.44c-.24-.21-.47-.35-.7-.44-.23-.09-.49-.13-.77-.13-.55,0-.97.18-1.27.53s-.45.86-.45,1.51.15,1.17.45,1.52.72.54,1.27.54c.28,0,.54-.04.77-.13.23-.09.46-.24.7-.44l.22.44c-.21.21-.46.37-.75.47-.29.11-.6.16-.95.16-.47,0-.88-.1-1.23-.31Z"/>
      <path class="cls-6" d="M29.22,179.21v2.21h-.57v-2.18c0-.33-.07-.57-.2-.72s-.34-.23-.62-.23c-.33,0-.59.1-.78.3-.2.2-.29.47-.29.81v2.02h-.57v-5.15h.57v2.21c.11-.21.27-.38.48-.49.21-.11.45-.17.71-.17.84,0,1.27.46,1.27,1.39Z"/>
      <path class="cls-6" d="M30.92,176.41v.64h-.69v-.64h.69ZM30.29,177.9h.57v3.52h-.57v-3.52Z"/>
      <path class="cls-6" d="M34.98,179.21v2.21h-.57v-2.18c0-.33-.07-.57-.2-.72s-.34-.23-.62-.23c-.33,0-.59.1-.78.3-.2.2-.29.47-.29.81v2.02h-.57v-2.53c0-.36-.02-.69-.06-.99h.54l.06.63c.11-.23.27-.41.48-.53.21-.12.46-.19.74-.19.84,0,1.27.46,1.27,1.39Z"/>
      <path class="cls-6" d="M39.18,177.9v3.49c0,.52-.13.92-.4,1.19s-.66.4-1.19.4-1-.12-1.39-.36l.1-.46c.22.13.44.22.63.27.2.06.42.08.65.08.34,0,.6-.09.77-.27.17-.18.26-.45.26-.8v-.83c-.11.22-.27.4-.47.52-.21.12-.45.18-.74.18-.31,0-.58-.07-.82-.22s-.43-.35-.56-.62c-.13-.27-.2-.57-.2-.92s.07-.65.2-.92c.13-.27.32-.47.56-.62s.51-.22.82-.22c.28,0,.52.06.73.18.21.12.37.29.47.51v-.61h.57ZM38.33,180.5c.19-.23.29-.54.29-.93s-.1-.71-.29-.93c-.19-.23-.46-.34-.8-.34s-.62.11-.82.34c-.2.23-.3.54-.3.93s.1.71.3.93c.2.23.47.34.82.34s.61-.11.8-.34Z"/>
      <path class="cls-6" d="M40.9,176.43v.51c0,.2-.03.38-.1.54-.07.16-.17.32-.33.48l-.27-.21c.18-.21.28-.41.31-.6h-.34v-.72h.72Z"/>
      <path class="cls-6" d="M41.47,181.01l.19-.42c.19.15.38.26.58.32.2.07.42.1.66.1.27,0,.47-.04.61-.14.14-.09.21-.22.21-.4,0-.14-.05-.25-.14-.34-.09-.08-.25-.15-.46-.2l-.59-.14c-.29-.07-.52-.18-.68-.35s-.24-.37-.24-.6c0-.31.12-.56.37-.75s.57-.29.98-.29c.25,0,.48.04.7.12.22.08.4.19.55.34l-.19.41c-.33-.27-.69-.41-1.06-.41-.25,0-.45.05-.58.14s-.21.23-.21.4c0,.14.04.26.13.34s.23.15.42.2l.59.15c.33.08.57.19.73.35.16.16.24.36.24.61,0,.3-.12.55-.37.73-.25.18-.58.27-1.01.27-.59,0-1.06-.15-1.41-.46Z"/>
      <path class="cls-6" d="M46.78,180.84l.22-.44c.25.21.5.36.76.45.26.09.55.13.9.13.4,0,.71-.08.93-.24.22-.16.33-.38.33-.66,0-.17-.05-.3-.16-.41s-.24-.19-.41-.25-.4-.12-.68-.19c-.38-.08-.7-.17-.95-.27-.25-.1-.45-.24-.6-.42-.15-.18-.23-.43-.23-.72s.08-.54.22-.75.36-.39.63-.51c.27-.12.59-.18.96-.18s.67.05.97.16.55.26.76.47l-.22.44c-.23-.2-.47-.35-.71-.44-.24-.09-.5-.14-.79-.14-.39,0-.69.08-.91.25-.22.17-.33.39-.33.68,0,.25.1.44.29.57s.49.24.88.33c.43.1.77.2,1.01.28s.45.22.61.39c.16.18.25.41.25.7s-.07.53-.22.74c-.15.21-.36.38-.64.49-.28.12-.6.17-.98.17-.78,0-1.4-.21-1.86-.63Z"/>
      <path class="cls-6" d="M54.3,179.64h-2.58c0,.45.11.79.31,1.02.2.23.5.34.88.34.41,0,.79-.14,1.13-.41l.19.41c-.15.14-.35.26-.59.34s-.49.13-.74.13c-.55,0-.98-.16-1.29-.49s-.47-.77-.47-1.33c0-.36.07-.68.21-.96.14-.28.34-.49.59-.65s.54-.23.86-.23c.47,0,.83.15,1.1.46s.4.73.4,1.26v.1ZM52.09,178.52c-.18.18-.3.43-.35.75h2.05c-.03-.33-.12-.58-.29-.76-.17-.17-.4-.26-.69-.26s-.53.09-.72.27Z"/>
      <path class="cls-6" d="M55.74,181.24c-.25-.15-.45-.36-.59-.63-.14-.27-.21-.59-.21-.96s.07-.69.21-.96c.14-.28.34-.49.6-.65s.56-.23.91-.23c.24,0,.47.04.69.12.22.08.4.2.55.34l-.19.42c-.18-.14-.35-.24-.51-.31-.17-.07-.33-.1-.51-.1-.36,0-.64.12-.85.36-.21.24-.31.58-.31,1s.1.75.3.99.49.35.85.35c.17,0,.34-.03.51-.1.17-.07.34-.17.51-.31l.19.42c-.15.14-.34.25-.56.33-.23.08-.46.12-.7.12-.34,0-.64-.07-.89-.22Z"/>
      <path class="cls-6" d="M60.58,177.85v.52c-.12-.04-.24-.06-.38-.06-.34,0-.59.11-.76.32-.17.21-.25.47-.25.77v2.01h-.57v-2.53c0-.36-.02-.69-.06-.99h.54l.06.65c.09-.24.23-.42.43-.55.2-.13.42-.19.67-.19.12,0,.22.01.32.04Z"/>
      <path class="cls-6" d="M64.04,179.64h-2.58c0,.45.11.79.31,1.02s.5.34.89.34c.41,0,.79-.14,1.13-.41l.19.41c-.15.14-.35.26-.59.34s-.49.13-.74.13c-.55,0-.98-.16-1.29-.49-.31-.32-.47-.77-.47-1.33,0-.36.07-.68.21-.96.14-.28.34-.49.59-.65.25-.15.54-.23.86-.23.47,0,.83.15,1.1.46.27.31.4.73.4,1.26v.1ZM61.83,178.52c-.18.18-.3.43-.35.75h2.05c-.03-.33-.12-.58-.29-.76-.17-.17-.4-.26-.69-.26s-.53.09-.72.27Z"/>
      <path class="cls-6" d="M65.64,178.34v1.92c0,.26.05.45.16.55.11.11.26.16.46.16.13,0,.26-.02.38-.06v.48c-.14.05-.31.07-.49.07-.34,0-.6-.09-.79-.28-.19-.19-.28-.47-.28-.84v-2h-.69v-.45h.69v-.9l.57-.2v1.11h1.01v.45h-1.01Z"/>
    </g>
    <g class="cls-4">
      <path class="cls-1" d="M102.65,123.29c.16-.06.34-.09.53-.09.86,0,1.56.67,1.56,1.5s-.7,1.5-1.56,1.5c-.02,0-.03,0-.05,0-.03,0-.07,0-.11,0,.02-.01.04-.03.05-.05.3-.27.48-.66.48-1.08,0-.65-.43-1.2-1.03-1.41-.18.35-.49.64-.88.77M101.64,124.43c.39-.13.71-.41.88-.77.6.21,1.03.76,1.03,1.41,0,.42-.18.81-.48,1.08-.01.02-.03.03-.05.05-.28.23-.64.37-1.03.37-.03,0-.06,0-.09,0l.09-.36s0-.1-.01-.14M103.54,127.24c0,.83-.7,1.5-1.56,1.5-.18,0-.35-.03-.51-.08.24-.38.38-.92.27-1.52l.14-.56s.06,0,.09,0c.4,0,.75-.14,1.03-.37.02-.01.04-.03.05-.05.02.01.03.03.05.05.26.27.43.63.43,1.03ZM102.67,123.01c0,.1,0,.19-.03.28-.03.13-.07.25-.13.37-.18.35-.49.64-.88.77-.04.01-.08.03-.12.04l-.42-.63-.11-.17c.11-.62-.04-1.05-.32-1.4.09-.17.13-.34.13-.51v-.07l-.05-.13c.11-.03.24-.04.36-.04.87,0,1.57.67,1.57,1.5ZM101.16,127.68c-.01.09-.03.08-.06.16-.17.33-.55.59-1.15.54-.09.17-.2.3-.33.39-.21.16-.47.24-.76.27-.07.18-.18.32-.3.43-.26.22-.64.33-1.1.32-.58.12-1.04-.03-1.4-.41-.44-.14-.74-.38-.86-.72-.7-.14-1.15-.55-1.47-1.11-.19-.07-.36-.21-.49-.39-.19-.25-.31-.59-.36-.86-.31-.42-.45-.87-.43-1.34-.12-.05-.25-.13-.36-.26-.19-.2-.36-.54-.36-1.1s.18-.9.36-1.1c.12-.13.25-.21.36-.26-.02-.47.12-.92.43-1.34.05-.28.17-.61.36-.86.13-.18.3-.31.49-.39.31-.57.77-.98,1.47-1.11.12-.34.42-.58.86-.72.36-.38.82-.54,1.4-.41.47,0,.85.1,1.1.32.13.11.23.25.3.43.29.03.56.11.76.27.17.13.32.32.4.58l.21.57.05.13v.07c0,.17-.04.34-.13.51.27.35.42.78.32,1.4l.11.17.42.63.03.05c.03.1.04.2.04.31,0,.13-.03.27-.1.43.18.13.3.3.38.49.04.11.07.21.09.33,0,.04.01.09.01.14l-.09.36-.14.56c.1.6-.03,1.14-.27,1.52,0,.01-.01.03-.02.04l.29.17c.33.2.29.68-.07.83ZM95.89,123.39c.21,0,.38.16.38.36s-.17.37-.38.37-.38-.17-.38-.37.17-.36.38-.36ZM94.94,124.13c.21,0,.38.16.38.36s-.17.37-.38.37-.38-.16-.38-.37.17-.36.38-.36ZM98.56,125.08c.2.05.41-.07.46-.26.05-.19-.07-.4-.27-.45-.2-.05-.41.07-.46.26-.05.19.07.39.27.45ZM95.7,124.86c.21,0,.38.16.38.37s-.17.37-.38.37-.38-.17-.38-.37.17-.37.38-.37ZM97.63,125.59c.2.05.41-.07.46-.26.05-.19-.07-.39-.27-.44-.2-.05-.41.07-.46.26-.05.19.07.4.27.45ZM96.17,125.89s-.09.02-.14.02c-.1,0-.22-.02-.33-.05-.47-.11-1.02-.38-1.19-.65-.14-.23-.15-.67-.11-1.1.04-.44.13-.86.28-1.04.04-.06.14-.09.25-.12.25-.08.57-.11.86-.08.15.01.29.04.4.08.06.03.12.05.15.09.05.08.07.21.1.37.04.31.04.71.01,1.11-.03.39-.08.79-.16,1.08l-.11.3ZM98.35,126.53c.2.05.41-.07.46-.26.05-.19-.07-.39-.27-.45-.2-.05-.41.07-.46.26-.05.19.07.4.27.45ZM99.31,124.51c0,.3-.06.69-.14,1.08-.08.39-.19.78-.31,1.07-.06.15-.12.27-.19.33-.04.04-.1.04-.17.05-.12.01-.27,0-.41-.02-.29-.05-.58-.16-.8-.29-.1-.06-.18-.11-.21-.18-.1-.21-.07-.64.01-1.07.07-.42.2-.85.4-1.04.24-.22.85-.34,1.33-.34.12,0,.24.01.33.04.04.01.11.04.13.05l.02.32ZM98.17,116.27c-4.19,0-7.6,3.28-7.6,7.31s3.4,7.31,7.6,7.31,7.6-3.28,7.6-7.31-3.4-7.31-7.6-7.31Z"/>
      <path class="cls-1" d="M96.82,47.77c-4.3-.26-5.17-3.98-5.17-7.1h11.32c0,.49-.02.99-.07,1.5"/>
      <path class="cls-3" d="M99.31,39.09c1.81-2.27-1.86-2.2.38-4.54M96.86,39.09c1.81-2.27-1.85-2.2.38-4.54M94.41,39.09c1.81-2.27-1.86-2.2.38-4.54M90.74,48.93h5.66M91.69,42.12c-.14-.48-1.04-1.03-1.91-.8-.73.2-1.11.91-.82,1.85.43,1.41,2.65,1.02,3.79,2.39"/>
      <path class="cls-1" d="M97.12,50.1c1.86-2.86,4.63-3.86,6.76-4.98M98.26,48.67c-.34-2.69,1.02-4.15,2.71-4.71,1.79-.59,3.97-.22,5.33-.89-.05,5.14-4.69,6.98-7.11,6.08"/>
    </g>
  </g>
</svg>