<?xml version="1.0" encoding="UTF-8"?>
<svg id="Layer_1" data-name="Layer 1" xmlns="http://www.w3.org/2000/svg" xmlns:xlink="http://www.w3.org/1999/xlink" viewBox="0 0 34.58 34.58">
  <defs>
    <style>
      .cls-1 {
        stroke: #231f20;
        stroke-linecap: round;
        stroke-linejoin: round;
        stroke-width: .5px;
      }

      .cls-1, .cls-2 {
        fill: none;
      }

      .cls-3 {
        clip-path: url(#clippath);
      }

      .cls-2, .cls-4 {
        stroke-width: 0px;
      }

      .cls-4 {
        fill: #fff200;
      }
    </style>
    <clipPath id="clippath">
      <rect class="cls-2" x="8.42" y="6.75" width="17.75" height="18.01"/>
    </clipPath>
  </defs>
  <path class="cls-4" d="M17.29,34.58C7.74,34.58,0,26.84,0,17.29S7.74,0,17.29,0s17.29,7.74,17.29,17.29-7.74,17.29-17.29,17.29"/>
  <g class="cls-3">
    <path class="cls-1" d="M19.71,17.15c-.13-.76-.59-1.38-1.23-1.73l-.11.85c-.02.15-.15.24-.28.24h-.06c-.15-.02-.24-.17-.22-.31l.15-1.16c.02-.09-.06-.17-.15-.17h-1.05c-.09,0-.15.09-.15.17l.15,1.16c.02.15-.07.3-.22.31h-.06c-.15,0-.26-.11-.28-.24l-.11-.85c-.65.35-1.11.99-1.24,1.73-.24.04-.42.24-.42.5v.22c0,.11.09.2.2.2h5.29c.11,0,.2-.09.2-.2v-.22c0-.26-.18-.46-.42-.5ZM18.23,18.9c0,.52-.42.94-.94.94s-.94-.42-.94-.94c0-.05,0-.13.02-.18h-1.71v.48c0,.11.07.2.18.2l.66.07s.04.02.06.04c.02.07.05.15.09.22.02.02,0,.06,0,.07l-.42.52c-.07.09-.05.2.02.28l.41.41c.07.07.18.07.28.02l.52-.42s.04-.02.06,0c.07.04.15.07.22.09.02,0,.04.02.04.05l.06.66c.02.11.09.18.2.18h.57c.11,0,.2-.07.2-.18l.07-.66s.02-.04.04-.05c.07-.02.15-.06.22-.09.02-.02.06-.02.07,0l.52.42c.07.07.2.06.28-.02l.4-.41c.07-.07.07-.2.02-.28l-.46-.53s-.02-.04,0-.07c.04-.07.06-.15.09-.22.02-.02.04-.04.05-.04l.66-.07c.11-.02.18-.09.18-.2v-.48h-1.73c0,.07.02.15.02.2ZM23.23,17.17c.9,0,1.62.73,1.62,1.62s-.73,1.62-1.62,1.62-1.62-.73-1.62-1.62.73-1.62,1.62-1.62ZM24.66,20.88c-.41.29-.9.46-1.44.46s-1.03-.17-1.44-.46c-.72.26-1.23.96-1.23,1.77v.76c0,.09.07.17.17.17h5.03c.09,0,.17-.07.17-.17v-.76c0-.83-.52-1.51-1.25-1.77ZM11.36,17.17c.9,0,1.62.73,1.62,1.62s-.73,1.62-1.62,1.62-1.62-.73-1.62-1.62.73-1.62,1.62-1.62ZM12.79,20.88c-.41.28-.9.46-1.44.46s-1.03-.17-1.46-.46c-.72.26-1.23.96-1.23,1.77v.76c0,.09.07.17.16.17h5.03c.09,0,.17-.07.17-.17v-.76c.02-.83-.5-1.51-1.24-1.77ZM14.77,13.39h5.03c.09,0,.17-.07.17-.16v-.76c0-.81-.53-1.51-1.25-1.75-.4.28-.9.44-1.44.44s-1.03-.16-1.44-.44c-.74.26-1.25.94-1.25,1.75v.76c.02.09.09.16.18.16ZM17.29,7c.9,0,1.62.73,1.62,1.62s-.73,1.62-1.62,1.62-1.62-.73-1.62-1.62.73-1.62,1.62-1.62ZM13.68,12.42c-1.35.88-2.36,2.27-2.78,3.87M23.65,16.29c-.41-1.6-1.42-2.99-2.76-3.87M14.78,24.01c.77.33,1.64.5,2.53.5s1.75-.19,2.52-.5"/>
  </g>
</svg>