<?xml version="1.0" encoding="UTF-8"?>
<svg id="Layer_1" data-name="Layer 1" xmlns="http://www.w3.org/2000/svg" xmlns:xlink="http://www.w3.org/1999/xlink" viewBox="0 0 34.58 34.58">
  <defs>
    <style>
      .cls-1 {
        stroke: #231f20;
        stroke-linecap: round;
        stroke-linejoin: round;
        stroke-width: .5px;
      }

      .cls-1, .cls-2 {
        fill: none;
      }

      .cls-3 {
        clip-path: url(#clippath);
      }

      .cls-2, .cls-4 {
        stroke-width: 0px;
      }

      .cls-4 {
        fill: #fff200;
      }
    </style>
    <clipPath id="clippath">
      <rect class="cls-2" x="8.22" y="8" width="19.02" height="18.45"/>
    </clipPath>
  </defs>
  <path class="cls-4" d="M17.29,34.58C7.74,34.58,0,26.84,0,17.29S7.74,0,17.29,0s17.29,7.74,17.29,17.29-7.74,17.29-17.29,17.29"/>
  <g class="cls-3">
    <path class="cls-1" d="M23.81,25.66c0,.3-.25.55-.55.55s-.55-.25-.55-.55.25-.55.55-.55.55.25.55.55ZM21.38,25.66c0,.3-.25.55-.55.55s-.55-.25-.55-.55.25-.55.55-.55.55.25.55.55ZM15.57,19.51v1.48M24.32,23.27h-4.36l-1.48-3.05,5.79-.45M25.09,17.91s-.65.03-.63.62c.02.59,0,4.3,0,4.74,0,.57-.07,1.03-1.11,1.03h-3.82M26.55,18.4h-1.01c-.25,0-.44-.2-.44-.44s.2-.44.44-.44h1.01c.25,0,.44.2.44.44s-.2.44-.44.44ZM23.06,14.84h-13.25M23.06,13.47v5.56M11.32,23.43v-6.42h5.53v6.42M18.79,23.53h-10.06v1.53h10.06M9.81,13.47v10.06M12.64,9.43h-2.71M9.81,12.45v-3.85h2.83v1.92M16.41,8.25l-7.94,5.09h15.82l-7.88-5.09Z"/>
  </g>
</svg>