<?xml version="1.0" encoding="UTF-8"?>
<svg id="Layer_1" data-name="Layer 1" xmlns="http://www.w3.org/2000/svg" xmlns:xlink="http://www.w3.org/1999/xlink" viewBox="0 0 34.58 34.58">
  <defs>
    <style>
      .cls-1 {
        clip-path: url(#clippath);
      }

      .cls-2, .cls-3 {
        stroke-width: 0px;
      }

      .cls-2, .cls-4 {
        fill: none;
      }

      .cls-3 {
        fill: #fff200;
      }

      .cls-4 {
        stroke: #231f20;
        stroke-miterlimit: 10;
        stroke-width: .5px;
      }
    </style>
    <clipPath id="clippath">
      <rect class="cls-2" x="9.28" y="7.43" width="16.02" height="19.61"/>
    </clipPath>
  </defs>
  <path class="cls-3" d="M17.29,34.58C7.74,34.58,0,26.84,0,17.29S7.74,0,17.29,0s17.29,7.74,17.29,17.29-7.74,17.29-17.29,17.29"/>
  <g class="cls-1">
    <path class="cls-4" d="M22.73,16.96h1.26c.59,0,1.06.48,1.06,1.06v2.6c0,.59-.48,1.06-1.06,1.06h-1.37M13.73,15.8v4.09M14.78,21.91h-2.09v-2.09h2.09v2.09ZM16.5,26.71h0c-3.44,0-6.23-2.79-6.23-6.23v-4.32c0-.2.16-.36.36-.36h11.73c.2,0,.36.16.36.36v4.32c0,3.44-2.79,6.23-6.23,6.23ZM9.28,26.78h14.43M19.65,14.03c-1.07-1.24-1.07-2.51.01-3.65.83-.88.83-1.77-.02-2.8M16.45,7.58c.85,1.03.85,1.92.02,2.8-1.08,1.14-1.08,2.4-.01,3.65M13.26,7.58c.85,1.03.85,1.92.02,2.8-1.08,1.14-1.08,2.4-.01,3.65"/>
  </g>
</svg>