<?xml version="1.0" encoding="UTF-8"?>
<svg id="Layer_1" data-name="Layer 1" xmlns="http://www.w3.org/2000/svg" xmlns:xlink="http://www.w3.org/1999/xlink" viewBox="0 0 34.58 34.58">
  <defs>
    <style>
      .cls-1 {
        clip-path: url(#clippath);
      }

      .cls-2, .cls-3 {
        stroke-width: 0px;
      }

      .cls-2, .cls-4 {
        fill: none;
      }

      .cls-3 {
        fill: #fff200;
      }

      .cls-4 {
        stroke: #231f20;
        stroke-linecap: round;
        stroke-miterlimit: 10;
        stroke-width: .5px;
      }
    </style>
    <clipPath id="clippath">
      <rect class="cls-2" x="7.58" y="7.58" width="19.42" height="19.42"/>
    </clipPath>
  </defs>
  <path class="cls-3" d="M17.29,34.58C7.74,34.58,0,26.84,0,17.29S7.74,0,17.29,0s17.29,7.74,17.29,17.29-7.74,17.29-17.29,17.29"/>
  <g class="cls-1">
    <path class="cls-4" d="M10.88,13.33h11.59M18.21,22.48h-.61M25.22,24.92c-.51,0-.92.41-.92.92s.41.91.92.91.91-.41.91-.91-.41-.91-.91-.92ZM20.04,24.92c-.51,0-.91.41-.91.92s.41.91.91.91.91-.41.91-.91-.41-.91-.91-.92ZM20.34,19.73h5.95c.25,0,.46.2.46.46,0,.06-.01.12-.04.18l-1.15,2.77c-.14.34-.48.56-.85.56h-3.46c-.4,0-.76-.26-.88-.65l-1.44-4.8c-.11-.39-.47-.65-.88-.65h-.77M12.41,15.77c-.84,0-1.52.68-1.52,1.52v2.44c0,.84.68,1.53,1.52,1.53h1.22c.84,0,1.52-.68,1.52-1.53v-2.44c0-.84-.68-1.52-1.52-1.52h-1.22ZM10.88,12.1v1.22h-2.14c-.51,0-.92-.41-.92-.92v-1.49c0-.17.05-.33.13-.47l1.3-2.17c.17-.27.46-.44.78-.44h12.04c.32,0,.62.17.78.44l1.3,2.17c.09.14.13.3.13.47v1.49c0,.51-.41.91-.92.92h-.91v-1.22M20.34,12.71v.61M17.29,12.41v.92M14.24,12.71v.61M18.51,24h-8.54c-.17,0-.3-.14-.3-.31v-1.33M16.38,22.48h-6.71v-9.08M22.48,13.94v3.36"/>
  </g>
</svg>