<?xml version="1.0" encoding="UTF-8"?>
<svg id="Layer_1" data-name="Layer 1" xmlns="http://www.w3.org/2000/svg" viewBox="0 0 34.58 34.58">
  <defs>
    <style>
      .cls-1 {
        stroke-linejoin: round;
      }

      .cls-1, .cls-2 {
        fill: none;
        stroke: #231f20;
        stroke-linecap: round;
        stroke-width: .5px;
      }

      .cls-3 {
        fill: #fff200;
        stroke-width: 0px;
      }
    </style>
  </defs>
  <path class="cls-3" d="M17.29,34.58C7.74,34.58,0,26.84,0,17.29S7.74,0,17.29,0s17.29,7.74,17.29,17.29-7.74,17.29-17.29,17.29"/>
  <g>
    <line class="cls-2" x1="7.17" y1="24.13" x2="27.41" y2="24.13"/>
    <path class="cls-2" d="M9.09,18.57c-.39,0-.71.32-.71.71v4.85h2.91v-4.85c0-.39-.32-.71-.71-.71h-1.49Z"/>
    <path class="cls-2" d="M14.06,15.75c-.39,0-.71.32-.71.71v7.67h2.91v-7.67c0-.39-.32-.71-.71-.71h-1.49Z"/>
    <path class="cls-2" d="M19.03,13.53c-.39,0-.71.32-.71.71v9.89h2.91v-9.89c0-.39-.32-.71-.71-.71h-1.49Z"/>
    <path class="cls-2" d="M24,10.53c-.39,0-.71.32-.71.71v12.89h2.91v-12.89c0-.39-.32-.71-.71-.71h-1.49Z"/>
    <polyline class="cls-1" points="21.57 6.07 23.75 5.92 23.95 7.86"/>
    <path class="cls-1" d="M23.61,6.02s-5.82,7.77-15.22,9.07"/>
  </g>
</svg>