<svg width="249" height="249" viewBox="0 0 249 249" fill="none" xmlns="http://www.w3.org/2000/svg">
<path d="M124.527 246.314C191.786 246.314 246.368 191.786 246.368 124.473C246.368 57.1599 191.786 2.6861 124.527 2.6861C57.2673 2.6861 2.6861 57.2136 2.6861 124.527C2.6861 191.84 57.2136 246.368 124.527 246.368" fill="#FFF200"/>
<path d="M124.527 246.368C191.818 246.368 246.368 191.818 246.368 124.527C246.368 57.2361 191.818 2.6861 124.527 2.6861C57.2361 2.6861 2.6861 57.2361 2.6861 124.527C2.6861 191.818 57.2361 246.368 124.527 246.368Z" stroke="white"/>
<path d="M147.193 101.787L126.554 124.297M147.193 101.787H154.464L165.71 90.5316H161.239C159.703 90.5316 158.438 89.271 158.438 87.7403V83.2832L147.193 94.5384V94.4934V101.787ZM127.231 85.039C126.373 84.949 125.56 84.9039 124.702 84.9039C102.934 84.9039 85.3207 102.552 85.3207 124.297C85.3207 146.043 102.979 163.691 124.702 163.691C146.425 163.691 164.084 146.043 164.084 124.297C164.084 123.262 164.039 122.271 163.903 121.236M141.503 70.6773H141.412C111.65 61.3129 79.9464 77.8356 70.643 107.595C61.2944 137.353 77.869 169.048 107.631 178.368C137.393 187.687 169.097 171.119 178.4 141.405C181.833 130.42 181.833 118.625 178.4 107.595M124.702 101.787C112.283 101.787 102.166 111.872 102.166 124.297C102.166 136.723 112.237 146.808 124.702 146.808C137.167 146.808 147.238 136.723 147.238 124.297" stroke="#231F20" stroke-width="2" stroke-linecap="round" stroke-linejoin="round"/>
</svg>
