<svg width="249" height="249" viewBox="0 0 249 249" fill="none" xmlns="http://www.w3.org/2000/svg">
<path d="M124.527 246.314C191.786 246.314 246.368 191.786 246.368 124.473C246.368 57.1599 191.786 2.6861 124.527 2.6861C57.2673 2.6861 2.6861 57.2136 2.6861 124.527C2.6861 191.84 57.2136 246.368 124.527 246.368" fill="#FFF200"/>
<path d="M124.527 246.368C191.818 246.368 246.368 191.818 246.368 124.527C246.368 57.2361 191.818 2.6861 124.527 2.6861C57.2361 2.6861 2.6861 57.2361 2.6861 124.527C2.6861 191.818 57.2361 246.368 124.527 246.368Z" stroke="white"/>
<g clip-path="url(#clip0_19_14)">
<path d="M111.265 94.3717L100.85 128.374L124.813 184.47L142.75 126.269L133.348 94.3717M64.2054 126.269H184.795M128.671 79.2597L128.912 64.1956M96.7997 80.9813L87.301 69.1213M159.24 85.9549L168.208 73.6166M183.878 124.022L157.167 95.6151C156.395 94.8499 155.093 94.3717 154.081 94.3717H94.7746C93.762 94.3717 92.7013 94.8499 92.2191 95.6151L65.2661 124.022C63.7232 125.504 63.9643 127.991 65.5072 129.474L121.728 183.609C122.499 184.374 123.512 184.852 124.572 184.852C125.633 184.852 126.887 184.374 127.658 183.609L183.637 129.474C185.18 127.991 185.18 125.504 183.878 124.022Z" stroke="#231F20" stroke-width="2" stroke-linecap="round" stroke-linejoin="round"/>
</g>
<defs>
<clipPath id="clip0_19_14">
<rect width="123" height="123" fill="white" transform="translate(63 63)"/>
</clipPath>
</defs>
</svg>
