<svg width="248" height="248" viewBox="0 0 248 248" fill="none" xmlns="http://www.w3.org/2000/svg">
<path d="M124.027 245.325C191.016 245.325 245.378 191.016 245.378 123.973C245.378 56.9303 191.016 2.67529 124.027 2.67529C57.0373 2.67529 2.67529 56.9838 2.67529 124.027C2.67529 191.07 56.9838 245.378 124.027 245.378" fill="#FFF200"/>
<path d="M124.027 245.378C191.047 245.378 245.378 191.047 245.378 124.027C245.378 57.0062 191.047 2.67529 124.027 2.67529C57.0062 2.67529 2.67529 57.0062 2.67529 124.027C2.67529 191.047 57.0062 245.378 124.027 245.378Z" stroke="white"/>
<path d="M103.106 174.59L94.1703 190.749M124.99 176.891V195.404M146.285 172.343L155.221 188.501M143.61 73.4636L152.545 57.3048M121.726 71.1094V52.5963M100.431 75.6574L91.495 59.4986M141.737 123.759C141.737 133.604 133.818 141.63 124.027 141.63C114.235 141.63 106.316 133.604 106.316 123.759C106.316 113.914 114.235 105.888 124.027 105.888C133.818 105.888 141.737 113.914 141.737 123.759ZM84.9673 123.759C84.9673 102.036 102.464 84.3788 123.973 84.3788C145.483 84.3788 162.979 102.036 162.979 123.759C162.979 145.483 145.483 163.14 123.973 163.14C102.464 163.14 84.9673 145.483 84.9673 123.759ZM192.996 122.315C192.675 121.94 185.13 112.683 172.931 103.32C161.534 94.5985 143.824 84.2718 124.027 84.2718C104.229 84.2718 86.519 94.652 75.1222 103.32C62.8694 112.683 55.325 121.887 55.0575 122.315L53.8804 123.759L55.0575 125.204C55.3785 125.578 62.8694 134.835 75.1222 144.198C86.519 152.866 104.229 163.247 124.027 163.247C143.824 163.247 161.534 152.866 172.931 144.198C185.184 134.835 192.675 125.632 192.996 125.204L194.173 123.759L192.996 122.315Z" stroke="#231F20" stroke-width="2" stroke-miterlimit="10"/>
</svg>
